<mxfile modified="2024-04-27T04:32:03.120Z" host="Electron" agent="Mozilla/5.0 (Windows NT 10.0; Win64; x64) AppleWebKit/537.36 (KHTML, like Gecko) draw.io/24.2.5 Chrome/120.0.6099.109 Electron/28.1.0 Safari/537.36" etag="FxzvZNmZHpx4ZV4B9njV" version="24.2.5" type="device">
  <diagram id="WI9T0HZ2pTsCkuznbFz-" name="Page-1">
    <mxGraphModel dx="1434" dy="837" grid="1" gridSize="10" guides="1" tooltips="1" connect="1" arrows="1" fold="1" page="1" pageScale="1" pageWidth="1169" pageHeight="827" math="0" shadow="0">
      <root>
        <mxCell id="0" />
        <mxCell id="1" parent="0" />
        <mxCell id="ZbMo3GRtVcUucu5osk9V-32" value="" style="rounded=1;whiteSpace=wrap;html=1;" parent="1" vertex="1">
          <mxGeometry x="700.5" y="324" width="269.5" height="320" as="geometry" />
        </mxCell>
        <mxCell id="ZbMo3GRtVcUucu5osk9V-12" value="" style="edgeStyle=orthogonalEdgeStyle;rounded=0;orthogonalLoop=1;jettySize=auto;html=1;" parent="1" source="ZbMo3GRtVcUucu5osk9V-2" target="ZbMo3GRtVcUucu5osk9V-6" edge="1">
          <mxGeometry relative="1" as="geometry" />
        </mxCell>
        <mxCell id="ZbMo3GRtVcUucu5osk9V-2" value="Source Code&lt;br&gt;Repository" style="verticalLabelPosition=bottom;html=1;verticalAlign=top;align=center;strokeColor=none;fillColor=#00BEF2;shape=mxgraph.azure.git_repository;" parent="1" vertex="1">
          <mxGeometry x="210" y="177" width="50" height="50" as="geometry" />
        </mxCell>
        <mxCell id="ZbMo3GRtVcUucu5osk9V-27" value="" style="edgeStyle=orthogonalEdgeStyle;rounded=0;orthogonalLoop=1;jettySize=auto;html=1;" parent="1" source="ZbMo3GRtVcUucu5osk9V-3" edge="1">
          <mxGeometry relative="1" as="geometry">
            <mxPoint x="494.5" y="479.02857142857135" as="targetPoint" />
          </mxGeometry>
        </mxCell>
        <mxCell id="ZbMo3GRtVcUucu5osk9V-3" value="Service Deploy&lt;br&gt;Repository" style="verticalLabelPosition=bottom;html=1;verticalAlign=top;align=center;strokeColor=none;fillColor=#00BEF2;shape=mxgraph.azure.git_repository;" parent="1" vertex="1">
          <mxGeometry x="326.5" y="454" width="50" height="50" as="geometry" />
        </mxCell>
        <mxCell id="ZbMo3GRtVcUucu5osk9V-14" value="Push Image" style="edgeStyle=orthogonalEdgeStyle;rounded=0;orthogonalLoop=1;jettySize=auto;html=1;align=center;" parent="1" source="ZbMo3GRtVcUucu5osk9V-6" target="ZbMo3GRtVcUucu5osk9V-13" edge="1">
          <mxGeometry x="0.6248" y="8" relative="1" as="geometry">
            <mxPoint as="offset" />
          </mxGeometry>
        </mxCell>
        <mxCell id="ZbMo3GRtVcUucu5osk9V-16" value="" style="edgeStyle=orthogonalEdgeStyle;rounded=0;orthogonalLoop=1;jettySize=auto;html=1;" parent="1" source="ZbMo3GRtVcUucu5osk9V-6" target="ZbMo3GRtVcUucu5osk9V-15" edge="1">
          <mxGeometry relative="1" as="geometry" />
        </mxCell>
        <mxCell id="ZbMo3GRtVcUucu5osk9V-6" value="&lt;div&gt;CI Pipeline&lt;/div&gt;&lt;ol&gt;&lt;li&gt;Run Unit Test&lt;br&gt;&lt;/li&gt;&lt;li&gt;Build Image&lt;/li&gt;&lt;/ol&gt;" style="aspect=fixed;html=1;points=[];align=left;image;fontSize=12;image=img/lib/azure2/devops/Azure_DevOps.svg;labelPosition=right;verticalLabelPosition=middle;verticalAlign=middle;" parent="1" vertex="1">
          <mxGeometry x="319.5" y="170" width="64" height="64" as="geometry" />
        </mxCell>
        <mxCell id="ZbMo3GRtVcUucu5osk9V-10" value="Commit" style="edgeStyle=orthogonalEdgeStyle;rounded=0;orthogonalLoop=1;jettySize=auto;html=1;entryX=0;entryY=0.5;entryDx=0;entryDy=0;entryPerimeter=0;" parent="1" source="ZbMo3GRtVcUucu5osk9V-9" target="ZbMo3GRtVcUucu5osk9V-2" edge="1">
          <mxGeometry relative="1" as="geometry">
            <mxPoint x="170" y="202" as="targetPoint" />
          </mxGeometry>
        </mxCell>
        <mxCell id="ZbMo3GRtVcUucu5osk9V-9" value="Developer" style="aspect=fixed;html=1;points=[];align=center;image;fontSize=12;image=img/lib/azure2/identity/Groups.svg;" parent="1" vertex="1">
          <mxGeometry x="60" y="174" width="68" height="56.00000000000001" as="geometry" />
        </mxCell>
        <mxCell id="ZbMo3GRtVcUucu5osk9V-34" style="edgeStyle=orthogonalEdgeStyle;rounded=0;orthogonalLoop=1;jettySize=auto;html=1;entryX=0.224;entryY=0;entryDx=0;entryDy=0;entryPerimeter=0;" parent="1" source="ZbMo3GRtVcUucu5osk9V-13" target="ZbMo3GRtVcUucu5osk9V-32" edge="1">
          <mxGeometry relative="1" as="geometry" />
        </mxCell>
        <mxCell id="ZbMo3GRtVcUucu5osk9V-13" value="Container Registries" style="aspect=fixed;html=1;points=[];align=center;image;fontSize=12;image=img/lib/azure2/containers/Container_Registries.svg;" parent="1" vertex="1">
          <mxGeometry x="726.5" y="171.5" width="68" height="61" as="geometry" />
        </mxCell>
        <mxCell id="ZbMo3GRtVcUucu5osk9V-17" style="edgeStyle=orthogonalEdgeStyle;rounded=0;orthogonalLoop=1;jettySize=auto;html=1;entryX=0.5;entryY=0;entryDx=0;entryDy=0;entryPerimeter=0;" parent="1" source="ZbMo3GRtVcUucu5osk9V-15" target="ZbMo3GRtVcUucu5osk9V-3" edge="1">
          <mxGeometry relative="1" as="geometry" />
        </mxCell>
        <mxCell id="ZbMo3GRtVcUucu5osk9V-15" value="&lt;div&gt;CD Pipeline&lt;/div&gt;&lt;ol&gt;&lt;li&gt;Git Clone service deploy repository&lt;/li&gt;&lt;li&gt;Linux Command sed (edit image version tag)&lt;/li&gt;&lt;li&gt;Git Commit&lt;/li&gt;&lt;li&gt;Git&amp;nbsp;Fetch (check git version)&lt;/li&gt;&lt;li&gt;Git Merge to Master (-ff)&lt;/li&gt;&lt;li&gt;Git Push&lt;/li&gt;&lt;/ol&gt;" style="aspect=fixed;html=1;points=[];align=left;image;fontSize=12;image=img/lib/azure2/devops/Azure_DevOps.svg;labelPosition=right;verticalLabelPosition=middle;verticalAlign=middle;" parent="1" vertex="1">
          <mxGeometry x="319.5" y="314" width="64" height="64" as="geometry" />
        </mxCell>
        <mxCell id="ZbMo3GRtVcUucu5osk9V-19" value="Edit Deploy Setting&lt;br&gt;(If need.)" style="edgeStyle=orthogonalEdgeStyle;rounded=0;orthogonalLoop=1;jettySize=auto;html=1;entryX=0;entryY=0.5;entryDx=0;entryDy=0;entryPerimeter=0;" parent="1" source="ZbMo3GRtVcUucu5osk9V-18" target="ZbMo3GRtVcUucu5osk9V-3" edge="1">
          <mxGeometry relative="1" as="geometry" />
        </mxCell>
        <mxCell id="ZbMo3GRtVcUucu5osk9V-18" value="Operator" style="aspect=fixed;html=1;points=[];align=center;image;fontSize=12;image=img/lib/azure2/identity/Groups.svg;" parent="1" vertex="1">
          <mxGeometry x="63.5" y="451" width="68" height="56.00000000000001" as="geometry" />
        </mxCell>
        <mxCell id="ZbMo3GRtVcUucu5osk9V-20" value="Test Cluster" style="sketch=0;aspect=fixed;html=1;points=[];align=left;image;fontSize=12;image=img/lib/mscae/Kubernetes.svg;labelPosition=right;verticalLabelPosition=middle;verticalAlign=middle;" parent="1" vertex="1">
          <mxGeometry x="726.5" y="347" width="50" height="48" as="geometry" />
        </mxCell>
        <mxCell id="ZbMo3GRtVcUucu5osk9V-21" value="Pre-Production Cluster" style="sketch=0;aspect=fixed;html=1;points=[];align=left;image;fontSize=12;image=img/lib/mscae/Kubernetes.svg;labelPosition=right;verticalLabelPosition=middle;verticalAlign=middle;" parent="1" vertex="1">
          <mxGeometry x="726.5" y="455" width="50" height="48" as="geometry" />
        </mxCell>
        <mxCell id="ZbMo3GRtVcUucu5osk9V-22" value="Production Cluster" style="sketch=0;aspect=fixed;html=1;points=[];align=left;image;fontSize=12;image=img/lib/mscae/Kubernetes.svg;labelPosition=right;verticalLabelPosition=middle;verticalAlign=middle;" parent="1" vertex="1">
          <mxGeometry x="726.5" y="563" width="50" height="48" as="geometry" />
        </mxCell>
        <mxCell id="ZbMo3GRtVcUucu5osk9V-24" value="Argo-Rollouts&#xa;(Install to All Cluster)" style="shape=image;verticalLabelPosition=bottom;labelBackgroundColor=default;verticalAlign=top;aspect=fixed;imageAspect=0;image=https://argoproj.github.io/static/3748e3a7881fe3b037f2401b65943dc0/93d75/rollouts.png;" parent="1" vertex="1">
          <mxGeometry x="870" y="347" width="80" height="80" as="geometry" />
        </mxCell>
        <mxCell id="ZbMo3GRtVcUucu5osk9V-29" style="edgeStyle=orthogonalEdgeStyle;rounded=0;orthogonalLoop=1;jettySize=auto;html=1;entryX=-0.005;entryY=0.45;entryDx=0;entryDy=0;entryPerimeter=0;" parent="1" target="ZbMo3GRtVcUucu5osk9V-22" edge="1">
          <mxGeometry relative="1" as="geometry">
            <mxPoint x="597" y="479.02857142857135" as="sourcePoint" />
          </mxGeometry>
        </mxCell>
        <mxCell id="ZbMo3GRtVcUucu5osk9V-30" style="edgeStyle=orthogonalEdgeStyle;rounded=0;orthogonalLoop=1;jettySize=auto;html=1;entryX=0.012;entryY=0.549;entryDx=0;entryDy=0;entryPerimeter=0;" parent="1" target="ZbMo3GRtVcUucu5osk9V-20" edge="1">
          <mxGeometry relative="1" as="geometry">
            <mxPoint x="597" y="479.02857142857135" as="sourcePoint" />
          </mxGeometry>
        </mxCell>
        <mxCell id="FDaz8-wHrUfzyFrvcFVr-5" value="" style="group" vertex="1" connectable="0" parent="1">
          <mxGeometry x="499.38" y="410" width="92.75" height="175.1400000000001" as="geometry" />
        </mxCell>
        <mxCell id="FDaz8-wHrUfzyFrvcFVr-4" value="" style="shape=image;verticalLabelPosition=bottom;labelBackgroundColor=default;verticalAlign=top;aspect=fixed;imageAspect=0;image=data:image/png,iVBORw0KGgoAAAANSUhEUgAAAOoAAAFbCAYAAADbdRIqAAAABGdBTUEAALGPC/xhBQAAAAlwSFlzAAALEwAACxMBAJqcGAAAAVlpVFh0WE1MOmNvbS5hZG9iZS54bXAAAAAAADx4OnhtcG1ldGEgeG1sbnM6eD0iYWRvYmU6bnM6bWV0YS8iIHg6eG1wdGs9IlhNUCBDb3JlIDUuNC4wIj4KICAgPHJkZjpSREYgeG1sbnM6cmRmPSJodHRwOi8vd3d3LnczLm9yZy8xOTk5LzAyLzIyLXJkZi1zeW50YXgtbnMjIj4KICAgICAgPHJkZjpEZXNjcmlwdGlvbiByZGY6YWJvdXQ9IiIKICAgICAgICAgICAgeG1sbnM6dGlmZj0iaHR0cDovL25zLmFkb2JlLmNvbS90aWZmLzEuMC8iPgogICAgICAgICA8dGlmZjpPcmllbnRhdGlvbj4xPC90aWZmOk9yaWVudGF0aW9uPgogICAgICA8L3JkZjpEZXNjcmlwdGlvbj4KICAgPC9yZGY6UkRGPgo8L3g6eG1wbWV0YT4KTMInWQAAQABJREFUeAHsvQmcXFWZN3zuVmtXd6fT2RcSsgBJ2AKyiyCDoCCLGkUhEBZFBrdxmfeb9zcOcT51xtfP1xkCqAiigOgQZVEc3AYiAgLKnoSQQAjZ96S7a7/b9/+fe291VXdVd1V19Rb6JNV1695zz/Kc53+e5zznOecoYiwMJwWU5cuXK0EBcO0E1+W+lyy5X4vHU0YolA+bZi6kKIrhOHrI0hxdtx3dVAxV1y3FMl1V1XRXtWzXMRRHybu2pauWbplWKBTLua5idoZz+XGWnrv99uvNcnl133NRxq/JMt50000u8nS7n41dDRUFCkwyVBm+Q/Px6ewKF2yuyF/lGX7Zsrsitp1tdkNOs+I6rcIVza4imoSrxvFmRFXdkHCdkCs0TQhXU/AAwFMUFaniwsVHqKoQgDwwJUHl4BtwdV1VOCquHMe1VU0AoICwcHJ4lnFUkdSE2oXXOnTH6TAMvfPAgXHJlSs/apdtM+ZT4B55MQbgsoRqzM0CqRuT3Fgq3RTolkSVJOXll9/crEaV8YDQBEXoExzhtIH7E4BXFA1jAIhAHNCFf0CiRKED9HmIBIx9IDJPwL4yUABcF7Fl2QAwFWkiMbzCVIFc5IOMEHgf6QDIiJTDdwpPOpDNXkVzd+dda6/VcfDAypXL8zJ6yZ+S+rIslctT8t7Yj2ooMAbUaqhUdRxXWbJkpbpw4Vq3JzjPWr5cn/1227i8q0xWDX2qajuTAIpxwE9MqI4mgDrIRBsgdSj5CDwAyWd2TyNWpZQM7pUWSkrS0lslv3qqrEF8SFIED6bBFbJm9qpQiHBHww9EYPlcSGC1Cw/2QKneAeV6eyrl7F258sZkSWZ4vxIdSuON/aqWAmNArZZSfcQDKNU1axYoPdXEZcu+22oq2lRd0abbrjINjN4G+EV91RS3HAsgsQMVleCRkPFwWZKjS9WWAdjBCxBykJDQX4WGN+Q1H+J3z+D4mislJS7xIhBo41tFlwBJzc4A372CL2P5JCgfUqBY16Eq6ygNhLFrAcydSHOXrSlbhbC2xtXwruJxbzdtlrCbGZOyvQhd3Y0xoFZHp3KxIDWWqCtX3l/CgEuXfm+iEhKzIJEOAzYmOa7bDAaFVFIsYMOEngmUUGBRQEGmFgUJRgDEUoElVVNsTVMcDTcATF4jtgQnICrfYxJFwrAopQqXLCky5fhVReEIWoJUw6iV1xqMT4rND8So/0xBBZia7BgwLJYFhwog7zEZ19VxbUgICyULEbwfBd3qau6mzMH8lpUrv5hhXAbQS1u4cGEvbcN7Ova3LwqUMEpfEceeSQqAXmRVMny3dLj22jva8k52HjTFOa7jTsKjqA8iE9+WIkUWsIcf4H8PZJCQBJ4dCim2qqiOoau2qqoEpBRzyAA4IJoKbSTzlBCRfwbYJKVpMzFkhZpByqKQkLcStASxblqOYsKsjGthmqg7hSlGy7AsM/AFv6yUtnJsjQQs9DAHkeQWVHn93BkLNi1ffjY0CC9Q0uLDToCfsdAPBQpM0E+8d/RjMhUJgO8CQqR1VsvOVV17AVh2GngV4IRmCHXWoTpLjgeH4r6kMaWlCxDaAKSpq5qtA5i6xhfw3ANNAJSyxC7kjKeyNGVjVX+zOD2+1StN7wY7iqBclLaa4zq6bdp6znI0ApiADqQuYsoC8FVfTQbgoY8jhlD2I+Ybmuus/fGPb9wp48k/nhFqDLTdFCl3NQbUclTx7xGga9aswdhzZWGKYtmyWyc7qrIIOuMRYLxWKH9gQtckuxKbGjgbwQOnrikWgGmFdM3SNICTwKQK2838fWQ/Mh9BE2f9ZCVcANeCpM0DuHnL1i0A1wctC+/441xq2QAuB9CQtsIEjrdYrrPaEE0bfvzjq7OMy8B5Yozz2YWMSVlJke4/Y0DtpkXhygNot3EIv/VNm8bPhVp6NGyyswHOEL7zkEJUbX0DkCeiYCNV7XBYNQlOw9Co1iIKQ7fRhlF7SbBC9iP/oqj8rBsLzO5JA1ChJtsGgWs5toIxL58VDGEYA7CPwnRTRI6uXXUvIPmaEnNW333rZ/YxLgLG/vdj7F9h/taL8477OwbU0iYvYZJly5ZHXH3iQjgIHA2pOZVMhvEjJIBC1RZarwU2xXiNkjNkaKah6XlD11zNkAKHfyhl+V+G0QzOUjp1/yqpW6DCA7RUkU3TNrI5KW0paYsBCyFLvSMM6sF5Q+nC9QbVVF66++4btnmJF1TiIIfuPN+BV2NA9RpduvJBckqm4PjTUVPHY5h1NIRAO8eeYKQcjUIws0qA8jWLkjNi6PjulpwFcDIpIPNQBKdHs95/JfXwR6q8RaCFpDVypsUPDVOBBRmdHsfxIK0w8DckO0FVvKWo+t/uvv36zV4GfMzgj3+9H++4v+9woJb22p/61A+MlGOfgKmJxWCgVgdaLFQzE0TC2MtzDaBUMMOGnotGdIw/MSSlUvsOkJy1QkOCFi/JjsoHLdw5DPgbhzNZi2PagpQlYBEfk1KY/3FDoCcs5WKjsNW/jElYj/DvWKD6hgtpJOKYdNO2CcfYtnIKnAfa0XvDgUjBVALstz7D0SgUABSqLv36EAJu9Ig59rd/CgQdm2blnVA2b4YhZeVYFlI4oKac4hVuGBLW1lz1tbCuPQ0nir1MnW3lfwfR+8/0EIjxjgMqG7rYkrts2ffnOZpzGgaTMwIDEXp0armyeTmVYsYiej4S1mHF5AT/mEWyIYzvSVkVanEYgA3UYiYtx7JoAbYDyB2lSowfL7WElWdvu81zVyzuaBtSnBGeyDsKqMWNSw8iuOScITTlCNlGrsgAgdJhhyqZSeNQLKznQ0Y3QIndd9KYczCZN5CHoCelrApnCqy8M410zhvH0mWSY10Hk7cw18F4HoVBbz/6ymd+csffP8+isdNdvvwmNNuhP359hwC1eyxKsMaad58O/5sToGvFwCMEKNgGS8YAUKq4+XjEGAPoYKK0KO0KgI2ksiZVYkpXuj5BlbFheYpIP2OhvI3B7J/uuuvGLd2AXR6kVJT4oXN5yAPV63W9RvzENbcdrrrOezHHgpUrbh5dNg1FnhXXMEQmFg6VqLhs+jEJOjTcHsAskLCW40Ry+Xw4lbYKRid6KbM9HIXzsJajOi/FVGOVtwiA8z2QrcT1IRgOWaASoGwvfDtLlt8firy972wh7MXwx6UnUR7TAVS35HgoFw3r2Wg4hH0SxsagI4jJqRLrpmNHM8m8kTaxqAHwZJDTOoAsfKrR6e6B5P3jT37yuTf5qHh4w9+HSjgkgVrcWJ+49pbDYDk8D5bESWjhFDtuWhXlODRqaNl4PGTqmi6NRGMSdGTxtWwPT6Ux8jkrkszk5TxsAFhIWICXO17ADK8+l+lqf5weTV77H1rL6g45oBaD9KprbzkT8y+n0ocPUpQeRXIcSk+iTFM0lAuHDPbaWNYF34aRxaNjpSmlANtJGpzSWTOCDztaumuCgWlswpcSx58trq7/7t7br9/Bt6lVUaMqTWl0/jqUgFrwLrryylvGO7pyPuA5G8IT6yEV4NUzFnGqJRWPhtAHwzseAOU0jO88Pjqb8B1Sar+dCFi6Jka7Mjn6FAfqMMesMDrF4DCRx+fJe+76zLOkzKEC1kMCqMWNsfS6W4+CseE8IDAGY1EalgVVgU+ugLEoFY+EzUgUC50BTqlWNYbJMWWA9ByBgS/NHcgQzKR795jNWGgQBQJiyo7VEZFsLh/pSkvpSi0JijBWvWMHCliHYVVam+2Y8AhU4XwxfzSoJEOezKgHarGqe8V1K84CSE/DeMVEg1lw/+MiNJf+uKmmWLhgLGogSHUwTVfedvKY7mvHvKthYG+SjGl1ZW2nBS41BCzXW4+FBlLAb79y0pVTOVJTEiIGY8TusBr61R13fHKXpx5DtxqlVuFRDdQApPDRjaUt80I0wxEwBXoGI0pRbB2STcSMbCQckmzSQIAyPQ2t3pkz7cPGx8PHzZ8ycVwiFodCreZylrVjT8eBp9btkG5v3IB3DKoNBGqQFInqay7RZDrHuVepCtPe4HCFkxuBRmWio/z9T3/82Vf52miVrqMWqAFIl34aexSZzqWuI9rRmaYA1oLjQiYRC8PDyLPospUaGAKQHjG5JXbG8bNmRyJh7Mdr04kf+30Bmegmdu/t2vPrZ9/YTGPW2DC4gcQvTqpIuobg2RTvSufoKCENTdifio7+6CXDmqY+9eM7bljFV0cjWMtsW1dMhRF5jY7SVdZ+dJFz1VU3z4HrykfwuxngIEixZ4+v6rYmItjuBHufYPGyP/3WqNqww7agS0GzVc9515zDmqLheD5v5QhS/nccMAqcnFqbIs2YATJf3bwv2RwxVNxGERtVirF0JAV8elJlwTY3WKwf0lQbu05g5wmYDzFw5WZykKquO+/44y9sffnFR9avWnU2N1hTV61ahQYZHWF0sQ3N8P4YY9knbz0OPmXvk0YhRcGG0J5Vl9MuWVh1SX6OVTiOaXRT0HjUkcnbJ8xubz756JlzMQTlQnIuKpeBX/SqQDehJtP5zH/9ae167K/Z8HI0ul6jPj0pXT0jXlMqnTXSWekkgYYhJ3AXpzgY4q1cV+4B7o4YaGWjod4UDqMisAcMQHrFdbe927bEBVB36VKGoxlcqRkkWxKRDIxGskJotMEAaUAs7GAmEk1hDD85lYfAv37/zC/8lNOzcB022ujcD8k+aojN+ozGQALLaRwhkommSKYlHqKGhT6TnSiW64gkJtRnRRKRpZ+44bZxgXPEaKjqqOCd4jEFnBjOAbHfAwGVAXBhMoCRD82QbG2J5KMh7IGCdmEYgpphOg8bEAbwRJ5lZCYkq5ODGgZLtBT+smxjfwaPAoV2d0QmGgknxyUihcxUWBdpx1DEeDXrXs4VVKMFrIVqFSozwi6KQbrs2lvPBy5Pg16J8SiwiN6Tq10621ojZghugPQwamAoEIcqVY8QM7A1/O6udN60LGjCWF/O7eq7A0apDqZutI5UNrWzE+5viN/9dOxqKChAfsjD+ywJewWdWuRqHExxo6ky0IOacBDXx6+5ZsXU0QDWEW1MKgbp0mtv/SCk0wmQpkmqMVBpBNeMpsYloq6q4Tecj3wtdKBMQIDSLw0LONC+SBQQ44orfkOSS6GNTQaVHR1Zsz0REhPGN7fiFUAT0pVwRHeBomEttG3+5dXNm5OZnG3QEapI+A60jGPvV0EBtAW3CqdRkUYm7JJoa2hUTOGA7+HBpKgRx1WOOu6k87b/7J5rD3In/7Vr1za0s6+ilFVFGbFALQbpVdfcdhFqcxxg0gUgyOkXOjEkmxM4x4XIAWoJqAYFE+PJiGGoE1pi4baWaLg1HjbwHztgOm7OxuZJHlpF2FDVN3d0JhNh1W5JROO6phl4BjmqKMlULv3s6rffXr+zI9MUCWHJThmx3KDyjiXTBwXQVgSrY2gqd4nU8iY2EAfDAKwYM2He1Q0rjn7k4uM+sPWnP/02wHo/wLpyxIG1YczdB6lqflQM0qXX3fIBrEVbLNVdT5K69NdNJmLe2IP8X9BRa86q5AVOudA62wZkNcfDIWDf6wbQD2Asiv3NFGd3R1cmCc8jPmC2zL4jY9mzJsTDh02C9QInQnUk8/nXtx1IpvKW0wKQUjKPhWGmgOQTroyz3fjBZJZ+wnKulWcCKU4YS9NzprDv//mPPrt9JFqDRxxQgRUpr9isV11z6/tgrTmJIOVNWvQaDVKCjRZcGgcx6am3NWP1OA7upqmwmLXwGEeFKiq8Ba2tuzvTEqF+B8HpmnTOdFN4iPJiGz1FSUQ0FRKWpwYXJzN2PZwUKAPWbh9hAcnqZOAa8fN7vn/D7pEG1pEGVJSH+FDcK6+59WzQ9QyOSQcTpHmMPUNQVce3RMJNUYg/aND0LwLeKtJm1/5kOond8yhVA74jZmU5/Rsc4wbPxr5HEAUkWMlhbg/J6sLnVInAIpgMi9x9d975xf0jCay+TBgZhITKC8YHSK/93klAyumDCVLWmHOblKLTJiTi0KTl/Gt/ICWQKUF7Ckq2P5Jz5WcMpCODocqVghyPxqLeloLrGA2SKsessAZDicoCrIm8G/nIkiX/N0prMIdh5ZIZ6nsjohCsNHsvEMXhMjWQjXOlaRJTqrs0HDVwTEo1l5/J4+LhSW1NMbgDY6bH85uvJEkDYGKfdwFjLtTgMk3Fe+Xul4k6dmsYKcA2kmDVJFg5xReAlVM3cEmdEE6EP4RYXOPsjASwFlS3YSRbYZ+by6+7eTrOJryMvrzgeJvzpOzx4HEE665H3IEAgUlQ1Q2jXSbDYhQOaThKAbnRZ6IPVZfPSR9dxxK2VCa/80Aa83Ddai+fjYVRSAGpBsPAhI636UBnhtZgz8DEk9RFE7ruV+++6zMPs2ZkEoRhG84M+/RMMA7AeS+t8J3+mKuoYUDAhDO9asOqw3lSTsEUG2/qZQlOuzTDLjsZ69FoMMJSKOwayqEl/lYIBCn9WdBGaiqbz+86kM4S1pXfqJDQ2O2RRwG2OjQkGJTAa7oWMvOWB0UY9F34j6vq9OOO/4D28ov/vQkMQCf+YavDsCpqVCkCrxBHy1wMTSMBQnEVisodGdLwKOHhvwMBaVBBOiy0N8dCk1qb4FQE/wiAVDofViB9IEVxJJSKqTdnT0cmvX1fMjOQslTIauz2cFIADEIPJh6RiXn5gruhLz/TkKWnXr5sxdFUgSFUAnYa8hIPp0RVgmVGi089+wOoOXasl66BskzJlqYIxg50C6x73Eeqcm6U+srU8fFISzwiG0IitB9VV3qF4sVOiNHdHZlMCt5FGi1JFWXvkLed7DNYt1o+I6j4Q0+wSjmCKLRQ2AZaHfsZhjJ5qr704qbuBHVKPfykEy7deO+9V3ZRuAR8Wym5wbg/bO3GCrOXWnrNihNBifPh1JAEy0mvo3RrU5i7MnDXOfZs9VQ8ACkdGCaNb4pGQ7ocj1aTFhVbSFFrb2c65zk3uAq3XOGQZrgC6xN055hakM4WNGihVJI+8JciXmUZ5dDLL6j3nh8HPxiPz/mhPh9c+9Hf2V8gBjhQ4W4RUWxNGoxXwQ7cKWJfa9y+e8WKz+UQi/CV9B4qgmGjr6EPAUivvPI/Z8JBABZeeawEt8Z2s4mI3DqF6kiww1ytJSRzSqMRZkWnjE9EsZRYp6rbl8GIVl1svw0GdkVHMpvb15XNSU8lNBwaZUhBSvCwDvLQULUbiBlUIIUDc7ajOOsUA87NKBYjM/AFnFMoZQCveR+Ihj8r5UI3U2EBwTTHVmdDpW/Bd1Q4crDO97H1vGsiDxxjJ4NM0r9+R3yhwpxf5XpmnWe6ZnGYq0Ynfmw1q4hJBzPaBaDDA0MNUtK+Lmk1kEYLQPrZz94cPpjSrwYMWsBJeXi9q1Ysqiab49GBpE/mIkjjEVWbPK45iiGu1h9ImR+lKGxN9h7oup0pHFTEzQGGkFOJK/YkUYi8uALAIRwUuv26YpjrXZzTimcJx9YvULPhRW4qcZiSbG4XyZZmkWqJi3ws5ORiip2HFgINHfYvDPOxTAHdHd7PK+F0WjEySRHv3KfGO3YoTZ2v4fOsiGZewV4IzGscVJoTXdOYoFo0haPn1By4g0mADyEZWJQREQjYpgNdGbnhN3c4hNMZjJrYO1j5/d133vBcYAQdqsIONVCRH9teca+4ZsVFMKQeDTCkcUvFFglKEsCSxqM6a98NUl3j/CiNRv05MDArghRn65q7D6YgRrE8TUrROgtR42sBQBOQbE3C0Q46qv2AGs0CN7YO4HxZ7Wg5XuyZfJi7f+p4Zf+0JtHVHhGZVpx1HgIqsUKBGUqaSicMx4ROgB1uGTxdwLtml8y8MAMscnBLz6rRzoxI7Duojdu+TbRvW6O27/yN27r/SeYNl/Xz3Gx4ChYR5qFbdwC07Cjkuesy5UP8DwmFTdMAUrtpfwc2bgctwbM4+tHrszT9p9zkeyjBOqRADSp2xTU3HwtdDWqECk8Qjtddt6u1OSo3IoM0rEeSBSBNRDyQYjOrPkFKVVeO8aDudiRzud0dKYw90D4YuLGdhiJYYP64L0HfdCP5J9UwAGoa3xK7J52sbJ0zTeya0yr2T4+pGagGnEnilnrY0gLaMDzJSSgoIxKlHlT91oQ3B5LBp3iPJg/LZDeYxFwlhFexixPxh/2IVZF0w9mUMm77Tm3SW6vVGRt+qkzatsqNZaY4+dA5kOKkiQQsvt8REhYV5niVewfHDiZzchgmd21WsGewuyPbNeGewHOJtpbB5pchAyrX+q1cudLmLvbCUK4APkPgNYvKGfc54hYqHJfWwwUBSOMA6RRI0v5AGsyNgo/dfVhJcSCZxfEz2OAI1B50ivstSvUygvHnCyKSW+eE8lcrB1o/pmw8ar7YfHSL2DczoeUjXMFKYObwwYCdm3RJuLFz8wwaEru9eISSFJQEWDGE9aVrEMmXr/iSZ6nLnwAv1uc5AC9qj3eTTshJaa3bt6gz1vxBnb16uTJlJ1Q/7aMiI63mOaB7qOgUlHs4v5u6uvdfAlXZDk0Qrs/c/aO//6PXDhJGPmkHp6Qyh8FJujjVbivZldfd+jFUdS56pRQb3wqHVWyXUfe4tBukqjaptTmGZaR9SlKClHOjHI/u7khmsEeDTZAWl3YwrsnYLGuU00L48ZIayq8XmvU1Z9ekD6rrT5wu3j6uWUu1sCRSatpSYnpiFFKQ6nnN5cIbVIOdPDIkG1VOoVs6Ix8dRqmQ1HaF6HLDuT3atNeeVI949lPK7LdYhkuhFqNXVXNQibGrXD19K5MZ+cFvtGC8qtGRG4zLdgRBQ2C0lTxFLrC7DGaFKjddA3MNKnLVdbedAK3s/WAaORXDLLrGtUaBFM/L3aNA1TkzOi2zdNWcPr45hl3pAUDq0uwYeocApFyqtmMfZkaxXpQrZ9gegxmopsYxBo2CuZ8X4dxaoVvfELsnX6ysPm2a2HRCs27qOUejSisB4wlOWYey9aiprEiBKrAEKyvaf4qANMvBFx3svwrJr9nwQtHEbnXK+ifVo59Yps16E2No9zInFeXw4QCMXlgX2H/KNRV8ZEQmSDFYULlnMIxLWW8mItjc292f7Zr4Y6jA3AUT9S+yrje4+EPg8ODCseFsd9my77Zio9VLOB4lE/CU0gx2UOCeNtxWpZ5uGf0bvL80ZWo7tsP3pmD6BSmsRdaOvTgdF5vscjuGoQApdgjX0zA+3y+aUleIjtbvK8/+3bnKsx+eaeyZif0s1ayD2SMUBE3N8ToZPvg0pLkx7BbYrQa4A53xvx+wyrxZDkpxSpC8CxhCtk9QD46f725cfLW7Z8p8Nbb/20r73ijuz3atUEaeNttf0g2pztAmAip4zhAwMVIo5OHjhk29QUgchK20GeEuuBg+uhELvwbVEYKNMsjB62mWLrv1Q2CQo2CmTAnT0gY8FQPG5iTitAktcGbQDLhGYHYDrFUmBJIUDifmDrgBcuXMUBmN2oWl3aU0pae4pvZT5ZWTjhZrz243Us0pS4M2oGENJETpUPE3QGrnMP1anWTtRUlpnId8aTZMpdMJ2W8Z8//yfW3xqh86rR1XKl1NSczD5jAbfqhahwlUOWVjcw0VmY2WYMdQDe3eu79/w7ZAc+xFuAbcGFSJSivv2rWLnGXLVhwJe8i7sbEJlhChN4K+lIJfJTYlA7DYxdceQCp3yvh4NB4xQt48aXk50QukEF3QkAdVkhIHIWRsAID3ieau7yjbpn9HrPrYImP9qYawwynb4BGBUCLkfsRlO5faKVLFG8hJoWSlNbiOgDex1ESIjGPYmuvoM9SdM0+2Ny88XdW7/reYvmUK5m/boD3kYI0eukrVUZF6XqHGAx9SF5tdhjI5uBgSp1A7HGFASRz/yov//YrvWjgoVa9xVFh9Ddm7+OZr3VbVd6NS0FRRO+l9FDMsbMtXj41VjksxqKeDPY6SAB6oo5XniwoglQKl+prUFpMgbcFYdKcwrF8okcxj6rNnXisevWG6sWtOyjRcqLmYMnbgEYZBXm1JNyQ2TdtquL5m98uLLfxQCXhIdebDdovTMf591qorXnZ+/xHs8ab+XMQz41B/5kBaHDIBFaJE5RSi3D8afAyvL/h5KVhNJWZ8AvYX1hXCqT7i9kOoQUmUea5Zs0D2LBs3TzgFQnMiup98sL40G8IO86h0P2Xr9ZiFpdcRNh7TxyXCEYK0VyT/RgBSOSb11V25M0OlFxp0fyJU3fvArDOUbOh15beXn6n/7SIciGMkLcPmnKWv6jYotzqSAcWk05UBalakXt/p8jXUA9IVa54cw8mbqljgvn7yHeZDN/x/YseUe91EMgGwhtEI9LbqO7XR9tQRabgYenstwbmEYgIbpGEUf/LSpXfHg7nVRtdqUIAaODbw2ADgcTEKjWMnKEMUJYu9wziRXGt3y4LSwhsO6Wp7Ih6VOhgTLRMIUq5+oXV35/50mmNSZD0oKklx9m0cj7pNye+I7VP/Q/n1p+cbbx+TtEKOBWuuD9BBL0NxeSpeE6w47pefesHKtFkZD7DC7cyH7PHO/slX5x/5+4eVVxcTrHQkp0vkIQVWqAk8ZzcDPqZ26Bv/TBjq2pxQ5ymkix8a2taDMUZVgn1Rjz32A2cBHrOhbGVQKdWKRvRsLBZC5bxWDqpUxTe7ZX6mtcE7Aou+vaVqkldK3g5ACp9qZzumYGjdpeGI7w5moLp3t9LSdZ9Yv2CJ8vjVbXq6pcsKSWMRaNDQRmtUPXhsTpWW4P6yJIVVWIdtjMH1eWLT0ecrlvNldfb6efgNyaqaGN6BCCOSDv1VruS5XwmeHEcXQ9WEC5gm68aB3YRjF31w4803fyXJoV8jl8M1XKKigGwMTMfcOhnfi6DswS2OXgY4LCYa6j5QuKT2/f/gwu+J2Ayb26f05WQPhpEOD3Rm4DzpYFp3gzEY1by73dbOR9wXT7oQII2qZhiqroXJ4WFZndQ/Nf0YaH2VKnCDAuqrma5mZ/OaONl9/vwXnccvfljANRGTcZSsdJlsUFbDmgyHbURlDpZMbu8NCQIFjycKwmlft09i4YCDgD0aUtbGtZJfnKCA0PZORn8dQaWwvYWLSsV0rqKXnuM15kqQNmG3QO4U2JfxiEXg2u59neksPY5wiMGgWXfZCux1aDiiZff34rkz3qv95aPU6nM27GcA6YjnShSQ49WBqsCkOwPrS7BitazTldPdRe7a01e7f/zwo6qeJ1gTGBocCmowQUqwmqGwzhMbqALDpKlBIGUgmBbwPBuPIOWNnPJZjX9qhEw/qQOQjHHlp783DYg5EmI0jUkIlQPvbDjkGZBqzRGI4GoWTJdGCEIK53Kl4H2qmHSwP5BM48wogrShnVpJthSVzWC8ewlS92+nnak9d6mN2RZKFJi2scysn0DzKwpcCLzuea/wcHAvJFCLijKQ3FhvjluhVruduZBzpPv6Savdxz5EsII2Dj20Bq9VBlLyGt9lJdCE2aa4welGIhVdFdcIG3AB9caqxe1bY/I9o9cKm57vl/72GxunK52MsY+OWTdgxRFZqAg82qw0cv+/+IKFST+eAYMhAVwty0/FUBOh/65cqoZVMPRWGmxmaAVIfwKQ/tp9+cQztOc+BCbkOfRY1yIdGCpXzm8818TWUHks2MFBr/x4v7Giiu7ucnlA5SQa/aSRUrVQNjQJrMJKRy7sHOmsP+lF8cQHH4QazL6TCxIK8UbrBZkTvI3tgjQzgoNMKFV5ng1GePg7TwortCY0zJr5vhxJGpIIE/YKhM2zr/zeNOBmHguMdY2ahUUpOboJ4ma5AlS6x4IFUzEwH1WcL6XrHbLAuBRO9lhPWim9Rt3nOIuS9CdKU/LH7vojzlT+chl5EiDl/Gjf9CRICUp8tHHtwpg9XxjzF+KzSBiHHym0CVPQ+OibLQ53+k6qUfWR6aBlsNcMRWFDA5KDjuMonTnDWeSsPf1J5dmz71fiqRj6s8HuSBtakb4SQ0Voe5E+wLim0EBnq2HC/GS+dtNNN9XE95Wyajw3aPaJGF5jnAJVFL2M2RTT6dRcqQCV7hOAVHmxai1MlbdSYMrcPoU7M8hF3+ghKsUd6H0617cApD8VsQxXvVyoPnk513WajsYxad8WdBTLtTBLFYqI0BGLRGj+UUKfOk1o49uFPh4r/yZPEaG580VowTFCbWqRErZENR5o4ft5n1SjZJUDzX7i1vKYybID6MrqYrH94vmcurkPUzecyiI9a0lrZMZ1YNcOwXzoj1XpvSSUHGxMc2hQ5WiW05UDLXvNACqXIQtCIxJPcIYkmAODQR4iDiM1SFOjPmlKlZenqpU7sKlQBoAZDKZwp8DOlGkN5koYZCU4vtrrhqxz3JxxrfrEZa16LordEnAGTT9jUqIAUlSJxET4iIUAZrtXBQtqLz6u/0F3LLTmFgB5gVBb2jxg890hCo0cqxYXGV0U5i9UxzIV8W7rLx/5jrJ1xj1uU3o8tn05NMAqBI2lnlSl2OAaBrimaYr0Vlq4cOBnrjYEqEFB4KSCM0xFBCNJ8rXIYd60nrEpHRugTag8+pCKBEJZblUxYc/dArkR2WBOw7AuNB5xofcfMc76T+XPF0019k1LmvA26te6i6KjEgyhWXMhLZswNuWqKOqbeFb8QRzXNIWCWazQbCzZNWBX5gHNjdZJWZgygfOqGGc1XKqy9tA4VBraYk7euMx54mMXqZnIVnR6LQDr6LcEY6yqqZoVCctdNFlbAAv+Wu7ca6+9o41CbKBSdcBA5c4NLMjll9/cDOvBPGgznI7h+jPFBFChAMsNLMrwRcVbRPm4RIgqLxdiVFSPsGJGcEtPTt/UrlxXzL7XA1kenFtNb5v/Vl46aZ7+1oldpg7tvp8xKVMi30PlVdsmCrW1VUrPAjh75YQbrAgkrBqPC23iVD9+uYiDc0+ukxiEpNmINLSl4Eo50d036Zvi6fevUowcO0AuYBiELIcuSTAIp2yykZDhucCBaRWcu+qIJktYi1iQQJjVW6gBA3XhwoUSSGpIPQpSohUQlfOm1NnZy3AEye6l2oBhrZuIhLR4JAzjYHkrL9OCIFKSmWwebg2DrvLS6+h3IpL5qtg56STx4gXwioJ6g6FINaLOl6ZaaxtGBSBEIEn7IQjIILTWcRg3goR+Gv280pjHHE0NJmzQuWGOVcy215/8kLL2WHZ+NM41pvDDlAqalcKJFmAL21FLCzDJyL0LXedIngxHYYZPDUgorUvdLzIZZswCUKyjbY+E2sRNaHnsukK1V2ZFcVRjaI1hpw8AsZI0pXGJVt59HVR5B3cqhlMJKcz/7YBR4Arl+fe1GZkYx6X9WngLdYZpgY7H2KSf4Ks6wJpGFVhQ/a3lvaozKB+RtjipAtdQ1PIplb8L/oCKBAs5NPqTrRff/2llf+ur2PVCblFT/pXRcdeXqiY2emeBKVIxWs1DnWyPNEfnDLQSAwJqkHkisfcwdB9TwFB5WA0U9iqUpnJKpoYcAg+kGLyQwJtIqbdKRFUaQdmPcSmnb2qR1kF5a/nmuPRBLFd7SFm3aJa2+ZguMwSnq34svMUZSIYne+JTa+A78r1BQk258rCYgyzf6BCStnRronKw7Xr3pfe8gL2HqXiN6gA+J2dixxKNxzhK9oXQImBxau4C1o1CDV91MEJNSmlvMvoZC+xJcRTKAwkKUy1AxF4FvyF0er/T1x1qhuOwhKhSHCIUGqfKnRo60tw5sB7ur5R67/vsY/Zh6eUlTiZ2snjlXMgaCjdUrQZiI7ILgxCNRDUFVs23CtfZtjVlV4iMPkFK1LrYqZBKvxdwXFI7oQLPstefvkJsnfkbJZzjsrh+XxzJEcDvnIoMpmrArACsk0NnO/Pj1/3HJK/o9XW6Nci7nhTyiHrNNXcmUJrDofDmycIOehP2KrVIUxaC0rQ5GtbhOokNhMpXBthHssLFHlPcV29QA6cN6Gz/ByWa+ZLyysmTjQMTIQWqcw8sLhkBBzXWSXYV3+37GpXkeNZJJf0pmgE0U985lX/KMg8yZDhlg63nrSacsPl+96VzUmhZ1nKw27V8hRt3lxofgRoYlcCyFvDBBaw4BK3+UDcHgJdkyDrZOYBsC3qNPGit5HHOZK0ODmwcStNEHIOyCiVC0lKSZbKmmcyZOHKC3DR4gWeybMb0wXUYQx2pvH5GxuaQuworb5kicYxq792Fg+fhOEXjEL05KgUSFsTg3Kq1exfIOvig6VkUmSX/lO8ve0av6zeT5tRWV153pzhbj7pH2TTvfiWW4SKHUTtdI3mXDhC6agEHMKSgkpJPsRZOne9N0VSexeiLkBVg0dcr3jPkL5vRUNX5GLNJzmMvYob9KZn+k5AxWAA5NkUv1Lc0xeQsPM8OwLmB3W7dBa+iXNIDCarZEyKWvk557SSsLU3gaC/wTx1yhsDTcM4QFnuZWzd7uVcCK+MyE10X1o5twuncjwlc2CaCXrGKsjckCrvAwSRwUSHR+8JU54jTndVnCsXCKlaMbUazCgzeRJ2AA/j/cgkcN9ykUckRE+LxfTNYdQwZa6ZuzS94NPbU3iXX/t82aKLTpScS1xuyJ6lxL6RAtsBTEGv7KgOBlt40Fpimsha2AaZFbXAC003AFLbBDeWvhDQ93HnzXQApDAXeqWp15QqgKUZY2Lu3C/OtN6VElRZddrb8sNo+QPltbtksrC1vAbDDAFK/gnKcWldla3uJKnDa1ESbvXPeXcrmOfeLaHpUuxcCURz25Y2Q5m3Xwt8UanQGt+pWf+sC6pIlK+V7Edc4HGWKgs0g4yEZsW+n1GGrbCsmwnlTLGDTYmFdWnorvQped7soTRHqKnSlhMvcb0IWT8IDaZl4/dgWPdWa5671fXQiZZLofUuCNSSsnVtFbu0rwtq1U7g5rp4B6WhsgreStW+fyK1bI8zNADOksARw75QG/w51Jb//GPzMmJfiRLFC7FTn9ZPYuDz6EWsiWYJRG3jYmRUypKcSBCzrYsLuMOtTn/qBAYlKeVBT/erieWzg5Ak0RYFPHIQbfkm1F7tT1GINYCJUmhPhMHfwhPWkfLsE0rRrCKRpFJDc4ejmu5R0dJ7YfBwJBD/VxnCND1Y3nRT5DWtFbvWLErS5117F9Usi//orODptv+c6KElBxAxTkLw1dHnnsKyh3d5+xL+JXVPuc6NZOkFUYIehK9RAcgLj5DCcYxJyogBGJVyMS1r2DN7DeLUm7NUUmRn4+rXc+R4ZT4b7sfREotrLQTSgx2hVBYKUjvTYRom2IUCk/ECbVuBOWJCYaM0Frqok3ZF4NumjSij3WbF1VgKHNWW52V4jrSoAq8DRwUooLHspN5MSBK502od6PJzqbjcVKOTwq6Y+v/jtWq+xjR+MwAmRjZwpNi7EwFye2TrYbV1rKWuKD+amLwEXpvA9ogJNTz3p8JrS8SPXTItgG1BHD8/EHAJ2A8QpYwi0cnEQXUshqPbG4C4YxkpvghE47fU+pSlOobClpXcQx6YsNydweYAvC3KMsvmoZhzqjV0bUD85c1BL1fqJyyELPiQXm44fXvMePyMlyDINSWHYS0PwCDHT3nbU+0U6tkWETWo3Q5L7IGVC9dfGIWilLoViBoUdtxVFW1ddv5qBGjgXO449C9KU42ZMgEGuQx+X9a1eoErxGIsY8NKjRbc3tdh4fNaVNvPlnvd+Y2B36C64CSesXe12Nk8Su+bBAgngDCzNft8eaeAsKnDVXFT0Tr2X6BOUDLaDa3IOTPuQsnvKKtcwdUzU1JveSHhPWn85TYNAoKE23Heg7Y3tU6Tzw5KPeraeaspaE1DZE+DjfPazN4dB18mQqPIMe5s9B05kI6yqyZRxeCoSlseoEd+IxHnUnoH7btGnN5Ud/HlT5o1jU5TnlLB5rtg1LaF0TsjI2tU3d9qzLqPy95DCBEetQ3tJqHkcQ78Vtg8eQIepmlFJOBQagofWXqq/0vqLW7B0QG90caBATo5Ta6laTXQI1F7sgzMJvUUzxI1Ue7HmFGov/fJZmuqy57682GJF0+U2WL3HplKaoqZprI7Jmzgspcp0q8u9dywmzzk8Uni+snN2HIc2IFP0gEM3UutdqmG8M6Qg9etJb0sw+CR715wz3Fy4C1OQ1ImHkQr1Zy351Xd+kEc0YDYVlZG3XWMaE5bqL+5Wk0lN7B+ovcIyp8HWG4aOzWGmdMJHIWr27Y1iUygWUr7bo7Qcr0I+u10YoJaTtj2iD/gnCcEtLc8S+dBEsftwnq33jg9VsVBDqaRmbU0k3P3TPqB2jHsLRqXR3gpUf6WXUkAmaKHYR2oipmlivLV8+deqonLfdJBijYiXqFeo9jJxDE2xCxeNgjjllONTuVKmt1RknHKB6OaETAQ73hOMPeOwV6URyYQRKYvzKLkip2ecRv9mz70FRDxLdLQkROckThdwMr7R+YylV5kCXDqI/aechJoLLRJ7Jq9He8ievPIrI/uJRAsM+lxNA5xQqEGu0ojUnM1m5X48q1ZRVyxgrGJ9yjLiWWct9+hDsYYPtW30APIeF8Fi7rQd0IHaCxM0p2VUf1qmbGqleTMKx6e09moY1pY+9X4xDiuVzlqAKqBcRbrl0qn2HunJyq0WIetoZf+kmJYP4+xS3B4DarU0bFg8OgCjyac7e6fT+s50fX5vWBZDmRAVQ2KEjkD8B4YHRyshNWTITbpXrVqOqSgPYyxXAXs9CtmjwyKyFdd7WYilS78dZ/zW1rC1YsX1cKMRoqkp3I6Z2wQtWBoHmjjqm4c+KTUCKhrGZGKlIIGpOBnTLMynDXZj0ZCEjs2Z7u6byp0FM6jk4MvxSgR4B9/HLJ2NphinHJg2ASZKeikNcj89eMSWBYcMhR0G4zfVsEwbWGXng+NlsX87wpLl94fGbT+gx+Pj3O9+96OZAHuelO3WUoskmgdSvnzVNbfcCC79FMQaxDP5FfPRQnkFE4xfAo6xvaDyCZiwugBOJd3aFM5GcLJVtUAl4lCBGROwVgamJFSDWZYEOXeat+2t2BBJdqeD3FIsUhzd3P1YIL5BeXTpHH3zok4zJJe0lRTsnfQDnOGYaB3sUTC05jTFATOpKaPp4P/SLlmx2Y3kEwIrakYr7VFwCrIY/F8jmL6gCow7tFSOhyvEYnwvxA26vpHQB0H1H9x952dv86tLfEqAFCAQ+O9eec0t34nGWm/R9dAxmqZP1TRjiqLpM6LRpgvQGfwVk0IfwmC4Ewq3TnFObyRPPe6fksxM7jAY1lT4OJQFaZBKzszbVHuHypCUhUg9282G46KrHdSkYkEijYUhpwA2HgDpceRz8zEi2fw6fNk5vz1qgerTz+HxDVAOUDVqpodDGP1zOBT/ADB2mKoZM4CImbpmHBOPtd161bW3fouvwSZU4EEJVPgdhmgqvgqnJquq9sV0+iAMu9jpxMahhfg4+GQyXRnDCCWA7+thRMJ8CXwUVIGdp+mjCzIWIO+XrOIXzMU6Jl3LD0/lW/RSyuQdqfZWTKaBDzQwwl4YMRYp+UhIZBM4zxQ4HQPqMM1MYbJRccPCUqcqyeZtNChxWOKPVxvY7EOWFAWZpenyUCL0ONxT6QIIQJHLpdIexkyJM8vK51OpAxBO2j8uvfZ7i2i89daw+vCKx9dKmGHLkNNUurN543d61PF+8Alb2PYSW0u0QSFqA0zzcHKoyW1Q9ooQkVh36nkxMacyAbh3sEAc688H35DAMrGiG8AQs5RUky7MKDR62uEKvVmZIo7dGlQKqC7OQBFtbrIVwzl5duWolahEDxia7oRAIKqhJMBYkwBQUjCCT4AvaqZkRYsgVl1LHomB3wXPJpFIYFkpAsyrIUTmJYO85116v/kMkpQO9DBfYcsmjDGp/lYbKHiZgR7S5Eu0iPV8l5IWSi+GRxDYRYXpGa9hv9HbscfeAw1hspuJh1Tp9TAmThtG4LoSAme4osVNN1OSHgrajQ3FVy6khomHFPFhVsL/mOnAA09AYMVWibG1BGWAYb+CxIOx17/hlGDv/Sq6Ox+ZLo5IxQb3ON+AzlQVxoEmNAFO4ZQUrq727v8lFl3mg8LERDaKfg9U6P+9d0SMQp89xLUls6INQm42SpZEGN0t4uFD7ifm16UyZVlToBidU0mdS1ALaVk5gV5thS1hOH9a4PReEXrdkBIVxifOnxKoZQPSo5ODD5+yURp9U/bYWHOaUPJROCyDCtKVsJsWQVGDO8F3NQUJ3uV3Le9Vk/ZIjlOurgEtqig3o4ZdM0YvQslih4DNwKYrYZWB3VNx1BKgFj+oeM3XSTl2DRDn+FEV+fkKQ5jzriQ652XKFNuGV2LOtIdkfOqVyO8SUJ2wcAwWqYCp4KK4nLhHD2eeAkQ6yH6vmAKgCPUMSWZ+813SjB8Gxg3SlTcOgT896ibJIRscDwp1lXc9uhTTg9X3HpUQgnQ1HMfgCC3gnZIIo+mH5B8YXnjSm1RaA4JVX4nagYq0iVEcYYbDCaTptgyZyxeA/Ynuq8voMYDW0qEgk+PRiSaWzAzJ+LS4mOAGrAEqGLkINFk61M7FuN/BsnXaoXkdgJQMJitfRIFCP4j3JWCRInc8VmHr4zcOkMcffIreKS7GqLn260BacDspOfQiPUg01q1S/UgXarKyE4P2QvpQgWF6DCXvoT3IJlz6ETyXkUbjHxXbtmNnFoDA83morQ51AVX2cRrscj3Ec59Zo0EBRJyXC71XtlTv2Oxt4DPocP50sDfXLuTO7ppMgNpAj5c+XhKkYA6bWxrx4DWAtCA5yWh8Wb5TdM17xQEMR8krJ5mQjgQwmJKA1bC5g0r7HtMoYcziBIb5uly5ZMW9ehGYOGVIgrRXHfx4ZWtAYLPi1Er4zbgAKk8pUnTcwTXZg9nLjhy9AJto1AfWm2NvcpisUF9E6l3b+oDKTGER6p1c5Ttcr2TASiwnUPG+FKhF0Tl+5S6a+bwtq0FtQV4UxWn0JdPnJlpRHlGhhfNZEc6QgUzsjOJiC17sOeYBDPFkbXvVmGjsUSoZB3/8uCVUQnq0yjtIm9JVi3qglUOAnun0SHbIfxbXldesKk/cwRmngfSUZeKz4rj9FbRcXB5eCdpg+y9IWAAVx2kq6MywcwnOoDTsuJvRunz27i/5kfwcrm7gNiwHdbHNb42hPqAiExwMSBleE5qwqI0bwJf1SOI0E5pGwdJTic/BBimX2rc4OEgX3fn39eaOq81dEyald8xLYWGVDTpKtZX1Kw7FYpV6vNRp+e1H5HMpRlF6yXlsD3BmgNaiS6rQZieASwmLBU+UspLhWfFyzFxcjqG4DlgJZSEwHZxbQqDKwK9yZSzQh7GK4gZpFXo1PAtoUhSVl7IzQBtgFQ1Aa0YwUFUe16Lp091MpAsLJUzMRY7efX+h9NKuw+ETK1tDqBuowap1KfZ6MnSZAlBiwuiFgEYvY3+Sg2y2k4Pl21WkVyaLqm8RpO2uqb+tRvJPwI/54eQr7zox89L5zSKTSOPwcKhfpSWQfQeYC5uPCR06K5nMgk5s5rzd76kjk0kxUa0YEJOMF44iGhoGTiKMJwEsmbObgflTArYDuMbUt44lEMR+za1Ydc2rjEgugnZD7cLOEaAgB+/5RS9JJQAndVfWmzSQFfPXL/I5fvNVDJUwwoAVkTQh/QK6Mn4QcAkOUdPYQb9F2TP3NevX1z4Ye9ej/zs8ddtldleTjlm7zKgEqwQAtmPxN1gI6lvld91ARSdbRN3qcsOu+pwe4mwITy3o9T6euXluqkiLRHHjVZd8VbHkpjUA6T1KU/pjbjL2cudTHz7cfut4LmtIuzhBHCeNFRIik7HXCAFBZLCO3cLd9zTmjyBxmyYIpXWeUFom4UjFhGRGAeXZ7doj3F1vCrdzg0xGaTtWKONmALjYLZiApe5bXDcyJj42VW3wr45oGv1VCIzhCqgyjjYSVhKQgRSVxe3dWigdbhooLMcsuTRo8zbq/SquURGWn90d36OWwN+8jraDZjhNPTEB70KVIGhtfHoE5gkqi8PcbUcs69w7e3H02P8+P7H46fOsXISaUErVsU65Nw/1SGbE/XShKJAMtYb6gCobwMuPajeQVVXe9EsuV0CpuoMf8iaQSouvbOFyMQd2j/zSBpD+VGtK/r+5XVOWdq36xCTlwKQuGysg4YMBtuwGKSUEP9mkcLZC7uoJoS26UOgfWCb0WXOFPmGSUBMJjKUi/j68kDwAoZvLCiedEvb+vcLe+rYw170srJf/R7i7nxPKxFOF0jwRpQDXUjUOJAruSGswCmhCulLKUroOS0AL2Rngxz/TqpSrfLQFtGHHtONl4aY2CnXaWUI/5r1Cm3m90EiblnHonLD9KRLAjBs0DyyEOrhf2Lu2C/ut14W94Rnh7n0end3RQmmbKSWxpIkcMkgKkVfcLidkR7BHwhm55y550d47/frmsx7a44bs+U4+1DUKwUoDbNBn1dK+tQOVuRBInhdg1XlRMEGgEuK9ArApz/rFPmZQfRmvV5SG3GiHG+VP1Oau76XfnHtx6k9XNuO45U5bLmejQq556itIAvXNTe4HI/1VaIefL6LXfk+Ejz9JGFOnCzUC1bZHKEv42XOFOOEU4VzwYRwQ9RkhN9l+4lFhP78SUmUKmBNSloFSlmjwE+GllcJP4NiQKxa9aEPyl3nDkMb8e7UUtQuq/WgcSZt9q4U65UQR+uDnReg40Gbm4d4J6QZU3z4Ky2qyM7P37RX5t94Q+eefEuYzvwYitwi1HceIRlFpSlhP8wBX49RorP3AQgn1KGXjifceSLUtb/m7nz6jxjKnYty6XzEsdrN9ZDmiHkGVlGXlH9Ki2lA7UJGyVF+ZIUVUDQHjaFlIvu9deS/jB8oMlZir9Cig69MO+iwJzzP5CSTpnZk351+YeuzqCDwvUw5U3UCKUrqFPVXMeXuV0OadJyJXrRTRd50qtGb4hiNIJmPx+OkRet/xIvDAJ2PyVPmJnfFeAPZKkfntL4X5p9uEMh5qMSVsjmZmxPeJQpBQFeY9o6VHRoP404QUtdMVQBqBiM90CWfH00I76hIRueJLIoKOSB8PFdYPkgagDdo3uNX7G3WkFsJOj5/Y6WcJ88NLRfYvT4jc7+4TzuanhTr9JAw30CHmg8LQsoSRBzrVGdquw79+8NFrv9n6vrueVBOpdwGse0cTWOuUQnUBlb1qgFGCrs8u1G8q7nsE9a5szyfTQDxKVKbbSIHK9FqlJE2kVmTennVB12PLCNIsDigugJTqFnpy98B2gOagiF79HyL2dxcIvbVNlh7quI8jFJ9gKu5lZIw+/gSMi28F0iZ6zGIRWXCMSJ9xrsjcd6uwNz8j1MNOgYoNpmTti8EKYStgGR50yYoqUdXtBVICjuWJYnXjjrVY65EQsb//kYideS46L68H4baBBKbseQO6BN+VyIJ6Mmn5B7wUmjZThD5yhTDffY5I//5XIvfLf8M5J9jfvXUKOgcQwBPvSNXROp2QNUXdP/WfDv7xqn8ed/6P3lQi+VlOzuhQcNpnpfxG0P1ARKE7q6lUddctyLAqVPnog8mXDVqxhFCBsYqupvL3GZlJxV1bfVaJZr+S3zP+0uSqpTGsQ87K3e388SjBQUbc8pxQJ84Szd/4L9H8kaUSpA7OKCVI2TFxXikAUZ+ZlntIxuX7YGqmCfcsET/tLNH6te+J0PmfEc46qMPSYsohcjd5AslKdbR8F1cusxrvEaRQda1AeBVeRzlYZkg2Z939Qj/pItH6b/eJxIUfkSAt0AZ1q502yDSgCfLDemd8bGFMmiJall4vmr/5K9kWzlt/QucA65pEtVcwqsIE6zRl7/R/OfjYZUloYPuEbo+208pBgZpCHUBlAxblUSWw+AoMvbJ8bP/iEIAX7dHNpcUR6rymutCFRmzF8oHrk3/+aJuaTqRdbEGJxoOJp6YAAEAASURBVC5kBEZwNvxCGGddI1pvWiEiRyyEYPMAxYGzZNY68+/1GpmaaYIpyej6+HbResOXRewfHhDOxgc8jMrVTYXSSWFCENHAI8Ha/ahX8jXdYDpoDarYvcakBAbLgZ7CefOXInrDvaL1CzeJ0IxZElAseyNpo8A4RbBL8CNvahyt/3KzCH3gi8JZ/wtPDWblfMACrFoHwHq42Db/hx1Pvf93ejhbn2pYE8UaFRlM4OGglgR7QKa6VznELMSsIgWJZTSE9AzuA9j0XiqkO8ALTsM0QeV9VItmVnQ+c+50sXMWLIilIMXGK87GR0X4o/8pWj7z/0CKjvMkHvKWjDjAMlR8HbRg+mRMgiHxgUtF01cfE+7O5z1mJEiKSEHJSqlKV8aSTrJiBlU8QJq0LjPd7sbEe8yXmwfg2936hGj6p9+L5g9djkOtQrK85LHBoo1MF/lSwuotraL1018WkWt+JJw30IlxzAq6+XShkUk7aIXcBda6M36RXHPc/Xo0ncBeS2z3Kmo/bFEwtVAcSn8VP+lxXQXMerxR109siwZ0ow369tvsA8S1ZBs4NPwUxoY7sm/On2+ue08nXIDYuDIdMiNB+tZjIvzhb4qWaz4jp1gKkqKoH6ol31rjSsbkGA+f+OlnAxQ/E86WRzxp1s2UEknU0Ona2DCdAySQ4IdmXwA/6UKJT0m69Y/oPH4l4u85F9jAfYzjZXkHmzbsCCBhqQoTmC2XXQ2JDiPThl8CrDD2sdfyAiJiZIKJyVPTf7v4M/mD4zYKw4xjv4EGsVGQzyB+V9+pFGo9iKWpOulGEJhpsLFotj/FyYbOTj3/fvjzgr9lH8FJPdk7uzvWCOOcz4jmKz8NTYQeRL46V3VpGxTRZ3yCNXbqe0T8i7+Guvmgz5R+hwuckD8dOPNIa3DV/XCFMuJ9pkOHKsn3SF/2AOwc9Ihw3v6NiH/lIRE75UzZiUgp1g2QCok29jZV4cCIl7j04yJy5Q+Es+nP6GC7p8fQmGoe59WM0zLx65LPnveMEslFOB0+GoKkefUFHTqgMieZW+8SFgoBZm1EiGN3mt+osfTy9OoTJ4p90zN0C6RThpQY3hypMuUo0Xz157CaxVfpYOAZthCAFQWIn3uhCF+2Air5b3sbUsCCwRzrQMrKvkoaj0pYGj8gsZw3foFpqdtF09nneZKUGQ22FK1QGQlWDg8QEpCsxpnXwPr8mjefy7aUwVFT2E9/mrV58e3Qnu5V4ynOl490Fbh0vOFXpY+vAkb6iNOYR8SgxGEJd8i0u+E5sOIwnQSsvBsUPX+FdbDlyOyG0yBJcVdqQ1SVcKnD1e0Fkfj7fxH6uDZv3EV1r9DwskhV/aFKyC1jij9STazq7R6RAAZ6NrGICVidtaOXoJybAR646AVlw0M6QgxIqiINGqY4Pi1hFlid3d1vCP3dXxKJSy6TGjY2u6sbpI2iDbaqldqOqhsiseyznhdTDmZqSn8vQFVSnSia+N2Z1VABLC0JA2KUe2SO5BD0M1WWsc7KdEOrynwK0ZhhYOUt3PQvumnf80l1v5k2P0+rofzlmTcWjlc6cHQi1k1xnSmlNeZKnY0Pisjl35GWRaqb9RhGCEwGTjfhXI6SD++RSesBrBybQYJwjjL+8RuESG4BqjhWQ0fiBwo3CbQ6m4DSlEAvEZJUa03o1fDCb/r4p6T3lWtihVlRvkH+/X0Hda9EG74f0K+/tLzn6Gp9w5sxcbKIXf2PcIr4gxy+yDZlJKxZzcL80GbtPOJHmc1zfqlFMjw5vk4SVVesgcZij1yl6y1j1qXvVQIaEywfgBM8oNDgV/k4A7/LjZr3oDc928pE5uU3LZZWZlXBXAh2nIRkcjv3CvXwi0X8vEu8zCipSji2/zKQyQhOhl27dolNmzbJbx2q89SpU8WsWbNwBIjnyWQDZGTYWoJU91CuyHEnitwF/yDyv7tTKJPmQ1f12Q7UkyvpML7kelaPsFXkQMqjKFwLS2laGHKSBii7u+1v8Db6ugjPmS8NOUrfO7qWzbCYNgcPHhRvvfWW2L59uwTmpEmTJG0mTpwo6VcrbSRdkGvs5HeL3PlfFdYzD8N3eq70XoKNAY2s2s1aXjsh+wY8Sg57I4UlcRjkKFhlwZqPmMDNLIpC6a+iBz0v6wAqOKXGroqsWgA3fsBJuyxYB7r9CivzBz2c/0H67dkt9p5Zaa7VoqWXYITq5G77HxH78sNy/pLStF6Q7t27V/zsZz8Tn/vc53rSUxxzzDHiq1/9qrjwwgtFJBKBQKwRrCgrjSgqwBN938Ui/9i9nlQtyonVoVSUq2zKUrIocnDJeGCLXmozE4NzvTLpaBE754IgNr6rTdh7JQBpJpMRv/rVr8TXvvY18dprGE/2CLfeequ47LLLRFtbW220kZX2LM/xiz4uDj5+M0oIoPo9DkubQ1O3ix1HftXa1/5f+vj9xzlZ7ARAjWpEhbrUrdq6+0J95XSLR4AqQcuGdKh3IfiaYyE1qEuS3LVKn0IC/oVfFOdoc/MRCQ2CFGfzoENV6Ezudu4R6rxLRXjxyTK2VE3Z+FWGgBE3btwozj33XAlSbKcoFi5cKBYtWiQ/CxYsEK+88opYsmSJ+MpXviI6Ozul9OC7tQSqeixfCI79xpkYL+57C6jECnNKPwYUm1KxMM7sjxX5HO8Eez4Vqs32oOfR9j+K8Puv8DowdBKUXrWEgDaUol/4whckEAlS0iOgDenEcOONN4qLLrpIbN68uSBZq84LBWdVQpD6ofO+go73BRjc4IMs+cpRc5CirUomdmp225z1KvYE4B4vIy0UWKF63mMVamuRoNLIzFNm0f7VqBZ+LmA+BrzSWx1h+dEOtZU+KI9fkRQWFL8Hau8kc9dci2u/pSUJSXLcuG+tCJ3+frk8DWVguYve7vsyYMR9+/aJj3/84+Kll14Sp59+uhg3bpxYs2aNWL16tfysXbtWzJgxQ5xxxhnilltuEd/85jel1KCqzDxrCXL8jBciZ5yD1SprAFTqC91pMDmuX60q+FWVez8VGAVvsnvEShUlfoSInHSGl1QNdOELrBfrhwMyxdf+9V/F7bffLmkzbfp0QXoEtCGdJkyYIE477TTx1FNPiauvvlocOHAAWrcuVWMv837+smzo9NiRRc74Oyyd2+T1+t5YmtyDTduFOMzaMU+HJpUDn9XH4P2UYwCPUaTuRqwhnbrqQaDxH2FO4FWTHw8vRlRZyJ7vBMDl6poaO/NC1jw/hidUn2d1tMWdjik0LrDdJDPCUKKEWkXomBNlTyD9d6tkSJS1MM68//77xXPPPVdgtn1QgSlVg48GptuyZYt48sknxSmnnCK+9a1viT//+c+yjEynlsCOhG+E5hwhtCMvw3HoBzypGoAVDwtAraYFiuOzIL40dXevF/ppS7CSZZqXcpV0CeoS1Ovxxx8X//Hd74qTTz5ZAnHb1q3oW3COWBF99uzZI55++mlJm8cee0z88pdwYkAIDHBBmn1++3Q0Dp+P9cFLhXtwJ4Y12FmC99FUOTR5s7Nv5ietrsQ+HFNCR5s+0xvqhzVqV0HxageqrDa6ZTjUBIlU+809e8vFDYBb6WDjcu8U36OQwGyosg7qzgJr7+Qm1YTiG0zJQJpiBYY6i2smZ3uv1dB0ZESCZvfu3eKf//mf5ftbt22T32RCPg8+UvKCORm2wYjCcN999xWkqrxR7R8CBo2qNiWEccJ7hLMb7oXcTcFnVD6mUUlqff3Vh3FBJGlEKoorpz72rxOhxaegP8N4vkYmYr0DaXrPPffImtG4xkCQkh4BbfhNejGQlgz/efPNguN92Sn59ZIP+vqDijOqBndP47jTAdR1UmNiD4yOGSfBqW7MzTQfb+2f8KQasrzW6CvBoX3GjX2ZY1kg9FGU2oHKxNDo6Klqyos8IFfH4HU0TMm7LATvYTsZ2O/IgjUGvCsrgkaaZB2Y4u8j4eXB5NJ7hT7/WKHBf5TFpidStSEoDsdU+/fvF0ceeaTYCmkRWGd7pkPmJENuQXx+//CHP5TMyHh8VmsgMYz5GN9lsPVDD9JIoAKs1QQJVGYfUJfzyfkM5iXnCwM7VtQTAhYg8AhU1peW8ACkPdOU8VGH3ZCss2fPFqtffVVs8zu9nnEr/sb7nN+VdJl7FKKhmTH/LDUn/OWcagx99Cxz3yQ8hLl/ZG03Ks8Rrli5yg+q59geaWjwsuQtgKsEdD2ilfy07fISVY6UwUQ0z1INqoOffUO0rTa7Xe0Yxfj8iKKxYXN7sEXIHHmvHmsvK9HRAaAghMPYT58Glx6gkQ97/OEYliGZpJNu/UHHwnOlFWDibhDB3CY5lZQPsN9PK0hQB3HYx9IKjl0s1NknC62tva7CBUDlWJOhjfUlvfvow0k30iMWhxEIgeN+hmroKSPyj5++NmUa9qMCWNHhgBELj0macU5n94r2wpPhv4C/edAKNRWmbqDiDHKZIRol6KP7zRg4lWxVLlNq0pSnOMgR48o+WrpMLtzkKoeFwwuEpYftdAtnf1A4lAv/mRQaUcNaRxlqS7qQWzB32hcTFiL7F7JTwHXwbs/n1f5WoQkoU47G4nKs7qZRya8DvzyKIqV+WkHGky3m58p0kjuENn2uUGMxiflqy9MzHg1CDJyKCsrWM07xb68z9noYA4vp6w0a9mVSJxwmNQN2EEFgR91kp7AUSqjcDja4P7zf4HpUGScL11Wecpipqj4a9NhCb17NG8gJh7SRzwGr8uCG5qQY3PY/kBLVpIs4rEQaiR5p57EYK4/zTfmi75wNDlVC46D2etKNT+oJnKhn6OzqEvEmrGHtp5A6GJCq8vz58wsOEDVJDb+QrIqCfZrU9qmwcgKoXAJXFApALbpX9rIXTalpcJ8i7KII6VpPCOozob1dTJ02TVpxOSQI7pdLk50XNQ2OTRnoCMFQSwfI9EkXdjDK+KlgLK56l8nwD7RLaD4iHz9Gga0iGBYVHg/fBYoCLvU10RqLUR9Q8RaOhcY8S/W9AzNCj4v2qPwOHsEhpsZd05Au65/BZrzjXVfTXTsE2dzdbgRUBBIJzgcydDeo97vKvzNnzpTzf5vgbTMTUzCUHOUkJSUEVeMjjjhCpnzVVVdJoBLYfTFwX8Wg0UdpgreTCR/XIskh35GdUl9ve88KVPfrL79gDVdb2jxaFSL0n1YQI5CMbePHi+uuvVbenjdvHoaMlignKRmfgeDcg3EtHR+mYxqn5hDUAR2M2tQMry0MCfwWJ4TZ/qqbD09xTD3vzzTUnEejX0DVcdaoZ9upgxE8ytVcKLwmJWqvbrrPlLhnLw6swMHLsM/1eDX4HdZrByorwY2CQ9jJwXXlQcTd5aBExabYClbJeKF2pBJkTZCinKxnSGCbUDKnBX9YSgj2PfKD63wuJ2bNmoVj38k8Qjo/8LuP/omP+wycN1Si3HiNkoPlL0Jn0WWfiRTHQxKFn4HqWQdQmV9QL84vM8AYKMFHOvSkDQE8AZoJPbYYPvnJT4oYpCJV5tp4129DSm9slOZ5fsgk5R9WBbZ+LQEbI8xMUuPqfjp8V/BzdGHn8klfaIGqClQXUNE4ig6J2p1p/3lxczO8h7bDPvl4v+cb7GzRWG4IQPU73p5R+v3tYb9X0v2+11cEMhDKK6Occ8454hvf+IacS6VjA71u6ApHyUoJQvV48eLFUi1+Y8MG8eCDDwpKGAK97kr1VbhGPJPArz+hQKrSGr5y5Uqxbt062KkMcfzxx0sHB9KF9GHHtujoo6U0feH558W3v/1tcfbZZxcyrg2o/mtsalrwy/A8eawu5i6UqIEXkjGxRz7FE/7XE0oHPNWkQKKQAhKojmPjVDc5Su7vXbwD+xN2wredcKjbQlf8GutAnOL8KW+cWiWlWXXu7Qr11wY5sLsgC+kDFs3lmhl8uDqEoUyreg8q/iUzstcnw33xi1+UY9QvfP7zhfiJ5mYpQTlNEcwRPvzww1JVLkQawIVcQJ2BNNUhVWWn4deNaRZd9plFcTyQoPCTBiAGArZOqeolIMRHPvIR8cADD4gPfehDYpN/MwzpSUv5flh3+WGgv+91110npSjpWncnBgOqW2wJ9/Nk5TBra/GsGjJ4fdAIEmvUN6S/BUW8lvFiUda1A7XwMgiME50wapeH3lSlX4BiJoDKwuJI10JK3Rf0AlJUA4cdZ4BomiW6n1W+orCOY6nTDuzqYCtqFvjGwAXTRpTcFM/ZgzDEwIudoVy23pM+/wZgpdr2eTjjn/nud4uHHnpIEJAvv/yyfPe9732vuOSSS6RD/uzZs6UkpjSuS1oUlUbuwJ88iAnVAKhFD6uikIdD+VZx/dFfusnOeklSKATrF2gNl156qXjjjTfEI488Imnz+OOPixxoT03j4osvlp9jjz1Wvls3SP0OxevAuDa12xgmx6eokSNC+R3ouA/DFqMjA6gw2JvBEqgC6aq+GABQNaE7No8oqeoEikA45jGZWu6QqKDEHL+Gof+msnkbhqWqekOOQ+Barj6ihPKmEklpLpgPGJWSlQpQ/oCwO7y5viCfer4DsFKyUrXj50tf+pJ0vuezlhasI/XnB8m4DAMFKXHoZjPC2bsNBrEWiAfW1g94WLV+FzSA/yrxqoSm4OiNPUgTUpXzswOQqAFYmfycOXPE56FxUGpy/pm0aIbWwQ8DO68A2PJGHX9IFwd0cffDy4kHc3WXHYdgYyWNEkq9BM+kuVZGz1Aw1JFHw15h5hib6uR8yZgsfW1hAEBFQ5toAZ8h+8uWbEvhljPhVwJDFM5KhRdJcffupcCKRAxyTQ2kRUPA2gtRqllpJXYAyu5spOYljt4eB9rgzJMdXgbVCWkvbpm/BGQxCIsZkNGLn5V5va5bdgc0gh2vYinaIt8Lx2to/i3M80vkVU5eArqYPwjO+DTsfP82GD6LqQ7PAaFyCv0/CTqlgAbstIKOi28ToPwwkI71BqbBqthdnejAtqDDgaZRxEtw7BRpJc6eWXomQZb1ZrR6M6/zPToIKTihW4KgqKzVJlc/tXAgmw7hWItLFN0DTajLsPxCbwaTlTGdI4obChkqTxyvRWWRFYEL4QGtZXcxP7KnVcIThfX2G5I80uvfZ5ZqidQzHhmymCmpwpE5+Sl+1vO9en/bO7bBp/VNSI4wWM8fU5L1SMOgBUsq3Tsnxiv0UZLLsWoGJ9I5b70sHHQE/bzeO8E+7gQ0CGgS0IevBM/6eL3/R35h7d07cT7Qejh6Q6IWCQySZp/eDFVhBAQwMQemMLo4Eqh1FiloZvk6ZU9/6cgIEkGYMuBmjVB/WZBqdFRm5uCdvGVKFQA47cUfVIt1RVPDGKeiA6pOZYEU9jxQXHWLPn5HjmovpmlkXVil+HicHvaKVH9ZVNie+6tm1c+ZHqUDv/lpaGBZkaC5HsvcYnDY6NE8lKYSqP22GuKVxEU5edwhTghwtj0pzO1bGlrsILGAJgF9gvsD+gYNAl9t8+034bSxFUY2TL15bYqWd9QMmn6r1rYLPCk9k0qYfECZ1/Oyx2s6bDOQPf1zns9CnCIpzq2kDvSIh3JS/Lz4upsLg7dQBs2qfYCM4ScgWNlHGENAJYpxKmBdnH/FaxbHRNFPcXPGC6H2XSk3kjYwHwT2hHYNKRfBXkmbnhPm5k1eGhWrWDGLoX/AdgJQnWSXMF94QigTFqOSMIj5nYF8zIFL0BZ9lZBJIR4PSe5ufp8IOBjLXPOS1+qN7mj6KlO9z1gBDj8wPrVW49jGJjrmI+A+9EoXW8MqGRHpeklv23OayOMkuOEOXgPRkEShz2bwi8uvbkwVFxN1AeOWtKz80dWV8F92D/g49fWr4rdxhhMSQEQTEMthV3v5rmE58NLCnZJkS94r+cHeNZ3HMLUf5+QIPR/YICVvV/7BBpmExcL3as2dnVrblrCK2WVqz+zD6OyQ7xD5l/8mq0cHgiKOrZzoMD4JxmH5N3CW6LqfY3E3PJN4HKHftsRUwdjpY67P4iI+gVoITADO7OqUM0T+aRwHeRBDOt4jEEZ4QCmFuW2zsF78DZzyD4N2gKk33kS/xnbvQPv/l57oGg9+4IzAsFYHuKB01IFTFAX/oPyhxCA0i9UbZy6f0bNK7fDKvVZ+SXiFQnn5gqOZj1pWrsMwIrR307Um+GBTHXrhxfn1MBCwHm3aBIBaCnoKBbDzEu37L0Enx6mQwjjw0qaFt2eQoEfEsK5rhq6r1JF7xqn0mwcF7YFBabMxFYsUEdiv8HV2ZeMXiPxTvxHWnl3gR96uOtlK2Q3qfbmMDjlkn/wDTuf2jUiojgwsOlquANTeZPTiBX/9qqrorwpjWqZF4MegbWzACWqQqkxmRNOFbYbOmyH3PA5C7gATR2BIQj3Y1ICktGtsNqZs2AU+iIIfyHPDFmTm2KkSi1EUMDzmJHHmkXsQtXg9hJMaENgyOdAdOHM50Z8F9iJmPt0RNvQ/MAJ2sCGwPTl4++3Xm5/61A+Me2//hx1wZb/GtLJWJNIUCUfi4XCkCfPV8UgknNCz2eSfAaAbIZi7IKh0nhVD53xVarLg/iqoQjJTB8jkzN69CZ6BUSgGsUWHqsag/vrqAsvab2D28x1bfyo0/Y2DTiQTUrBXKFbV0BdUaYbhZMPDIosGZiBYJYjlr5H1h/ODLF9+4waco3of1ozO8kDFMiNIfiXooBjIppZ3+/gjEYjGhkQtUX+ZHhwGlMmniezvfomd+HE9wrUN0sVEZ5t79G6hzjzPW+JGkGJdioH27nCimWfCM96cBT4Ap3kE64M0g/2IMlSFYMKqGS7qolDVUaiHctmu1eFwLESMhYizcBOumyKmmYXmKq4CJvcuWXK/tnz5ch/ufkkJVtxU77njxgfgbn58Ntv177lc6ifZbOrufC59ZzaX/LRix96HeGnMI3aAYHmaUeicD+tvWdBVJAJ6xYxJpd3v6ntE5PiVgI2iV2AHWgX+ZQrseha6pvGv4Ul79uhT1kWgBqEFiXupHqkzzhHZB+8Q1r49kCzsMsrnLxMbrj9oJYKFJcv87iEAFHUgeIoC8SV3ICy61+8lE+R7MBx3Vxs3uOk3DlO2/na37MRwR/ro9pveMEbI/On3MII9Bm0A88r0OANBWD22915t0vrlRvue48EHWHIwvA0MFgNOXD3vCSVSG71sHFaTrcJSzsrlM5/OZVN3AWc/wucuXP87Ot9j777rMw8TiytXfrSAq+JRiyB6z1q+XL9n+Q2rUe9/qtQWlqq9rVhWHv2VCkuWbcCLKBeOcCxf6ZXCfYKOLoKZnO1gGtbGUBRSs/Q9wFSq8zQoGYAqIU2VuZBIhQsuaWrGcQYUyy9E5r4wtWvz8XCZ0B0VUjUPh6Wm8ZCqD4jUbx8SLZd/ElQkWEdWoCM7twrNvPRXkf/tCqxDPd4Da1BMkErBwESqvaVkC2KU/5YIxHsAqgJvRNn78R7Jin5WmXCCSN9/uwgtOFaepFY4MKt8akN+l7s6qFhFlN/0psj+7Btyf2aRxYJ82eEqsPM6Wgq+bC/H57yAdrV5kt9+TCAOewvD1qqZmJD0A2UQytd599030p/yB/4neCy/zzpruQ4sSpU3eNCrHqsQgWowxS4iyaZEH6ssX/64zvt8ce7U+ZyjOghcSqDLcaq/zo7P+wvMlFMvmUyeBqre608RAdVxsTRVa4JjMNXfakMGE0aXOrnI9ZHZb+zTJ6+LUqpKgyASxdH26uEXiex9XxbZNS+zt5N76Fab9mDHo8pLkNqdB0Xqvu8J0TQDjIhmKFJYQBdv4222TB2B6jI37mY6hUCgxrHP7ob/EalHH5S3GzHfXEh/oBdgAC71Y+eR/Pkd6OkxvmP9/UpwfMp23qdPfOMfo4dvuNjORrkBdy/mHmg5anlf8izHp5ajc2YEHQotSZhaghVWeZtJLVu2nEt/fIwJhZgjxlatKgUp45ZIVN5goBqML4BzuWSHm26iAfVsiXDcU5cvP9u68prbtmOKH6uOQUOMUTXME5khQ5cOEP1QiHVgR5jKWVZzXIRkp8iMi4KMg9+xqGEcSGVZnqpCDluGtru2nkev+ufo0U9c1LXzSPa24EuypiK3x2w/QXTdulzoX79D6G2QsmAAMoIXpapsGh+JzAiQspBd9/9E2KsfEOocjMHQuUiph5bgdiqUiKXqa41FQQZUm+XByCSybGF8w3KqzjhVZO/+vDDmHiliJ57q06VU7a4xt4FHJxjRobKYyd/8EmP272L7mAu8samnZMm50yzUu2dii57YASNSq52J7FYNiws1Bl6AOlMAf3N8qsO5ncNDHg4MvGBXBCWLzVW3MtVUaoHkawgrmQlQzBYpqLvypv+nL0i5AKXDDxLwUsJLa9YskJWHE9Am3EXvgP6B41To4ShX9dM0SDQLlRlqrbT+9pSaUvdF+hGYfqkCV2v95bYs2AnIvsJJxT8ZOXzD9tDsv8a5FzN3JWTDckyGqQ531+ui887/8AwoBAg3yBquUMSMqd/BAvtfX4DkPxc2QKh2HjPKPoSXXEBTAFed5aVUpVDy+cNLxZfa6qRTRGrFP4n82xuldKeUH7aAAnIoQOme/ttfRObOL3oGJC4UD+iCdo1jz8nt+oxXrorNXfcJKxXfj2NNhhWkPsFoaTH88akneEB51d17112fo0aKZYFLcFvKWcpaYqyAMz+JwldfQC1EKr5YuHCtTCwbElsgxsFJ2JMMQQfogm0miuP3dU31Nw20Uv0t7gyCd3AbD2DriBmGnC0OHvTzTaJksX78FDcb/l7Tib/f78S6QgrGrrTes4F5hMPkhcJcdZvo/PGtUC29ceGwMGXQm4IZU089LlLfuViocy+BwZ4Dye5243SwBpByiqXodj+UqPAYyVKqUjIzXQl80oUOFbEE1mGbouPb/yjM3TuGD6wEKT4cCmRfe1Uk/w/OsZ14rAfQQq+uOFDhtA47lL0n/q7fHmObBrtbVmkkBE7LYP4U0yJer4LqwGSibmbZvKFltwDsr7w1A5USFs2rrLztxiRcdqn+Gi52IqQeTvUXrNRfnoXnnvqb41SwnAwuPPAvAqkaC4f1kGH0Hsv2fMH/zRJw1/w5bj50u97a8efoSQ/5HRa4EWwuwZqG1DpH5H71bdFx539CskL1o2QtGg9WSL5htykt5NiFIP0zxof/5yqodR8Ep4HdJIBZXO+SxiMpTbuxO7ByIGm9CXxPYgWczR/ZFHY8nAIf2s2i41sA6/atki5yLlqWaWDZVvU280EbcfvR7OqXROfXr4cH0mT49KJ36ZamjCTo4PDX2Am//na4fe8xSj7UpY4AAxIriTbV87C3Skd8llSq4dwTZGNVNOgRqXpUFb24fPnXJAepqrZByjw8C9Tfomj9XtKSm4GXUtbM44wY6ABUncsEGpWaY6EQ/YSrLTBVn4NQgS6DKvTxpiNfXWMsWNWi0akKKjDByv9gSnU2Tgd78CZxcMXXhQXvHFoWZSCIBosxKcaQPhmReXQ98guR/LcPQsofJxlUTsmwM2EgO+LSSOCalS9LIUasMaAInFMlWEuqSeMVzh9Vxs/EmTTrxcGv3SBy61/DGB732bMOKl1QOaaPfMAaIv2XP4nOf7kMq2NQSJ4xI7cF9TgAs5N2i5ZTX1fnPXdx/Oi/fdTKxDq4UBztXiMlBic66mHksPkQAtwdUCpQWxH7jjxszzbeK5564e/+QrV8X5LO8uU3SXbRnfBb6ISTUFEkdxs506pF/WXmbJcurBInSClBSzLyf+C2m4jCV6PGHQqZPhZwuR+EFfD9idN+v16ZubpVy8EJgqZgdgr4L8H6PmE9tVIc/OqnRHbdaskkkjHxXErYEk4uV8Iq76GynhSFMzMYn/O5B1d8U6RXLBHqrPORCKpPZ/kApLhDQhtcBk97O2jFKA0JTAeJ0wIsx6tMOwiUrFC9lXHT5XfH/7pIJP/433KaSNIF5ZPDhEbShWNhAhR0cdJp0fGzO0XX8rPQYcyFmxp0fgxXPPHPYmtms5rX3xaT3/pS4rRH/s6xQsXFD6oxnN8QXA6Hg1R7QWqYuhxuhbKRGik+ZM2awkCaXTb1ldfccilAtgDMlYKhRkuOb41YBvdaqY50fgcqprc3xzATAwMyLcy9AUt3wz0d6ez+znQe0ap2DWMpeAr5VjVsxnEa9YqDv71yptg5p8MJYas1DHFILjIcz09Nwt/1wDoRWfrvInbuhTiRfLwkJsEljRokOaVKLQFpS3DiXTIh86Oanfnr0yL9k2/jlO/XhTINkpTSQsJSlkjmQMFLkMpzUInYwQrI0uz0LMFSFQ7yIV24lSi+nI2/Esb5/yKaPnylCM2aI2PwsTTCsW6kDT/VhoAuiE9rN9/kmJSqbhpTU9bL96PzOkdao6W52++h4GlmJtS8sctt3fVvrefd8aSaSB0nsmFK0xpbptqS1hYPbYahoBJJZ/KxznTOAypWzSiOEXLde370o89ur2ST6SsjAKq+wMx4Buai484HhNSjoJZBmqLBsGrFhEd9qT5VOQ8eP2Fiegcu+EoMJl5Us2xrkxHgp6QkM6ZVMIBUTrbwhInl4PAwSZj6ZmGYL4RnrTkht2vmZKVjfNY1uL+Sx2XwF1XQcyutM8X/z96ZwNlVVPm/7r1v7b07+0ICYZOwC6PiRljGBdRZNIzjoCI6IiDgMv7/My4fmhHHWV3AwREREBAdMjr+RUEFARdwABll3wIhe0h3en399vfu//ur+27ndaeX10n3SwdSyeu71XrqnDqnTp06VbjzH03+sRdMGZHLbcN5GZuq7bqiiDREMK62olyHg+713Yq2le8Qp93mRVp5asg+/ohJfec/TPYafAY1L4djHGi5eoDkO5tuiRRxVwokS7/DhczMTahY0sFTw/SmGztnpy0LjjPlx+4w2bt+YEplvDoKLni0CNumWlnpA+OVnXAJYRPChatGZoIGreG0aNzzzz1tUv91o5Uu/FzMuIsx9LAKNRvbppExHpw0ur3c2nVl65uuuy7SOnCan0n2OVEZNuwEno29l/5QC1Ukmcrk3SLttYa1TgLGuvX6az/6G9VKdDPVsCeNU1p/9ce/lIz3xc4B6i2w+zyTSG+gvS2pUaXWymjpJUqvLZ3X0oAh0rjODS1X7YWrpqbGVVUPHZTa4RciT5p4boEpRf61/xerD/E3HNVfigqawiQoSbdUm32aOiXM3/ZL4638S6PjGmPHnmCiS5dboq21XYpXRpQtbttq8k89avK/vcsUH/webLLdOItXMkJh/madc1XxAqqgEBEnRXdSDyK1BVb+FNDjl1A4j+Cs+qaRI8HIAecvb/ypcRe8wURf/ycmfsJJJnrQIRzaVPEPXJ3ZBPeSMiT65599yuQf+JUpMPXws5yOx1quDcyTrbFH8ETPuD7TFneTP2/Tl1tOv/HqaMvAX5TTyW78ZM2eeSlgAu/x3FVs6ulHVlfwYQZOM57C7vjO9Rf8D88g2Ni6mCD+2H9rJqaxk9vBwz/7nK/9MUT0GnjJIDKpm25rimcTcWziBd9xUla9VhRtUV3Y3hxvaYwlxJSqPttbzWElOeZZeN28Y2ioSPxA/B8dc/xnEWs7pmUbTLzwOOqvnwzc++ajik+ezLYGk2d7AWSlqsBkQUp5DQBbdQCy3/csW4fmsWzyahM5/DgQ81DjzV9ove9bv7KqGJC0ToshvjIuQkogYXHjOlN85jFTevp+XIbgSqXpQOZ9BwTipLhFODBUqqxipeCR4mhalmHGB8X4X2iH3AcXtYSrWNUYogp6rA/J00S6H39Fa9Vo4y7n/JojTjTRFa8wOg/Ga+8wrvwQS6QVDOHKPkYl5aGUKffsMMXN601h7ROm9OSDuIJhT2lsTrDxwM5FmQJI6x2MFOCBa80DtRa+1ln+6OdaVn3/MTeWf7WfSfTMJiIVrACPCLVhcCibwEiHe7AWL0H4NYi58W9/61sf6iEGEK0zoWpSzK/8gQ/8+wEsor6b7QE+snQpj5FCqr0ZTK89hFx1yfyWRtpajR7DmYhY8V7o9g1ms9v7Mzm5axn+WOMNsDSNzFkz7Kq5NdKQ/s/U48e+Lv3gn7a76aY0Gy7ADA0SECsXZS/vAcJWLHf8LBM5zmvxczgai7RbEz+noQ1lB6IxcX3WIf204sCNsxtJCwI2LTGOvDNYwlc+yJYSJ6urrkL5iYPaJRNNSFSLvRWoprzWibvaoxqrB1sLFyqmE9ClIUZs9cX9Uttp+wbeQZyNiPR41TCJJkRcYCrJgeM4/BSDXno9cXBd2XAAceYCO9Ckko/yGoaL3UvMsq5bdNM4Enw0cfTPTms68Zer8BG2uJyL9tN/1dXaW6AaLleIRYXEnFp6+zKQonqVEco0gbSP3fStC35YiQt0p967SrT7AcoBsBal3v+Bf/9LiPUg5qtiFV6qrTkRmBSGDp0mLkZAr+aq462tKhckZX9jd2qooO1D4xD1RKUJplHq3oAy7uZI49CF+b72v07d/+bFxQ2v1L4CrCIkCUB5VbmIsDTKhz99FGJp9BfhKa7msNpLpiUeyxGUmb5x1W9EhsGjXtskMCCrNFKRirq3A82VyaK4axkmZ+lTnTQazeyAw0u1XSZPqrzabGFTabtggdRhGyqiVBxxZztf1X1Vg4P8WUbwnSiToK3O/BdubzzxJ5ckDlz3rmKKdRqsKsE5VWVWBZojbhoqkSw8bAU5wKHo/+CGGz76TMjYdqfee9ZeAFYx3jcF3zypCqjLtKaayOK5Ew64s8ITV88OSBBd7yDaItRFZK0u2yUEXNVx5zQn4hW9xC5xJnuhRmunjUbl95ZSTfd7janjOs64+edNJ19fjEWyVmLRWFgdhEwWATWvZPqhuaUwWUgorisvEiESyuNAGMcSqlpXlR23wlONwFoaicKUhzW7VdGqi6/7PfVT0ySGq36yMbb0RZNtCHtHcFFjRJhhm0POKI2x4BKuTWujenUcpasmUhUB3HV6fNaNDf06/kc/fFvb2755SXzZhveW+lty9NmsJFIBBFiJm0azBQBBO2Q/iNdrpMwXV6w48nm925NA9nsWQpPCmGl4Cu62gwWjqNZXItlcyWMnnCVU+qOWIC2g7JRSmVyegXpMAwgRMADwmxOxaEtjFJ9RNTpAG6MCaryUEYdgwfRuRuuzGw57otja1NPYwfiSZJABGS0uqf7DBMRLy12FqRVstcg6HGHnd8ttKgVX8Fn5hYYGHDK3U9StEUaV3Gb+Umma2q35coytn1F+VsFF6RqjRtHYru0ehksFNiHcquGillRgo6sTc0ttc3Cn0r7o6TOaX3vX0Sj+3lsebFQ/KeoeI6wyme5A34Hz1LBQlG2vlCeMNQT4jSk/oU0sYmiaJu5u0XvcbhWuSlx//QeyjvGehJtGgjr6fgyuais2hVK0V7UvRUK0RdLRiIOO2Tjy7GDp1boV3e3mg4AU0I/ZmbDgjYUCkyev4MV91i8dI0Ky65jiJpRn8U6dovJUq+ofj9XPo+NKKtRSSwzupJ/dqVWRAm26kDCUz2wLFfiKqwoe4rCaS0tkV91HDGZj99bOFlVgVp1mNGxctjYX3EgO9XNjA8q/bn8WaXZ3tmTnHbgBovrxTDbgpjzxjNsVt7856eBC0uBSJbCR35loandTIKHxMw4r4ZQyjyAuoYIos0iGngBLpana/yqddqn2DeEXhCAOOlbJ2mwe89yIRODiFEwLR+clHNSOG73/FVukcn4kZ4cGuLYkWYmkQkwRrbiKEFTvZClkp2SCoH7KQVfSiGNKOSrbXIvYSiuilzZXRK+4IZFzO+tD2AMVIrR2x4jsFibhYFaBido/HMI2hld9AEYWPijOQrF6GDbAjKjoBhyjfkD2Lml/cWQcHBguZ6/fYNcLZ5HYa5ciLD/1MaYpPn0VNvF7yk0rYNvzVoqraqJ8/fUf78Od7lPANSbxVwbJ0cooM5VSxCX7UW+nZZI4jgis/OBafktjItaCzxYRt+hkd0OQ1mG9P4IrCNBF/0MEE/YQQURm55RwFcsZKwQYImz11XIdCFNEbb0x7GvEOREgQ7gQRwOWHcxGwUTtH/0bAR+J0QxkdhmqAhvBm1vlbgomltVyx5706URNmN5vZYMSaVh6RFqQ98NMxin+r8oJGdmelDntcChGhx7C+RmHY2ohBS2YlEolVE1TCKqUFEV9TFbpuskUS6ajTdaHuESsiGhTKGo4KmYWGsmZesXQWVSwZfhr5SZE0LA1xBMBi7MO/4R0CtVxw/jBl5fWX7VNcK+0UbATx9TgJCKs/um94GVDNXwqryrvrUCT8+M5S6Vh/Oo4s+p+JDdl2zeIxNFpJf/pNd/6RI8YmBjZnlZ52sCgyiCmO9+9+m+64aVPoAKTMFQSV03kcva8uVorq1aJ8AbT+VI/NoPiqoRd0F1MW7bBEoHntiUTqkCtZYwZD/tHO5KDdSG9jRlv9MvxkG50vJfq82hgCR7qxOpfCKPJYEBfy/ls2ngM9sjAe4zikxW4p9+ruKmyYn0S0S5XjEUf0GPnpZeq5Xscpo1QVRONpgpJKgmqZ6GbiEbFOD5XAk+FtRen/uFoC2fHYBYBGDMsOtBmPuqPiBXy9JsxFG5vTmC9tQfEyqqQRZCxixpV8v7HCSGg3qr+TRh5+CM9yeALfWacGNJU7Q7Yh3Oo1w0IKqVpODfFyQrIbR2HNWDu/vh3cfepGFKyTEeVaqecmkqzlXLkk5Rd3tjMcRoiXgrtuir2CZDUlEZIraGL8HZgkjXZmqmUSxAq2wEQYveAs+aZG1nIjjks1ASE/ZH2BALgiBzg5piCSHm6J1nNaFpwU5reBMb3bMJg2iS/vU4EO5khUyxbbjqd5U8zocLqOzstcEsJ7wG21XBQaaBY0l5V1piKst6oVZyxXJX4A9ggpXBZyE4b6dPGHKH0ns01biNeu0XUu9UwEuX9OJLAdIJ4f161QkBwV7/JD+2A7+EMQdO92RdEoOKm8Vwe58H47NU6ogR93yRZO30YK6Qd1JpXY+Pq7rRot/B5ooLsxJlm3Pz1C3qB8x8YH7UgYT1AJGTIIG43xVK1ttrVn81lC+WiVFRjEatEYJWjvarB5EhPtQc8ByN2aVOthwI5gHLtqffHnBYI0IkM7mC8WxzkxPAD6ehpyXc6M6mIvC5OvGIyvEdhCklCpJhqOKY37UV/p+JChjVdRU+RZGortvOyyyyAk1HvQVTVO2hMTDsJonjdjmdzRY1GtXJVWyK1lDjbxZpNaAM8WhQOiTdfkIZ5as1SbHFvzY/SONDQHKkymu/nrbYD6vUHTQxMCA8ORQbMQgMKf9sv9Sq+lnJAFstN09kC89Pq6uGAz/zvmqvP64dIp0XTW12dqWF0dcoJ7sVVtcgbHH/hPuDqVC1apySxdC6v0WiKtIRiCW7HeY3sRdXyid3HHRKrJBFxWna+lVK5UoFBbvc6GMTIOgkIFbBonNwf6g0BhkgdOegVhpxYoWG2cVRLllqOKZQSEKq4qdV+YdNLvV9siEYenCmAzQihqrKBz1Jjvn3NBQ/hPmMjRgSxMtohjUKJoQwu/6ZWtGAkn0kyLxwY4nwK5AxNDXTlB+375a6+oazdpzq1rC1slf8CECPF3AjzEruFav9c1YKmrn80cSky/UAMKyWmiCMzXlGLV2WTBH+lIBUO65U4LBLjvXJcvyo4jqKa005LtXYDpWstd+fOGsfL/1JqatsoGUFkEBtyOuqRN1Nskrjltv6h3NbuwTTrrLmhdL6g/akbuweGUiis9L3WGo6ONw+O2quTQoxDPpqoTp8yYHRZ+593hYAGRoGcgwJzvdj3yg5711h76Q14akVepm4yFbTLMSXrbToB0T7L4WrsHvOde8Y4jmI6ajyDhBq4RJS8fsPVl2yoKJYwGtN6tuMkB9Osk9H63aiBxOABdsNt7RnMbtqRyohwAd1u7U0NgajxQqLWoInn5eVOSg3Jv/UNL+8pMUMsg7nmqLF8H3a+3mzS+oKnOj4xOZS1DstYK9XRZh48NRt143cJT0I3ujOBM7tBJlOrRuhaNJvK/IppX4/VAqNKCkVgjVJT5aqqgSyXpOHVNcF1Tzip8qMaHCvvOCkTxXVppKC5EqG+lGMNX1XsyzdIHspjlbQdFyxYIO4OaswQ8FzTmM7lZGkHnxffhzFwNpVr7pOLlZlQIFU3ZMYJFRLQGTac9fiJDA28G+lSm6MYnlwMmbNah6qsrYqn1R4Uu/pXe8rxYwoxejHQKDqRXMBRx487E1/8wfVkC6bKcHivTpAZn0Ij5jqPVZJhChDqE6zCadeMBtCZgHXNeYJkVuRlcTCazhZxl0mN/CL1bGDp/oXrrzn/fuUFjs9oPetAqDsbYeV41zwCFjRqRJJHeInAgRaYqkyNVmuGda0Ro4haXZwNLWWGXSaYUdCHtdLwXDJF9sSV3niBcXLdGKLhISLC8rM2bdY7qMwIe9B0dER6azBo1LkORVklgQ11Qc6J2ibww1Bk/ir3n3bNFPeJEG6EnSL4w4veCYAsIyLmjGJLvWARNsYkvcgvaFI3PlrjqHGHRWA7Wa1XbcboHPUJ9l+mi8Nv2ZyX11xJc6Yxok7rK/kAdnCqW+59xkRPfodJvP/LKPp/hmsTdk3pKAe5UqhLoKki0gQn3fXD2eNNJvKWTwYl15W7s2mctWw4OgyLiVJd2j5OIRYf0fKmUlbktbGoEJWKY3Vz701Xn7d1pkXesGZ1Iw0aNLy26kaKd9iCUXBrlJJrxXg2M3VDiLAV03SVydN6RK4Com/99EgQCDvU/ewzJtvbY6LHnmQSl/wGbrbR+EMvQjhsep1pzmrzp0eS7RwO9RhltprGC75iCke+BrenD7BtTTu6Z3zMUi8i52KQ77NzhhDMkXS3d4JEXi0lRjO4V0HkZdiGm/pJxN61N1z70d+qVpdO0+6YyVpYN0JVRXQwjkagb1998XNImQ/SLRjt03iIVSKwFpItW9tLw6gQY5AZSAGPT5or1SPYcpgPOqWsGdwOYRLix7/OJD++BrfNnKq29S5esCtbWpaZIBYRqURdRG3/he/icPztpvGTN+Kfd5kZ2r4NJ4vbKXvm0UTDgGChJua1c2Zvzk0BiYg0hi1vKPJq3ZRXTJtNigMdfqp+klFPvebQM98DalFVCLXAN153/l2YKmzEqMgSq6JwVkeWnQdWCq5KUrdbiVqgS7noIHrVLWikYuUwNtd0bVgXyNr4/o0eeJhp/NhVJnLSx42//hZmbIjAIqjpZPUiwGgj/na3IG7/2MT+4rum4UOXGm/BEtv6HdtFpPXhaxqG1Dj9Kfp2jsr0cC+YEIJ+1pCBeWkjzMPOS3nF8aIMIn4sYiJ3YtjQLyKd6olsZLPboe6Eqr4QV7U1LpR/jGIPZ8XsW60s2TQNQay7s7i62yDYmdBWipE874tQhTJ1CJoIMx+NNR9uuv7wW5PK5aGNKN43UWm1zTEN7/8/Jv6RO5iz4tx7x+8BHygtRVPo38Vy2cnqyvcwnjTKOmhGTp0KQ3Ds73OK96tNw9/+wSTfoiMO8e+GOk1+RXZwHkw0cTCSN9grdjeTwTaB40QZKzMYPMxkUePmbYmUr7S3sT+Yl2opBuBxto3TyErAg9dd9xG8CmoV46x6KQ9sdfcCoVotsPWxpO1AyBO3oVjC7T+KAzRsUoEnhoYCjxACXB1DCIysE2VPqsXMmUZP2zoRQqRhjsn87zfNc+vW2XdqekAgLGO95nTT+LffM9FTPoWneTz17/iDJTLLYVH6WMKz4mmFIEWUw4RJE7Q+G5MDYeIq3xTz3+57jWlZbOLn/sw0fvRfOI7iCHEMBghIFD+8O3r7TN/DvybJEuohnJxZUIhOKQF3Og7e8aIcSwBWqLL1DLZA14hZaPuarI94xXY7p5H+eP7b1174c1UnlArrXrV6FhiWxahE233npmsveJp9/PdyRkkDTDWYr6IKj2XyOrtDr8IkM3qtLiWL1lFmJ4Q6LeJRGL43O8CKu3/1a1sw03ZK50f7dRapO2eBaTjrAtPwCQh21acsMfnbvm/8roc49YxjNOS7M4Y3tQTz2fCnZ3HPItyY83P8rRzENPA0xxm+wcTfe6Np/PhVJvHaN1kuas87pWRL31wfe/JJk330VpK3IFtUQ8dWb9r/aK6noUA7l+ym8XpLVRYbpTwayu9cL5UbLj9BP/TFTOJHarS4ad3QogrK9ZmAVBVYfSukEC5++1sf/dX7PvDv87EfewW0m+LqNQ6mcr7X7ATHYhDTjnbVqWfuvohjLXFUIQ6hMtgHDzPxV+XIanTxga8yp3/hH81f/ek7zPz5801R4q+OghCQgoNjTXTZISbCr8RSTvHZR3FI+TtTfuEhOCQbNzgTZ7i2wUBjOanT8irjHnya8Q75lIkceoxN7yaSNmpwvinAhXeoDtEoXskIP/jxbWY1R8MMG1+oDjMYLLxZ98CLZSkjjlrZXzyDRe7MWkQqCzds0EPlEVIEtoxM0Gm2V3Z+cu31HxwM3H7WV+QNK7lXCVWj6OrVq5mUrym1NpVu7U25bcg786gcLMC4TQND2cHWlmQJ72X1UDIFngi1J9XLBzsNdaZ7QCchwGbkChFI5JwzZ7ExGx4w//2jW815H/ogtMNqLhUATpaQRIU6FU3bhiIofPTzTzrdlPt6+HWzFouxRIpT1jhuQ2e9GojRbeFkNQ5kdls5sIpnkZto2BKonuwxHEGrVJbCY489Zr7+xcvNxz56GjqsYjhgBZFm8K+swUqOW+jzPY5SRAZWZWc6VIhUFnJaeQiVR+ILQCPOxqyfXn/9+S/UW3k0utl7lVBVGRGpgHDllWfl3vOeq76PYvNsyKMB5OT8wrLbMDCYTbU2c94q61gSg2easzJpTrHdR0oN8ESib4C9oyE3jc/CxxKa3wbPN595w2HmI3/9IbPqdSeZw49YuZOr2vKIKQ4LQdl5o2ZxzCfdOfONx2+iYBth0wFDhSoC1aO4aSQS4cjWvPmXK660frRbm1tg5Oh1ZpibqnyCNchnL2ox5UTyi+U4aaYJtUKkWhZsYgtWUA3VREuGbiNqvnu1TVPibmfnWRXADceq681Mo31NjZEGTcR6880X9Jbc4n+DGfKGIkc0ZS+f95v6B9EM80pT+5kGF0Vk8PHPwbOQrOVmM06oApJEvwhnHB6zdJGF2ac/8XHT19dniaeE2DsiWA4rkZi3GrxQ9kjxNPyrEOTws5RB+oljCob6VQURqeXavPvBmjXmhm9ebT771pNM0s+BsUExVdFn7DYYDyKFVDlabJpp7w6CF+JupFAuNfcPcV4dwcIFUzDXaZRzvhuuvfBuva4oj+qCBypvrDCyx8aKUad3oTHEd665eBMd9hOG0yjYi6GlZ4m1kR3jAbGCOJiHzFi1ELkyThSPiZGigCMCqksQEdHwA5NoXQ84zPzgpz8XgphsNmuJVfPVXQN1E3aLs9pr5VkRq5/t90qcqkxEnCGRSsy+6667zLvPPpsY88yhCVQ6EmKq4s/0rUx/ZGfdx9EiLXZNe4ZK1OCG9OCyVtrU15fVjhgRqeNzhqbOM/X9dTdcd6FVHjG4Cagzh281NnHWEKrq24kmmJ8r4328OfwMoCUsX/MiWN8WSiJWYQ50OmMYtIyOGQw2j1f2pNYIyT2ORpMg1qVtzWZVbq0xKw4zX/3qFTJRM0NDQ1bJI2IN55F7XBwZhMoqEendd99tTjvtNHNQG8s4psesaJOnV3BUA0idgooToW4vR0qa+1iHc9NdtkYeiBTiLLcg7rrMOax5YFnaOr+RMW1LpNzwfRGncBEg1A8AE7R1VhGq6glwLICuu/o8zu3w7wQxk6qkXWOFWAMxGOyxLydo2W5+apGXB0QvZmx46Ld9VJ+OEpIiZ7bEI+aMow9j1e4Zc/JxR5t//ud/Nueff77ZuHF773wxAABAAElEQVSjJVYRlUThPSFYcdFwTqq8vvvd75pTTz3VHDqnxazLxs3Ji6JmGQRboj71aTydRUGAgEE4mu+Go2on07Rzcw3yiLsiUs1JXbwNhERK8Q1IT11+vuU/dTJhoOHtnPYq7CZaWnTf3bQzlQ5CvRS4+c6N1330fkbZX2IKgQoT5AJJQ86KOnba56x4XON4aGPkWMuHULWDpl6YKiQVR40ibr56aYeF7VOPPmqOO/ooc+ONN5ply5aZ2267zRQKHGMFRwg1wgLDVH7iklry0W/t2rXmYx/7mHnPe95jFi1dalpaOLkp22POXHmgaUtgHQWhzrxGp4JGAECib96P5NeXvXIMqWlaqaRCpNqy1tTTl5XjgoBImZP6nIZr3J5yrvSfN974vqG9reGtQGTEZdZx1KB2O8UNJvS/QdT9jQwiQmKN5HLlJo4m5+AZ6IkmTFePko9Ern5tHkcEkyhW7yDiOHRus3nHIXPNi+h/+p593Bx08MG2GmeeeaY594MfNPfee69Jp9OWWEWwo38ixtHvwmdxUBHol770JXPooYear33ta+Zg8neyGayiNtpyXsNAEWFFTKeD1AsGIajxIpB7kSVdDZjTFkIiRbvb3DuQiVSLu3hpYEddfylu/vM737l4YDYSqeAwSwlVVROxaiJvzE3XXHQPffcrBlkrBvvMWUNtsM5fteLMnsiCKoQgek8wR32RRfeCcfMh8tiPdfgjAsuXyqYjGTXvPHJJUCLcc/1zz5mW1lazYsUKcxPc9fWvf7155zvfaW644Qbz8COPmK6uLqt0kjiroHwU9JzL5UxPT495+umnzY9+9CPLQUWgn/zkJ03HnDlmyZIl5rnn12G62W/6SPOuw+ebw+Y1w02DvGxGdfhDZ9tK57Uhgq2G8i9r1e57WnaFSLVO2qzBHUMGcVIpjiizASbeW4w535XD+GBNf+8YNEzWzL2+jjpxBUNidXxrvXTu1woM8qdiXpfxI1G0wSVXI2SKQ1Kny4JJc6NNbB7HwVZOohidGWDQxBWdlq/CVBiq1d+8fvlcs7w5Zl4YzJu5zFt7Uikz0N9vFi5aZNrb281Pf/pT+1PByw880Pzx6adbomtrazONjY1WAdVP/BfZAfPA/febhx7C1LASli1fbuKxmHn22WftG45tZ8dKQNzvOnKpaU/ETLpQZJUieBemm6mrYByGkjaNYwsUYecMpmnVn8IoU7pqEI9hcaSdMErI6dSWSKU4wphheylbvOXma2cvJw0bO8sJVdUMidWYG651fvvec69k/cJ5E/SUx8CL0yjLrhQDQ61N8Xw8FrVz17B1U7yKh2hu9BSIUmQ2LDytD6rurKiHeQ7Oic2SlqT5v68/1Fxw++OmgbOru/OBQcK2rVuNfpqzdnR0mBQELFH2mmuu2ZnJGHeL4Zzz580zmUzGcldFcWU8wVDUgFy1mXN4X72w2WiAwKHjGDnM3CtgbAlSpebszqVA1NvtWiihlRVdk8xkcsl+NnmEow7aXcakZly2b26IeP959XcuSM9Wcbca4vsAoaq6ECuiUOdlshC56HfnnHNlruyZMzgyVh6Q2d2AuWHvYDbTlCxnGxuZ3tBTw51V3dyJ75VEIpd4GqfoIoKp6InTzNRX0coZhy0yi375jNkwVDBNUc+kEIstcTGCbNiwwf7iiYRZDocUF/UQkxVU5ZAVadUhDXH27Nhh/rAZW2B9Z15r57HE0hLinMaI6cXN8ided6iZ3xg3qTwz9Hp7d2PkFeiz8q5B5YN+sNWd2h/b76JStqrhQiU8HwalGJMj5DHXbUK38Xxbc/H7V155QW5fIFIBYB8hVGqKwNJJD3Z2GhHro+d85OuDpXzpT2GACVQeWRnyy6A6wi7soaZkXCIO3LYysqqpkwfNidhvR5/KHUsUw/y9Q6ca/LMQ2KLmpPn62441f3rL78zypqh5vBcbXnBQ2uGAG8KBmIOuX79+8sYRI0xj8bVCpAeS79qBvFnN3PS0g+cbTLLqJvIOV7oCaF0KWIWF7y3NhQ+1XEkgUdctFsqNOCHQCoHV7FoTLcYvLI6I8fAN1190q7LbV4hUdbUCgm72jWAXoa1RxPX/cf4LyUj0JsDfq/kGuM2kKtjPKo2wV8xbJZNtl3q8xqC5keZIpQrCgDzVDKrGXPY8GvjGsdUlc8qK+eYTrzoQIs2aY+Yk7JIJQxBNDpZlxBkth5T2F1E2vNdVz9XvwjTqdHHSjphHGQFw/u7kI0xTLGLFXrKsaxCBEoJN41Wib/C6hr+V/hWRSmnUgt5CRGq92Zft4cKS8RMw2V/f+K0LLZF2YsxQ783fNbRk3Cj7GKEG7QDIoaO07oQXuREe+AJKGKzO8OkHgkojLA2fti2JeO1wVAOxKkoIkCzLBHquM86O6Cgtj0RZJrn4pEPMyo6keWRHxryiLW6JLKxndQIRYnUICbP6ndoDjZo4+S5pipit2aJZ864TzMr5zSaLy6pwKledph73ao/GDKzC2DQ+BWMHKzUF0EhmsrnmvoGMvNiHm77BjTgLssj6xdtvvO6CXwZtYRpl90PXo2XTU8ZY/T09Oc9wLqEhv06Mu+naC29myJQjZNTtCMHYB6v4Bo5pTA7gUkMULBZl305csRAg7Ilk87jQGg47Ev8nzmAav4poxFUXNifMTe96lc35qb6sObQlVjFGmHph0io3wZIPbYmaR3uy5oo3rzRvPWxhwFnrzUqrqs+sAzB7ZcGd6WTN46N2VTmlgjZuZK3SSHMklvXo8yIbkpowWhlkVfx7N3zr4t+LiyKLkLcUlPtWCPFy36p1pbYhsfLoy00Gp8b9GMfZ6ikc/zCVA9PlilSicDRfCjzyT9JSSNoiidbzAkLdu70qYsVbpeV4vz339bb2zw7kzGGtMc5TCMaQUYx0FylA3/WL0bKlSc80o0V+DFH6S398hHn/8QfaOa/mvTVTxyQwnOpnxHcLdGbeeIaKwVEnGTEqAy7RrKdAK+pycJP6m1aQF2SKD0cMzZ7z883fvuGGSzZoPgqhAoV9j0gFz32aUNWAcNcNt7h1+cjD9PJ3wLheuCe2m5aT+h4a+aa+/mySs1WVZrjZozisHi1AEL1y2uqmbrXx9+4fzUNFrK9c3G5+f97J5pXzG80z/dSQyh6MxnZRApNAKmoJEpaJQxukR7U+aM98Iq5AzJ0X98ymdMGKuzf+6XHmwyeuQNRFFCauBoS9GVQ8Emqhz0QLsfG2uIUEChOVlNQwOJSVth/SQ45SDk6J9xGMTdnM4d5747c++r1RJoFAZN8MmmTv8+Gee+5RB2je4X7ty/934I2vf8tj2aIrT15LUKlwYaMnapZorlDCxrNUjkU4Kkwr33xS51dwVJmgcXAfcWP5M0x/22Fm3fH0vxDA5s/nvRJUPVVDVkuLEYPffvhi0xpzze3P77DLKikmdwc3R82iBogxufM3HwJWvA3pounNlcxAoWzeedh8c92fHm81vNoEYDXIFhB7pWmVQtG2Q5xZP5a5w3/F/d1uPLfYKXlZWGKla4J+kr6Bzorl88WGgYFcjAVnzUWpPptL+WdMI4AaJM5Pbrrugt8pc+HEVVddOGpI1pd9KwzDYd+q9vi1Vcfwsx3zvg9ddQyIeArKhCZobUiLaGxJdxzP8TMN8ViuIRFF+YS0DO8hhQ476TBF70bTPPR1Z/3yd5s7PszoHtHBxhC7sGSvBxFWHG2uMPMPW/vMj57cYv75f9ZNWq9zj1ls/uSIJeakZXNMazxqLY9E/LMDAdxy3C26faXmns+YM6962E9kD3ML0X7fK3MuEWIBM00qq/2jjfJcr8OaIE/JuPSdTAExdHFi6JCeakm4P4MwUxU8EPHqt8+H2dFP0wzGoJMupYMc/4Mf/FJH3iTfhG3noaiFMjSY3RJIemB8MRpxs03JmMwPhQgoH8odTiFyo9OU/jd/28IPOD89P+EW4nl2czBozwpCFahCLpjA9E9WTJv6M+bZHYNmXe+Q2YJHEdnpeiD3wqaEObCtwazoaDIHtCZNMwTKooXlzHU3aJiwj51ywiu5PaW2bReW3/4fPZhwzveL3hBHL8qkRQNpXI7H0rm8PfbQijm8FZ+1S3OYlJrSr2689iLLRfel9dEJwVL18SVJqJX2OXTY8FrZ+z54xauMH0EbU05AlBl0Ro4drYlc4IyCbFNjNB+NeG3lonenSWTOd3Z0fNT89PxGN9OUK3N41ywiVLVPbEJzUR2JEpNISE9KlNX6qP6JV0aYgOq7gt7nIWA9SVacXcEpJyHUbaU5G97pv+2b86l+0i17nEFTjudzxTgKQWu8EFZcEjvSMo1O0NS1bMi787rrLu5Sm16KRKp2zRouocpMc/CrFE0G9fwDYPK3EaTWMhYn+bEFByYKBHTUe1NPf7aRpRz825YXOGWvmwONWVXkQOPZGVQvcUURa4aaag1USiGWRyFQ1pK5ah02y7xUiqiCuCwEGuL6bGuV9NdYM+cfhJtGpVgolIot/f1WWRTBKsMqizQXJSD7oPB28rT/tpuuu/C7IlJJUQxfjvp8trVtOupD417aIZiv2gVuV575b7r2o7eA0LfCdQbpdtmje3icg2M6vl3K6RlML8QJcx97c0B7vDzMbvhonini01VcFsnWEqyuelb99X22EugwdKkn56LmmZgU2hgwG7WkVllygWwlCjAxcRK0M0LDHi9lS9fJQ6DSB1OdTlq8by69DMNggptZjoYT1Hw3PjHVoZ9tk/1zzrkuUfCGXgeVHos9E/vF3bR89SVNMTrIqa2e50f+pe2Xl8xLDCxNa44qQ4r9YWYggHukBrfkPpdZ9OAret9w3QVmsHEIz//o/cpMUBlzIFD8MWCCvcnxor/59tXnPaeK7CTQmanWbMp13zHKnwaoQaRiMnYec/31Z8mP6y8+9KFvPpb1CydBiK+AJ6HedbNIxE6/7xQLeWzjoWvJW7jPZcDmZ3Pguj/sOQSApzRCPhsXJa/m806GF5LfXRRmOkwaT5QY0vtl3Ci5Dxy0tEvWRXzyncsuu2yfMwPcE4C9rAg1BFT13LWz8691KOkP3/uhKw8yJfc1OBc4OI5R2vN+dIDjF7WYbsp4UNIigBdFxHxJrDyHkNi7V61uY/0XDH5gInuAMUiBtaKVZ9mbdXB/kG16/9MQiz8kU1HVVsoiBlzR9ctqyHxZEqo6XCOzrqGW8MZrLlrH47pzz/3K4REn8poXfaejaDByAR+stMxdSSfSQKiuCHa/ICzw7VZgGYwDkjX4VagNCUaa6mLZKyK+NLjs20fcfTDuJx/QmS8qhP6yEMdjvYj0ZRfshO1l1+pdGywxaliUQvhynLNvW7J23s3/cUCk58xUAU91SL82mcZxoGYJFpvZ/QS7KzDHeyMxNyRQyw9D7INKk1Hf+X324O+8buD1V/6g5ZG1f/7vX9wR5AMRky6ctoyX90v9/X6+UMGGkMPevaozkDK+c8amOU532tNxhtViVgW5rNgGh7VicYV4X+rIslvtE7xEoIi4JU6d1XzUhpBI9YBGN8bByoc663vNjX95v4g04KCyIITdVnQLQcKX59/9hDqq31cddit4Yfwt7/2zI8pF94wMnhaqcWo4euUl7gotApZZzBnBJYYjvkxvKvApA5+iHdAqcBgTmHiqEJwLpT97/i//coFivm3LrUgwL93llqlixX5CrYKYJKx7nmkWf8TJde497bFoY6GEugM9UlW0EbfBao84RhVCKodxEHJE4pfiwzCBMueEg9oBTNqAieHhZovlYnM0uqS5of89Akuyd8XEKV6KsJugTfsJtRo4q1e7p9xzT3Hgwj/jMFFzTlYreBF0kJOhmfIQWhFTiDnMQWpLqdQvjaD2a8CyBEqTwvZPTnKOy/aZQKVkztv2N29qPHLNmvzdq1a9bJWdoxFiP6GOhgjPuWLu/R2J2NJ0oZR3o+y35hBuKTRqCqMJFsKtOW1NBcy+SGqf5qB2gJrKFKACU5cd7agCong/LLTHo4c7A9771MpVq2ZfW/dWjSYf6/ZWzepcLshm56Y7LnprSznrPhl33MV5r1iItopMQUSWE8QthrlEjfUTEks8lk6K7XWBlrhCzDVmMfuiVeovXTiO5zm9PBjIwmlATRUWkcImPIjUrk2zpynXZ/KszcSxXV7vxxqPmn/VmpTfifVjp7U5qSnbl2qk/Rw17NnzTrBiFkT6yTmJ6GLcdbL4HhCpoiCaGS8uipsCdyVdiLwicq3D6od3750EL6TfF0KlngH33NkWab8VwnYGT5P81eAFtCPA0y5v8WzHM7bapoul3JxkbLlTSH9KuTy05YRx9QOTlPKS+ryvoMmMAv3x1atjmhNtP+dthzqR8hOw1gjeW3zEXifaNgoJwShZ01gE3R3okd4GCN6VXnM2c1m1T0SkHwohOd60K8phG6bYfitdqN0YjKjtNigvDX4QfL7XvilD9C5x8VvmHzXnG7c/EfZPkODl+RcQvXwDyOD4FSK1UIj61zZGI5gj+UWQxS607wIdkFPimivuyn8h35SCkFs/0oVcVsqXkuayMqsI81OcvREq5VrrIUkB1Evrn2UkgZB72vpPpX6VNnlMIsRFg6XpSuPCfMhe/3gUkRbpBxzaOzcplgZRv3N1jPM4pdkLU+wN6Oy1Ml9WjRZhmstWeU88Ps9deWRX2em8pyK4GbP9Q2d8uzUWfV8/DpzpDRzmgxEMY7H24DpmDxEH34YBAgsZ9wSaYXryULl4AgquynNP8h2z4ru+tBxTdWBPq73XkoqeFXa3/Er6Sc0uyb+ch6NynFwoQvOq0BKLRgfyhR/Pu+a2twcVoUqrV3tPMFZm2p/3T1j89hLmZKrpSz7sbhfsM4BRx65dmIocQo3XbGsqnrVmjfjWcHjxvLcdiy+eL4EUp0Kk+iYpI9jcKUKV6KvZa4i0wykrN0DQKlVEsCFH3FOoUpaKs0hLXrrauZy91x99DC5TISLL/SvtsPciSpUVEmXlm22ZytjNYAc50g6bWYZi7nj5UVYZjUC+nzSVcrkomxKDZ6S/UHiY6cjH5139k7tHZyGxeOXCFA6Qt+P57SEI96WpeNqD7hgNstnxLPHIbNnimfhG18zJ0HE7uaZquPHjq5PeYHplzPivYbf4W7F9ORMiNeKkAEPn/I2AieWoExFqVbOHCVbzOWU0IqeqiFO9Ja8RIcyX63AZ4bsREXmopFV9bKi66nY42fBNJd7uXCp5i0AdlG92Hqp8wzLHy5M4OPQ1BRGqhsmqwKcCYnBU3irQBt9HhW9nn9t9wPrRRdfdbt2vVEUXx40xMDuH0Pfm0ntKwGey0quTz9r76eievdY4esAxGNMbc4/70JZBZyxRSHObrs1DK4n7GiY4r+N6AhU+VCM10iUEWpRHBB2xuOsh10SOIvqiVJoc2aqgYAk2ULzIWaBqOQr9qiLvya3ynkqYqd4O2ljEAasLkeqnNtcOM+KWMlDkwJiEqhZqdTZKn2lGYAbUZ76/mfePYiTxAJ5Gf+t4pYfnXf2zrYpcHSRRmfbnXfysksWqMviiefBUIVed5V65FzhfUqHnw6e34rPuSHwJvRryeA09cjxc86AmlETyMVRA3JNdKV54ICUjLsrYbznpLnBAJPQl+rryuz+VrsXIPKJDxUp+L+uv+ClwOqRFpgAmnrsUs2++COEBZKJRrOZdfwtOmdrYLNrAwBe0tdaWAZNSGt3aIAIC51yNhrVARoYS0LWSjX9XE5XLVOvUjRcs6chxWw/xngLEDxH3AU41+d8O/4BnnauvVpp9PuyzaLPunFX4DkzOjfpmObuMj6BzjqeLj2P3/+EcrDQnId+34Is870GUSLkcqk1/80qGDeJw8s9n2897G/QQ3nNXIFW0oUOYSDIpomoNKEqTUc/LFMtrSYWS2Dkom4dSsUgcnscqr9pzrLXkmY0XAod6S0TV2jLXcizqujgH/wPAW85tO47URFQ1SxEST52M66QHOJXasz7ZJMNY8FQVadtWeZbjDQ209pF78fBIDI9ulG/7HeJVHTYT4SncuTwM6B/BS/DTvlfYODfu9jhX3l45NcFmO+v/aPa1T4Zmrwnn2uW3gw6vg4iOoBELk/i5lac9i//qPe4TDNG4DEBf5MdgbpWR2XJTzvAOguLzw9jU3ljRqCEaSWSIQXe/SD4LOCJCpGqzriQb90KxHG0vAdDfATdv1lGtQmoFcrFKJ3vkhCqgMvVTqCn3IGpd/o6ql1oU/ACEAMZPIBUTpJ09NGcetAKhDreo1mo6EDfHaHoH4pzK5YxWS0SCuERd9QudEtaG0uS/SivQxpOUhPSC9xaNvpV6cW1mZkN9DsDH8QG5cvkUfO5v4Yy4J/DCdF93xr2NilnHaGRqm1FrRfdWvH2WUOd+68cPADT9bNiEIX2kkFvMkt9ykGY5HaDfMrphCdi0iG6ex+jfgmLCjbqcHkr3qOclkYoG+U/30vN0uK6DrNKwd/IcZq5Hc27oJwfkdzMYublMHMjKtxhmTA8IRpbK0RYnbh7YOwnzVAFyDYnWPuudfmGwScOHGbyq0mQ/XJzqKcIUSYhadNVH/Sr1q8DMF8zgWP20aIABasnOGNxNHkrA18PnyueyqdLSeMz9Ykc8GlcRDK7DdQo8KVKNSr8VYdrsuDEQYY6e6qEC24msOepmqriR9BsYyDfgfmmjm/C3zbnyNmbAuwbiVlqz67fZ9GafJVQBEQgLdyygl/77f8sjgH6P6lt1eI55a5OJzkX4XZTyC0sYqJeRbjm/pdzPJ4tm4sdAC+YzzlYI/X9M1P/B/Btu/33/357RqbxUzpR61GI19eHc1uBWuVRCJSP7nh6wQwPvQkINCVctC98FrQwzGONKBccNoyqux+HolRtLlNyrTiMIU5kqTphHeK16benY8fuA5aAdlJgoaESqiqpcxg9ExKFc9/xrb7tpx/lvvac3W34HZZ5IgkX8ZA1Mv3AkiW92kO1mhsGNKJE2Mo5sgrduayxHtjf2xXtx6stq7MSBotTEmqs2cW71+7pPE6rAZJdjHn/ckWZvbXy+nRcdMqeJjuhCw4d6nigHX30nin+j33NKMzo8e9Fb483xUmRBzis6V942Yu4CwqUUHyQJWO3oxOM9W+R2uiH+JRMmrEIZYZCIosKNg5z5HhKrvQrHqt7ZSMGr8WqykxMqBvmLsGw5KnD4ftzktrzxvpIcyIgonRQDTL/NfGoeGRB7xTldeYU0c75++/9w0c/49IuhX17ozpcOvP6enC1LHyYIt6DlXd3eDi6wPEc4ZFuT/5CMI3pXlC87co1vOgW9fS/s04RqO86eeWkBP8KQgd6wSzf+44+75sguxy7fKJrU9I/P880ta2RTajvt0ECxMEygnZ3GvWD7qob5V92TQjINLFCn0Lch8kIQ3aTPWcKYQvoRUcnMEjAvuR3+a29H/xkLBYNEo2NO27MtUnX0TZoK9gSjwJSIwdV5OHg100Bq17mXtq7JyXChovAZ7hd9V7+uYd/w6qo+1WRzkA3/q1at0vKLFIcjcEHp7JR0DU7S7P2+92efJtSJwE1nMXp2BqhLB40KOOKRZzvjXjpG18ks7dLOeYEY5Rt0kUKPCp2MymisRyQ/XNKqaF+ieGimGNRlrATT9Y427ZXASML/NFy1pzKq1NpWTqrgUFPO60JhN6S6/3aTyZ/1ZdQGFa+DI9vTKUrzV69hkF0zxmBwzz0jo7+Enl6yhDpJH4lObad3jkGo+oQ9aSWU+0s6oKZ20VeiILxauOpAqCzIhCwxzPIldQ1o0hqNuMzJp9JWkmpRFGVeznNK1i3o6iOP9DmdWofdSnm3P1QgYOX4/dDYFQIrtzxvMZCzVQesrULt3ErptJjHspCjRfiAowb4vGtBu75RzDFEt10jzsgbTRep+lTzZvkyT5N7ppSO4ayiEc/k00lskwiXdtYOqSkVtm9H3k+o4/WfNTmDYiJuSid9Q3A1kSqRLKEqDcTKfhAWDmoLlsuTXnMsicyaQyvUC3GDA9M42JyW1k5wqp0EiLJTYH+a6m1DjZUOCTXV1tZnlUm1QTks5eVz3U+o4/W1FE4EN1/Q3ClbGflrwT9Oc2QzB2t8hF4SWCrXw4SBiJUlDSxuHGtsbqfFtZQ4YcY1f9R8UaNCnkuXBolgnKhtoGBWXkRbzXqmrXCteAWsVD9/CA29VRrxWL8W1wyavR+xVoDu/ZrWuwaaKxG8qJcCYyFUHmpAIUWRAQBX0sSkybQUK6bD/YTBlmHYIGD8boqzKDxhgmn+qAGGfzKA36HCRayT1trWkhRWXPZ7qwh10vaSlBMvbUnsU7OzepvbNDfrJZHdfkIdrxsrc6WhQinN0gOWqOBQDcQGulmOCuKmXkxlWYNllkuoAWsDMZADeknQTZIAaae2Jjlea2p5j5GC6mnNLbrFGC1HnzSlTaTIJadc7uNkZaUQXk3YZDXOGlAHhQZWQ52VNiuH/WEEBPYT6ghwVD0EZGIWNOVxQmJSNYu+EJY4KiiX0vostA3mVjKryn6sW5uMzT3YrGKBE6aZEN/Hymb33okwgzLxB+hqoAjmyLUMTkRmfsqhAbFBnW5ONpMSqq2kBiGBynXsGqrU8PvD2BDYT6hjw0X4YymksvE8hVZz+N04SexrpQvo1FguQSY1U5oGAyJnWK7osxLhRAVN9zeKDpDB1+HBEr3ZdM3fCYIaFsaAO5adnDeAlZHWRJVq0nYTS0tZkpYDjroSC7P9YUwI7CfUMcESvPQ7LWcQMqaEfJNiXphXgKjS+CpYWTC4nfhvQODa8OX0BBy85hInzrjWrzQU4qRQZweVLlQGiwkrocgBYNwymlvm807KShQ1EGpYLTKwHPWeJ7r2E2oIlFHX/YQ6CiAjHh9fbREHZBzQyE+YEGmH0yoqRup6Jlmta5IVQ3Y/zS6xfhFJbYUNl7rHN6GWueT4PZArJ35PoRLstLXSh88OGhpdS0pL5Kq174SD2h634aWawX5CnahnV1c+Ohj0i/iwNtJlohAiH/tHAuTzdTp2bSQnUZOYgyyoDlmxs7ZkE1Vnyt8s+y+zjsp6quXwNQkS1krCJqUJA1PlqMCnMkedcnVfNgn2E+pEXT0siknZAYnWooGFQpWlxFddeaqVoyq6ShmMYSgx2YBgI8/AH3gh/10RTroyZ568FAYUD6dFishYxqA2OXVrDLJt5Ibo+wl1EijvJ9QJAKQdN/ps51C1UY6UIxZLpRCyWU/FHI+k4i59kUY3gisZFDRCY5vNTP+hFNGObB/LUbco08eMrU6NBeMfKpyL99ZaZQpUcQKZVSatWhkYmdRY5Msq2n5CnaC7T6iYERKlphFfyM4PD/uWvirb46yXpAlKCT9BFuUS7DeafixyyKkmEoVL2dNF69JHqjEeEUzBiTatNwuZnpblaiys3KRXNn6HkgOEWlM6DQwu/qwMjt+sQb7ZdZfTpOW+XCLUBQn2dWCiWOmz/AaxVtg1XtA3fhb5uLWECovFU8h4KXa+V7pSMWd6I/Pm73Ab3uIXchIj69Y/NM3L57O+l2hreyBx2Fs8v4zoropPQnWatmtgcgMRnwr3VNo7MbUGMHFEqHiXCJZnKtZgO6Gy/y6EQN0QISxwX7wi08FRwayJUU9Nk3WPIwd4RLWECoDD/aiTNr1QzJttbvursyayIpvLUOKIU1omTb9HEZA/xdIlDfQ48dVDbktLSYOFSHCSIJrDningqHZubt8IWroZO0DeKKscbV5wy5hp7g8TQmDSTpgw9Uv84z2V9uHPZTCwYZ2Uu1jPh4WSXwL/KgYP9pDFWiGFFikun06cfUMQ7dQxMDB42XzWZI1zTLc795giHH5SjkoN5RwO43pLqEw5ewPypO7jk6lI2JpMEiWDlJ+uYzP3yaL2SULtZPe/fsKimYT6qsoOGjBuELe8Kkpljo9+lktQJdfJRI3VnBJdjrlqDRj6Oh4EqgPNRKTjF1VrjlOLJ+Ly8fDmRjJOTI6nCJPWIXCz6gZaX2wJ+zRKEbQMO35ivtlNAI7JlMqOJdTLZt6EkP3onAgHhFXBfSnsM4QqAN9yyy1ehUjLXIUNeOwI3q9efQsYPs0dUJkz4Z5wQO4pCbhYmbh7rTWP72eKTqAggeCKtQwnwmkJzIi9IL7mwsiFExc17V/VNOlgOXPSz0FxtRYgjooeynJU6twrZ2WEyWw27M4ZGprODRbspvFLL50MurXWKIgnfBBehHjDW+ELNsw6bXPE+6llvBdiz3pXLABWdRQHHXYFefnlX1rC2Qftn/nMJY8J8CHcLrvMctrookWL/K1bt5aqv4VxdudajDCHKpZx2OB4WA0JC8elocD0zwxGXM/6AIKyh+s9WdnM1lgTYVmGiHYry2QJZuQ7MiyF551dj+IZszhGFNElQ0swR2UHjfbJiVvKL+94kAKAlqMSI9WBA7gx896Nl/S5S//jSdSG4po1Z5Xw7GKDviXcjqOz5eLGzs6zeirvxWVjKx9fWTqLuEHM2fd31hLqhz/8jehRR+Xciy++eLgT//Hvrzi26JbPAZPfz2jZ/oXPf+V+COenHMF2R77c8PvOzvMkQlnCUKdcccUV8Z6eHv/SSy8taBSdKvhDUayYL2VwLJ1mHtYM7o2bj5BPhMo11RiLW0Ilck1aX5KC7J7JORHtROGp/hxVo4/KVQOzdsDQmwmDrSZ9QSQkB4LrxQZK5WKafaYNVjM1RvJKrnbzAp8HzRW3582VY0Ss8ZUgd/U3ro7kcjmX/i6cd955drrB1fzTP/1Tcz4fO4H+fzNj7Ftxf3UsR01t+sIXvnqN65a+83d/94m14EqIMwmKLPJcswKwxirucbRZR6idnXdTpy446FkWeBJbnn56y5kA+tyiX35HU2Ozk8mkWXsrmXgi+WrP816dzWYujRQzT11++VfuAmF+DpLc9+lPXywvCSGRi2hjPT1Hw2VPqbkTJIp1dnKoSUM5bbJehnybreZkArBb0dewgL/SBD6ArFPvCRJUPgl5yxyhkuOXgLbFXSP8rW8QykOo/HKUHgwW445Lw1WzHFVLwIRi3h9EV61BrQFAWxIejlh1Yz8ALK4pFWk/TTouVGXALQQV6ejo8C7ruazQeV7nsC6gs/Nf5kcisdcB0bcUCs6pnA92SDwOVItFk8tlTTQaxSN/ojM1lPo/l1/+1e9j5HndZy695G7ys+5gNMAvXLiweNZZs4fDzhpCFdBXrlzpn3VWQEj/+q/fmJtNp89+5umt7+N4zONjsZiBIE0qNShg6hAhN5tN0zmWU9IPiVdAtK/I5/MXFIuFzV/4/Ffvhdv+nE0gd33uc59aR/yQaI249emnt5fpCFHC+JhYQZyB/pZMS3wI5LMvxo3PByIoDsrbs4IDk5kmDSMQH8YMylCT3yLNynKGRIIXIpK9EwK1RR7OXusyrp2jRqACghct4gvZGUKymCu5IIDHri0JiJONq9gG7/p13Deac7rt7b3u1VefF3I+W25n55cP9DznNPJ9MxjxukgksjgajXEiPMSZz0GkQ+CN3ckXLRTypUKhUAJfGkCc94JX7wVffk1lri0U4rdcfLGVzOxAEODk3ifYvUaoGrvPWn2Wu3r1aqORC0K1AP/7v//SkdiNnpfNZN6dSCbnSaxCpAHQLOrB3PhJPKmE4YlUOZfL2PQgBgfKR5dEvMhZHCp2Vr5gBuG0vyOb2+GIt2teSycXrr46yIJyXTqD0xCMOfLIJ6yyIcw9vC7F12z/wcFWN8jHMoPw2y5XRXDcncgnG1hSWPLdJXL4IvhacqKMJgGhBESiJk2cMsxhuq5SaKnEDJy9rINnJgm2dnSmb5KW/efjHblIti/YaD8OnQ6/VuKK1Rfvgqeq8uh7B9ywOPLEE0HfaM5JFMu9P//5Lx+BavktFH4m4/Wr4rE4B3LhvAnihBD55a1URtbgjV+NN8KjCFJZMZ0e0r7bOOENDDhv8Mvpzsv//is3YrZyzWc/+zfrw+pIsqvUQdXXr66h7oQqwtBk/7Ktl5XWdK5hoh/M9L/wha+8mY1SF4Ibb0skkg5AhoNm5WVAnSLlQHwCyIBRO4mWtGV1lNIRmiOR6CmM8Kdkspl//sLlX/kDGsqfMnr+pFjs/R31CbzfEVlV4TlC/Zw772wvmzWW4+KafU2JM2gG6NBhHjFGTw2rnD0//2JY16ZyFztRFkzasw6VKoJP+WFC3QVvwyxn9BoSao45aplxUZx+XO4u6rLiq19uy/xQUw0zp/M7AwN/+9Zel7YAr4kHNeKT9/CgRos1UAbKoIfIGwU0UYZxRMTy3HNbXlks+mcynJzJt1cy/dFyiwZycU51iyVirtU4weOYwRIsxZZy+awEg0g0ElseiUY/m8lk/ubzn//Kf3mef9WnP/3x34ZisOrQ29vrfvjDH0Y5PnW9x5i1qOFl3Qj1FtTh296wLXLxxRcxygXiYGfnv86FkNj06Xw4Fk0c53IcEMRkmIOqgzScq6ftWZk1tCWMog5SWgUsDzh4LzC40bMXjcaPg+Mel8/n/taU255HIXUHc7Lb4/HYbz/1qfO3gygVzmzMlRddEb+IRFdeiUJLyy1BrmPQqLK2SAdel03aaXHMF7974IdK/cc+mH/qz08sPs1X+YgYNynshA2gcFS0XpYw4MoTRbflTf8fLRGpXNVFhMrx4UYD3jiDhiiL9lJX9wdtl5177uUL72Z2va48dBvzcyv4jpPQNq3yLTjK4vrOzvgVHR0+ykNxweHpAiJtGwcl/xGVeeuzz2x9s+tGVjY1ar5ZMExzNB3C9wspgtFEd1PGaZorRqCfXygWyvpBhIlkouFsBvyzL//8V37F0QrfKJQjP4JgZUVVYiD3mMtGpLwCZ2ZcmTAuIKnMjAXE26Nd13sfvfxXjQ1Ni4olO8nXSKgGT5Uwp1pPlaNfJBaNuVHmvhUlw4ug1q856/On9PyvPve5S56tzrjvb9/2X63JyDsH0vkctGSPBaz+HpCgwymNWfNA7MT07bGl8dZk0js+96I5uf+uct5JiPdUJxm+F47F/KzZHFlmrkqeYA4rD5l3Zf7HJPGiWSRHTPuG487UjUTtqJ8xWyNLzXWJE8wcVpXOztxLHVDcgcNjIYrqLRPfErTx/zrexKnBUZPJFwbenXvMO7j4XGOO1NR9rKRqRr4lGY31ZsxnO/7x/32hul3/9E9XLi4Wy69nDHgL70+NxaLLNd+UlMQAKyCKkFEZyDJkWJCpzmKP7zVeQsAqJ5JMNtghGp3IWhrz7ZLvfedzn7to3R4XMoUMpjz6TCHvEVEZdWKe17KKc2o/Qu+e0ZBsiEu8HUqnKvMIMDIY1Uakm4EHRk7YBUSDbW0hj1KBe5hsdAHI8C6477sYpQeZp/yOet6Z8Mwdf/N3H3sw5qe3GLcVcYzuGxNt9VaTNcfPeLEGD46YSaeLGczwSDAJnIXLcDHGKImewsRQkaP78TB9umGjcsRRdc1R/yLVDmoT1G+88kSw6Wy2gJFHhOGvJV9MQkrogsdfYaJZIjDHtJQ2Pa98r/yHf33FYMk7hVRvRtdzEsrD+SgR6SPLOct5uoo0Ik6ZV9pFXlHSTAWyVqM5LN7xIVDpR1yksUNQUn0+nU7/DXqP/+bVNx5++NcPMn3TwD+jYRIE2rOyNdqpoVJ3Dwz4a1pb2t7ODg3NPQ2TeNt4SqhxZX3P6jIyddDBdAbcGzbAH0ZrBdEJW0GjzRDuKbw/JZ/NXP5/v/C1B9amH2s9Mvsc3IOjdifgcChgnDRHWyMSqqs9awZj+3xkDXZ9QmlmNa1UhvgWT8YfE3ZNPk1vBADVADNCvJsBGq296NUEQXUFU6NEQ2wslrJlF7OmiWV3ztGKFMCFB5Or/uqTl3/gvYOlwilRVPco/KyEg1jr89MgrtLB00AZNJPEOVYThcO8jwuP4ebUKMskxmtNJBrO8bzIOcce+7qrINQLx0o7ne8sS5/ODKvzUuN4dgKjBe+igYG+a7NZVgo9Oz5oTjAJClTnNqP3qocINi5WhjKwCFct8BOdOfFo7NVDsbZXYKSODCoEHCuIfWhe5kJwUU1I2aIpp76TN9ECiSxJR3qRSfAbq5Ra3jFRVha7FewclZQF6p0f5qjjZ6XWiVDVTsp1GZqxE46KUMdNxDcCiopSsdwTbz+zOR57KyeDJ1jjhHtloHWrCVQbpEDUQD4OzMctYto/VAiWejgwVRaK00P5gcH+f3Jdt7NS2PgNnobazChHrdSPNlrOup7nD/7DP1xxAx3xZTS7x0shwPxQo6aIZEYbWqlLLRfVw8KFG6peRuzK+0Mc6QYST4IwcufgWTPAwLpISDxJkuEawcXcuMH0kDfsBtUK4xSDEsAA/bSP0QS1nXqANpj2RfEuUYSaCi40EmxGmCArCoTqVJrKF3VJKaanYOAar2MtrNzBQrGc87N+DJU/MXdHeUhZMxsYVTQ9KjM1imqEQbt8B8tAH8Ooxh76V8Hv3R4ca6l9PQhV4+ew2h2zrl9SsVeibf0USPVZJuotzAHUz5Lz61KfWgCjOEJbiz3cBWJpgHzjpRdiSrEi8ztZ7Ep9HJCLUHj8YBGaNAO5Qqkn02/ai4NuKSpH1kpXW/8rFpZMEGnceaHQYo6IcwIiacXpJi49rJdai443n3d68gO+H42V8jKIDJxph5HGvAYcNfikYUnt37kGO3Ybgrp5aLkjyMm1tXHMwmf4Je2XQimKqOulM+kNTJI/+9nPfuxGFSu9y+6ap0612rUO91PNd5f4NKosG8yLWPLQx8987mP/gsjzKoTMW1m3chGH8TLp7JZN7i6FzcCLAmQQcMeJkarEPDOHAYzQE7GIP7WNPdKR9A2kvWc2d3nd3X1OGRPJSaZ5I1sJY4vi/q/g+70bs/59EE8ZpBKdT1zhqlzYc2AKmNit37LdeWbTdm8wnWPKyKakqji73PJRhBrMCPRQDowlkCREjGOHYMDT8o/WjQWrWRg0xhY9kFN1Y9rzzdbWlhM//dlLhokUnM6LCdWj7rVh0TTWRGuSP/vZzxqLqdTcA+a3Mh8p//2ja7c+tKVr4K8j0diSAuZe4Je4qwbaWdOHWlcUoapCqtZYSCi5rQhhFqMxP0I3s1ThZ3IcXUNvjhU/BCvp0K3gn76U/T02ts82eLlS1C29hXlbO2gghJl8QKWACISKa5OtT2eLd53aYo5LeE4DhCtEmhyOxItEPKcpkn+Wo3Z+05/Pt5VK2eNQnBzkFG1PjJmHxgLpmwqsV7uRiIl6EawU4lQa+zLbjWErd16DCgErYuTh4mNmvDN6Xe8qHYVuAt7hsRXDlB9fvnTu1UetOOAe38k3/+y7P0zEFrZ2nXLKKcOGMvWoYN0IVRYdi+PxBqbiHWDeXBOPt+/oyzRRgdLRBx9wz4Hz079/bN2Wd/fmzV+gdfVKxYKmPjpDWJO2vRq0M1OmfSWLVGJRY6OWkDbPVGvjdvxX5/LmxWzRmRcZMv6c8ZtgkRa6L6JcjJih+/qLpaecSKkDujsVwVMWH+MVNwImGjrEwFIlt/ezQ/HBD/qpgWbHbxgRaaIHCgQ54Z/FgVxp6LHNZb/Q4OZh0t5BwUa2XRsd1B2bqmLJ2bR5u+vG4qaYbDB9sSIk6tGeYduRXUuG85aRPqRdHhuauyaZyTeWQJm5AG14aMwrlQqD7U3x6485bNGPI26s0NvXd5Bak2iNDWKRM/fu227rynte75ve9Ca8NQYHgc1k/epCqBBp7IDm5sWM7ktgl02lXC6qglkCySPiOX2Dg62JeCS/6sRDr3ry+W2/emFL94cZ3o9HleNhViSmIEyfnKvMEKTEDUNLnWC36FioBT0hBuWg1Be295TnO+U+LCPWJzzWoox5Db+xElny4oP2dJYHyhF/ses1s59T0wPRwTip7JfhP5ZgoDMWl8yOYqSLAx9lwdo915iFQaFBVsMJxrixhM57jQoMSIkFxo0NluSnTW+Uy655aBBBvHc8t5wq5wbuT6W9RX09/YvjsXJrcYGxJh5jpVPxgqnm8wGh7pq34tQr0DrRoIOYK/tfE484dxx60JLrli5o29SfyrZk/UycdhaFs7S5gWYneZ7XWCoN3HP77ZvuvvvubXDYCUalPW9JXQh13rx55Xx/f8nBCogu8RDpWGWE+rThgqGMhUtsLUuRF3sG5xywoOOZZQvbPvXI2i1ndPUOvRdxeF5FHIZgrXZ4z1s9hRwoE/2rCDUCAsdMBOsdMXkh2ogAo0VWglZLm/vd3H8f7mX6NxRKXS1ObhmoftKIuNUPyp8hCO8lBYgr14jQWJDfUK3sjC6jOl3VPYgm6cPJIKJuzXs9VM/tK0a2L2MGKAuMSmUDmq1KN9YtKixGRlNuRmvMenBGSl+6SrL7rsFyYfiw8XNRM3BHI3d5L9YYcdwDEIhXg8yNUGNI6VXpVaUyCjqsjchYg98oaFbFnblbDay0jiq4GONACn7p2eUL2647+pBlv0ml08kdA+kOVF1FJBtNPwQHG5iT0TRXHkVU7WJXV9eMV78uhKrRhjZtuv/22/tZC18MF10E1dGvrs9MwBdXFfECgMJQLtfM8kDpxGNW/PeWLT0PrN3U9ZfFgvMnGNZre5JGLXHWGeeuFvL0Q5xZSoZ5p5sfgkhlZSRRbdd+UaczReRTYfOvcumnT2rw5zl+tClryoifGWuGo97eBd9JRxGIviY/UHYLTWRUxC+fBjKigx1jJbJfdv4hjmZTabzUP19wthqv5G8ruBsO19nl5M3nIK+dKUbcVRchSw2tFrezIpopu5wsN0adR6QWAjNH9aPNSP2lhnIh110oP0m6PoatRkGEGKOaLcL0sMOUsCFqd7EMYceLKjsq75l6BMza1w7viMfAq3RLQ/TmI1cs+2FTMjm4Y2CgQ8SJWZKEFFsl4SlWMSApTMZ1B9j1sSWfSGxF9E0HBD9TNQ3ynXGED6uvxrzmjDMGcrHYWuSLJxiptvKNveDsuSdYgiWSgFNE/OjuSs3taG3qef1xK768YuncT4ADT0ZjcZLZtUw7woV5T/dVuKWDjmIRz2yDvfTv2GFeO/QEK++yax2bUFUH0RacrI818UbwPCI38KAkOYhWxg76AI3BX5x8n++WEuAsJxnz2sFItja0VR5s1IYDegOP5Bui74xFljyVTeYxLc8pb+U2UaguhailLABgwIgMltnEFFBqdZQRWVU+aGBhRdSUkmyn/X0pGoHI7UFXIyJXHmTZVYCbtvk95uTcC6aPASXtRa1pk2A/bmFjZbZ776A16YqibsT1f3n0wYsufO0xB93AukOpp8JFMWrA55pVKVnoCU/ZwCprnY1YZjzelcute/Ob36wzgiaB7u5VcHSqunDUqkKdiiz/4n333TdQ6O5eiAHlEjqmRYAAdpjawl1pfDTq5XPZQjKb9xOHLl3wh+ULOj7+6LMb/2zHQP5sgNMIUYhYp2WgEWKECKLRXUqjnlzR9PYPmKOz282ZDZvN0mgaQTJGgeP1CzpBSGtjPrrplZAsIgQjEItw1mc3FEwhdKkSj8BDO8+jPOgBq+d8P1Ir/oqceMBPx0hQBczwVnyTEs0L+bbFXU7bxQdHSs7/4gDmnaV0dL6bFsdi2Bk/hJVSmfKX1EcvJN1iZqjk9wDkYoTZiUYcchiRDQ96pz+UrsGmbJJU5Q9FJ7ej6G1eZkorxbXGLlzrzDFzbOFx05jtMb/wVpgtyXaTRHMcp2u1d0eFqYDgjpvpCWVpc8l165I5Lf+xcsXSX/vFotfXn22XSJdIRKzeJCxKeAlmliCUXja0burx/a43/vmfy/xVIaxi8DSDf+tNqLZj1Z7Xvva1Gdah1v/JySf3Iu4uASAL8a+SZMJG34LlEKz0+wzVTiqTaWLEdk/5oyOue25T1z0PP7vp38o+InTZ+qWcErGGFVAiEZ0gLYrXep6WCjDSN5GBPnNEZps5MdZtDm4f0jYNk8cOXMQ8VgDB/RiRUtD23UPRTcfESnGEXXWu5p5WNBSyjpU6QOMy2tpYot9pf1PS8xahYJkz5OfnFjlVQkLt2Cl31kR5i/FtLiQQBNxInCnV82XPdBfjZmHUum7aGXmMuwDbfDRHRdK0Hb8sOmcZdkldm4qyfGCmOpFSU4mpoGAo7pKj7071/Oij6dizhydzp1O3IIaNtvNP+LLoxM3hka3mgNI28+zAYvNEYpnZnGg3g25Uihtr0xmrIlrtaRMcw/Q7c6zpTlMttyHm3vraYw//ElX1hFtK6XoOkjszZ/AuxD+9x/tkCjFuCwupW1/9jnfgNmYEBx2rS5Vs2kO9CXVEAyDUcqcxfb/73e+G0t3dPZDoUrS8cwCGdUAtcVhT9my2GGtvaRhYv7l76dPrX3wf1LtAoz/xBNQReY71EMYQcQaegKRxZHcL47Zcn4hg28t5syLTa5anN5kDne1mXjszRb7lQHi4TAU9RuaufJUnSFpKRpzIk+nIQ9/NRQbfGy82Q+4eqkKnDPqDVMLjMddoIDDXLxX9lN86z4+3nB6DKCRuljCaUNP4LzqcMAh1C8Rfn4+ZBp/TmiCbHPx8WyHuHMVGlgCtQyiMn5XKQ55JRL3YkkQkumTQSXL8eZeJufLPNjZXVt1IZ0fMmBtJ5ED1o+LlxDcG4xtObck8uzRZOmyo4OPBkWlopSbVNVDds5CjlgGOi2w2K4sbzY70ArMxttis8zrMJpflHhR5CknapRVa9Ze4bEi0+jYZjBRHQXslcsXyYc9v3n7MYcvnP1LGnJvZlJipBZAVd3lBfjl+XTCOzVtTqZ5w43iQS/3/7lVCDZt74oknykxrK4YQA7F8fhEL54sBUrNGN9YHIvM7WnrWbek+5KkXtn8GL3crKopMDXyT9o8iSKuoqxzsDkKq2lAao9PnoxxaXhpkNO81C4pdbLnqNvEkSMD8KV/GQB7MksZ3PE5qiRQaaYw60W6OjfleX9MDb4v5LVnmmOXCQN+zvanuE1rNYn+ONW4Jm7vrlXEgy0CeZctdyaXNsFlJEJM2jpyEXRHqOFiKmo0sIDSRl9rZSOJNBc2qlcvkRBpWSpPNPAOHhgqdjIUZoaa/FoKj4SDUZqyEm5dLz7/44rbFMcdPNLS2RhKJ1jmsqt4z0HDXu2KDh4lIlaG9hgVVXS3hkVcGLzsydV7gd5mFuS3mGKfR9LpzzFZvrtngtZmNbpPpxv5YbRLRJiBXDbxqnQi3hlYysEtvEDn82Y1dXx0cyn31VUct/0HfYKbZD+hVOKVm9Xrx+KZ8JLKdqVpdDRuqwDLidlYQalgjTc4B0/O/+MUvelHFLUGztmRBR/OOR57Z8kfrtnZf5rL9LJ/PWCN+gDkmHutl2GXqOK3TyfZUndvETOrAcgri7DdLSj1mTnmHacRxQwTf8JoVlbw4mlNyoCvt1pcxSlCevLbYAT0WG6NeNM1iys93xNd8vzuz/VWZbamnevrS8zqWLm5rXnpabzLyqpLZGvVwewvJj8sdh9hqSd7IuVq4CH4WLmPUwb6v/NEwotb1FWNmK9y/hVxkPKHr+gLO0ngnLh0MVdUpx76nbEpEgOavuHLRmkNSs0rDR6ZyXG36T/sNi+Z0LDs/mxn63fZtmx8eSm3dePC8hS0fGJg7sCIWvfWNc8tvH8qXPMifLatUN2jTiJbpQa0WleTkFgtuztYAs6C0hd8mcxQi8qDTYrq9OWYjnHa912K2OQk2QGANReUSEK528yqoqsotuNqH6j8u+0Bk+hfrHsxe8suHnln6qiNXXMUQGc9j5BGPxTYNoeg8/fTT5XpnnCyqs6vP/awiVJoMbOyEaAdGErnVb3zjc9f/8PZzt3QP/JukkRIbvenIcfevhuIQvQCBOngs8PFUkDMrS0NmGYS5oLTDtJb7TKzMDJJ+lGWMxuQsSKAgv0VSYgSIFOJRMGLbB9+y3wAAQABJREFUCIoT3LhR+EwyHot2p/IDd25OX/FXN//4vtMOXtDSe8jrjjnosKNOa4jFjs2ItUQxCqwQSphjmFf1VQQVYoXQTW2pKZAIyc1sLyZMCgKVzaEUOw1cNzFLHizFzPxoRkqtmnIM5IeArKUxyVCv8WqiLMWA4q4fmdvUdGypofHY5pb2wXzu4Ie273jxFyc++oMnT/5xw9W//utXbT96TuKDrYloZIgVNhxzq6kMh0HYmX9QRxGsgnoj58i4SotiZdt3bQyuB7OOk3UbnT633WyF466H227y4L7s2hHcRLhR25dKt2sQDkGDGL/l3YwTf+e9jz7f9vpXHn5JtFze9sTGjUMf+MAHQi6qqoXV3DWjOr6ZbYRqgaKN5vJN88UvXnF6sVD6CqpyB8XRhAYPSiiya4c7Lihl4Jj9ZhGibHu5m3nbABNB+cpFUPISCNMxpr/oMgnBuAtiCndEvSFaWlwKYjB42Ji6imx1Dk0qXx5Y19f38y/cds9NN7/QUnz3O95zptfUfibOtg5UPo3MeZ/OF/3VyUH2sxTdLPvTJeKNDiEmiHsp6NkS6q5R7fex/ij+lnw8rLktRaPZNvLcgUJpUWwIUR6Cq4FBqFj9VI88lGg3GIyTTu0pIAm0eRl/hRnyf8uceEnUbc7F21c1NDavWrjgvCeX93X/6A3fvOV7Xz2t7dfvOPLE9zcn4q9tirlxduyqCDhoUGJw1Rt1QwAp2zd816gaTGCCab4Or2oq95Zbyjvc5f5T5o+Yqgw5bXDbuYjJc8wWt8Vsd5O8E0YEbVG+1YFslRlbGHMlN9Fw2p2/fbTz05+5ZLXiyLd0xf+zKjcrggXWrKhJpRIomGL88l/8+6+ewLTtPgwdYpWNxONO9ATNOeWMWV4egEj7TSu+hqKWMBHdGGWlOBIBsoeQzY/ZSDGXKTRHcNdgBa2gYNsj9CrEyFhslUQksajNCw6eKRdziHl9Q/ly19ZU5tn/+N59991aMpmTzzz7HQe3t72Hzl6AkosJYqGchIOuL3nOUq/kfHb+BtMWwd1pZUdNpZnDF9Uryqzy5h3LzK3pRjMf7vgiBNI5Z5tZmew1WbybjEXgykB1VgcKob/Rvdzcm02YDtKLo8oGbB3E+bHWXvPHrVs4iYmBYhyCI7rNK8a2y1/0Lzb/2N+OYqdoni555jPt3eak5hdNmvRWOFfkqiAOlqD+z2RbzSe6lmCzWPaxapLM4nron0WOxWx63S3buq9P/+I/7/q7483C045+w0nzGqMHJqORubh1bUG9H7W2iKpGQLEWL1nZslf9gbDsOKkJZiYy59BoPInainPzKEY9ht0YUxjNzgOLpz7ms1shWInIA0hMNqOqelfdAka/1NjYHMEt0HVsYTuXbzrmQj+hwqwIs4qjAhh7xgyby+fhOPBH+FqN4dNXElggm44DMnVCilH1SUbUhyPzUUrId17QNeJTQmSWt0tD6Wxk7dYt2VQhdTP+654CyWCrvm9VlsQDLSyR4u/IJu5jtH1yMD1ktvQNmMeeQ7fSj9JrSDqW7NGnvvPNH1y04LxIQ9OBMtBw8qimkdwymIw+UoxybkLBfLRjq+mIZOFMoe8hUlYFK6ZB1GkUV2sLcdYgg49iMnbgqIo71q2InDV6K95uoswE6cN0+sZMjyUblC80rBZuqjKYbgO9IB9x5bW5hHk1GqoAIrwYFTSI5DDFPjTRbzo7oubLvfOcrlLEW4oJYlRjm+qYSB70voOWXZZ7z0fe9cW1G6764g23fZtsWo1pbDRmXtwcv6zVLOxoOaapKdnIFh7JFAgtDG30nRpCwF0vN46TwxxmWXv7iQctWfauZBLjeVy/QMGe5GjrRo2rBqkkLZHCEN19kIEyGTuQv+MODaUKjY1NH8BX8IbPfe7jnfh6VvGzJtSLUC2ww1Zr0Lzsssvsu8cffxzv56sNzo31bEcwiPSmhoaGxZnMkHYmJKvFojCP0VcpFYT4Qhz5U0nws0EyTsQr4afJ69mwcWhBse/6ZdH8euTfJkbiIFIgUVkM1Z60QiFbHBoaSO3Y3tXXuOmFwcy2rlzr4gVuZMtQfsHhS5a0H/fW87zGltO1OTqfzRWz5DJAKYMQxEFe0Zzf3G9ObkbshkhzE3FE4kdZ+ngs22aeKETMPLihKhT8RoBsdHPDplku11+M+S+W8CJISpsDGchfQgODwAarUIpg8aXj1oI54FiZhaWpAzSwqQ5tpLk/lzRvKiTNPOa52XJkTK6qtHmI9YTGbvNF5uR3DMwxd2eTptv3Iq30SguL0zhUQuhoPvojRxz69dLy9//Xi3d++/odvcxYFzO3fuRXvY19SzLzFi9r6Zgzr62psbER+3gPjqp1mJ1BpBNla1zvuvtzTiHdumTF2ViWstNFm3cRZVVpgpLoaJAsOKGX40kkNnLwRzn7EGs5EU9cyiFkDzH1uhXGkYBgtSIh/LS5s1HcXsXeq0Kl5Ko303w7orTx87YgG0lcBnHeSvS7pgp8aq/B8/yRvhpWaVRNjeEskE80NjT+WzqdYu18Yk5aXbKQK2xMdUGUjeDqu+tf2IjHj65rkhF/PWMw4pZlpMNRpazKcxpUanAgtX3btt6hrS8MOqmeQryhwXdjbe6TL2zpO+S1bzpy4YGH/Z2TaFzKfk0Qwi+gXY0swYXZodG8WRlP///u3gPArqu+87+v9zd9RppRr7ZkG1wwLtgWxRjCn+CEmIRk/yn7TzBZYAklWQIGnMUQE0KWBeKNWUIILJsE/0MzuGDAxsjYuDd1q0vT2+v9vf18z333zdNoRhppZiR5j3Tn3nfLKb/za+d3fud3kCxpqxMvJtWmhOo5m7opKed3V8w87ZdGVlrPIvm6kEK6P4houLVjyLowPH5C1VfvRjzF2uOZJa7PTnRbPU2ELtgglYwh6xOdh6weX6YGoaErNJrcAJ/uCHaSzvdO9llfSrZY53krxgA1wDj3d6Mp67faD1FXexZ6JsS3c6VNqMFS8wdKYWtXLmZth9D3Ie0HKm6iT7jKfrfLF2ctdiWX2nbwhSduT774xNGlq3pbarkxFlUVXLX4En9L38p4R1dPmwiWFVYo0g27k6Q98tPjySfHEx3LN17Q0rXsD4RfmnaRZHR0iilcEGacPNl51JiRMUOtUa8vtO4jH7lZ2tNcklGV9eK2bZsQPLN/4uzI4LwxV/pw2mP2Y+ntHWj81taFTxGtnHs1Cq99+9s3aS54Lm126jDjWYYiGGCoWPREmSaN0gcQTbVNQxt431J4+WcgGu6bDUnF6eaTjPfc4MCwlRg9+s/RQPHFUtnTAtthmoCuJWcciuhdLV3J5FOjI+PJgX2Tw0OD+adTZqgnTq0jb235nTf81rKeW5YFPd6lVra8wldy9/kK7m6kpsagEY9iQMiJzp7ScKT79MoLgDhbmSkTGbi/M7Hc+mY6Zq1k5wtNq6gDRKifhFAvCo9BqDMboZSv8gkiwX80sTT3P1OtmeWSLaJPu5dwinZ5R6tu3yc7ByIXhCe8mVnGmXpd5YpQfwSh3gGhboRQC/X6jFKfDzNWvYKxah41XQxCBN9AFlWmnpx2+8hLJCJJi9eVNY5Ra5jjSDFQPVT2V4dcYe+hXHHyBzsPfcJ66ntP87nMu5pG9byq1fK2dS8PtfSuaou0d7X5wuEAfYUrB5PLvESXiVi9ueTYxKrzX31FONZ+E3YMpxn1mpz6iVw1RMbXPuhHA7sPrvZPeFyjvlfwHPQkqtVyKmwF0rVQOpPLXY5n3WtlDphX0nBPW6pIo+zvX+pqpsF6xtoLuDwTrE9asDKPx+OBfN4frlZdrM8rRtFT4vRJHCRBY3K1MbhoI6M2xKlmDNoBAPcYl9RqrTC+KM8j9GNU1lcYpMaQ6gBFyRewREPzIlLysORYncnkPIf2v/TTsCd1b7XmaaEMreRx4ZOqbUo8bGVQPDoyNvK9n7w4aFnD4qBSdVR24A8v7Gt53cpox7KuZa90RXtvXhos07h0OczSRElDAU/EImOVkNemDxvpedRIui/fDJ1lkAmg7uaQTvdMLrW+no5bK8hLZhDlp2Ocdz9hjElIVAhjRikIR2PcaD764XjsG3cmArte4S372IpCtEp5bhdxTT2PFL2Vf+hOvv5VrcXrkoUq4zlj7aSUY5PqJmPSjzEmfSHRaghVa340NhJANPXzn1tHrcujI6aOGndLzpk6z0C0yk9JgMQ/y1ZBOQteGg6kK75S0or7juaw/CUP3rF3eHjXD/eMjv9w75j8JjVXbqpkda1o++2LNyzt6Wzv8PoC3hLm/wLOV2ZtoFF3S+OrN13xm25P4BpWwYipOgMZLk87VYgrzK4KjO9hffaBdxZuLLQ4zUWGyqVo+yRn4cwEHQEx1yZo7ASoN8E03wSVSXpr7gQr61MoM5lIxJUBz3PNW4nOtYaCsyXCw266xO0utXm9biSduwWXqlaa3CrCA7ptdDBExzVDF6wuILyIshaDuqJUnOVMLr/CKEJ4huCQiuYsglGSgBT9SYuZuhY9qkPMYFGz8nrZDmGnJ/NI1KdCHTwHDxw8Wkoe+gc6WV5ipr1ga+1IqVa4fzAxZj20DQLdl10X80T+7Krzes7riq/oiQVWxwO+1QGvZzVL7pbEWbSjKQEagM+Oh4l72yFBlTWIauppSxi7tXbFTWH80TjJA5JqPhVPH+tgPmbdney0foKhZhXqrtiy3XCCoCDuwyy9+VjXYdTVrFE3ZyHUCgucPZmylf7HkdjfP5rzJVb4agHCxBmpoxrIGPRE2cp8oi130evb8/9vHhZFvynZf82l/Ue1ZxrJei7bYd0y1mOtdleY6LIntUWsquMQavDvRFLWltiYqZvqJTVX7o4iwOa2K1cVonuO7NW17kl1ZtUKTKBMH2E8wq83VWCSvFo5infW/kS+tP9oInfgucHU4Y8+tHOYTwD+pph1/calv94Zbev24HgNPgnfCIZtrVu7nmiuvX/Bra7T8f8m/5mSmuwIDMNvbJzG5RQOOXVt47kykKARvgu/dRB21sQo5pHmZbW9ZJrHaeCQ4N1J3k3w9QRvT9pnvCVdED/36SneqaXJY+zWW/982HTYZz7z5Y5qpfxzMtvMUYDYtKIdolMlpirCM1MRVcY+7ArZhGfuqS/UONRk+g6k4wvKcM7mWmXOdHB7wZIWcbNFY9bVf2DXN/zu/HaMsVqZD/ikYzGmrEx4N3iTkb6ot681GFjj97pXhX2ejkgI9JYfPA2wCjn2+yxpgh6BCVqimwsd9ehYtFRzZk6SOlL/EhXUvkLYegYf8IcwtORB7qUIP6mX9VQLYcl6EfX03ZHJ2m+0HyFQmS0cGm84b3KmLhXmIz2DeevQrQOt/4RDQzXqrnp0dl4jarR7X9kqviVS7HlnR+rdPuxNrHuVcVSId0ySyirVPU+ZX2TM/BR+wyuon/HU4k3VRB8dglhXcf/aUNa6IJiylvhzVtRNBGAYznGZHlOCUEPJhhz1B5LgFkxakAXkHoVyYdNbFAKawAYGk9kip+pArlTZP5Ev7juSqQ7uKLfm9rpjBGjiW3WozEvuyvimi64+nzH4n2helEIWQqqa2poaQzHCd5L+qOYcgrN+Crcd/DavQIP6wIBDI6smonaukb9CIlrvJOXvEDjMhmucAXDPgqoeeO653jcbqy+GM8JplZeEQjhh53I4aJgXWSdraqeOdyrncGQRKqWoSqbaOjslq7/k22l/ppNpkM5TFdOvRUxwao83k0oerJXTLxGfiWVjWu/rduUJ0lsY6U8EguPuSizUOpyuFSdylcOA9mEaYWqtVgWsQmnAu/bGqi+8AbsTTojM9PHYWBFphqSCnGB1VoP1zGmd1OA8B+tDrQkI7yiW1wP44R5hXlIE0QlSt6Lu6h3zLdBUj24ve6pvCWVGb2gZ6iBXFSV4O9keBy49SJY9g8+U3bkrvdUQkl591Ui0uSZdf3fRMwljGI94aj3qU4MjjbfsC7VD0jHiLln/oXWoemi0r9xf9fh7qKfaI+wXcFZDpCmI9X8xrg5nohBt2VrhK8N0SlYL12Gea/WOU2lBRcxK3+uufW2f9VsckDMjKBaSl9NPdBX3PIA7Q5g3RK6iEPk915gxLVaLpZQ/MZ4YYaFVawdjV3nCaJq2UG6pFJPPuTytRxEyfQqgTnELNqOhOpCfUv087aeBjP2C/YohXN1Q1bVRmSAg8HGI0YuO7Te5UGbOYaMSHcT9QDQStdhsuZvtQLFfk9jKgeysDPt7dPCzyA9pTUrqUw+ZclJeFKMSTDr299R95/lZO4OI+KBqA9t8+kVIAx98Fx51rNLI54uHDh8eeujRR4e/aasjwh8bh6aqK9U7bbVds+b1b+65OcCyDuZJp7XaftmGwNSHzVf6QIdYe4B+0yKWTtQ9kaoQVOqz7ivnJOPJiaqr8geRxP63t/d3oM7AODVRVAc63zYnmqJnnhwrtfcVgrsZKFXJy0VkhmMIVa6UOEB4f5r3pf+/ondPT6Dcc6wm0JyrzWxk2V0RTLlv7T5Y+J9jfZXHSoFQD2PXiHCPJG8lJL+1jEPU0I+b4l6YUJEWqnBh2mzJzmHqafNviM5K5sPdv/jXex8GIhqnau5cw2OBWYeyFjg5doauv/bq8ore3i42+WLa2+tJjI+WupZ3/zJTqNyE0Uf4fNYShTuo4Zyb6mKI0Px2qmgI166wbom49bxQLBWYWq9lMTYxqichY1xeIv9J3WXsLGA04O1kpvdeFolWas0hmgHDyvRBLFVqi7tQKhX2HT48+PCjj46EcX5oC3gDxMyzCBqBFNCuUcagxaxtq/vwgcPVa7aseUtrxN/CNguyFRm7TXP7TwYXp4f0nnMYbOOPJjkkTQeRsCVY3yt8Zdevx8aLl0TGlhMYIoCxZFYiVR3IokooUM9o0XXkrkRozxZ/LWTi4xLVRX3oJFSpGgYldw+o/Ggm+OyyQPLVtvqr6BGIzxmSNAPNly7x52Mf6j5Q+UWqq3ZPJu7aR13l6N/K4eMQgxEfEdEi/gDRFESmro4vQDCYngzfYfJ8Wdi/suetb75+693/dvfaNWvaismjECr+viAlLsK1rHb9A3qj2ULpgYcfHnzjddfVVvb1dUt7mkwmAiv8rh1JNqEHBWC2RruYsY3Tyz/bv2chbOhRbN3WDBZMPTjbjW2Uj1qhcTWj0UStXJhEOyKGWrlyuL9/GCIdDSiQGr14NGu27yN+iQSqjWWecMxVGTosQeF3BcIbZfDHtitBIeY1YxJSTke+ZkQVpogwpSbLMZ7pEmscMpF0vSqQt64Ip1ybQ5O1Fm8pJGuotnKdTZLWK0D22uPFbT2RCjx4b6GW/V1/OTIODmuaSQ/1HsWhRGBRY0H0ee5y4H0T3oOvjgQevyhevjpRNL5YsyKxiC4PYQYY876ptd+6ODxpPZtttR7LRazn5EABjav+cUCjdjHuheWhrNrlmmpOh4m5OcsfKYMUWZbToSsYPw/r3t0TIxOlQpYsK9lpXyFJPJRKPM8fb906/JbXvtbT0929lC4OEDpniHzSIHiUkU5dME37/GX101aTNXVjCJUAT6woFJhNMh3t/Hg5nlEl6C9CE1TLRaJCu0fGxyYe/tUvR6A2E/fQzDbO0LC4J+CawCFv2dKVEaRyNyN6qfrKbtY00yNRtQaY+k7GomHGqrLjtyB9LsS18OJgzjoPx4g+nOXDjO2wJLuyFQz5POebmbJsLr8SD/u920ZzP77x4Yn7f7OtEvpltjCMsldhWaCMK6b/oEItiMYdw+vuDfp9F2JM/4tx///62sWBZb1R30osq6xBMZvENOfduFZdiLmExPcZr6Q3tmatK6IB62Aham3LR6yncWTYicorZib/YknbIIe0Nk1cNbCpkePsF2qwKq3hCVst9nAZKKQmKrFYmyeVUqi1Y5P6D4brQtIWn972/PDVgVdFgh2tBLOsZlEo0vi3aB7ewOHYL1+Gv2hFQ/XF+4NGy6XWpJMhivPeOX0mIiCxqLBvM5G6e9/B4WKxQrxkxAudPGuy9YsaG42I1nwn62kByjmcPCWOkxAn406DfL2YSiQ5NwVy1ho8l7qZcpFzhMSZjDdylleCME4Ed+G/eUFEemA8/YsLvvSTL+izh5nLG60Tp8lohj/PcO9qnAjun7TyXy5s+OQHrlr92a5IsCfJlqbKg2N6M0wu6PskfHlRhfWG6i1vqU3hCesG1r/24330Epbs7Uwz7UTSjkoK8x6Bv41K3KyGCJbOYTKf4Y8Nb2MfUZ3snzO8p1tSh7ERugYGhnO79x4YicU2t/u8ARwD2IH8/6KEyHERbteWqB3hQGCwUMRSa0sBYcXLOakdSESfJgwO9R8ZOzgwqInmExMpDUZ9UrPdo6NDGNSqCgNpK2V1YAh7HEmpWzIIaWZe4005Byh1QJgX4k643l+AMHNWL4QpzyV78bZsf/Jcsq2/+kKSa5bkEKdEgzvIiAUrgrV7OHnPxi//7Iv65pLOsOfp0UKNeV5Xg83OkJmsMo9Mlsuv6w0H/vqR3YcZrn/wg9ec94mlseBGsz60wqp2KSE20aqZxySnjpouEmXr1bi3iC8za31Z4fNGCFmeR0eKYWtvMWTtZsndgTJTUrRVvE/jWElbsSRnBY4aZazATSUJHvRdmpOKwYNNSvXsSes1cFqynt+5LbVh3Yoy/cXsbzUIFouvnJjSZ8/2nHkiBKBN3nQ67bdliNbaNvlJnjM1Pc2KaHaNifRYzeWrbf3VE+OdPX21bGripLlhVKsFPAHUrck041qmbFzr9JEjGWSClKRMoxLKEZ/VMvjXVq1NqLPrcEZfheTsgzCFwETxM+U5XkvyRFISAplUvxCymiSUtC+rLBbQihCW9ri8QSJrcWmN54rD20eS/3Td1395H2+GbSLVBBB1MlOHJpcZ/4iIec/1s/5U9dreWPRvHz84zPGBF/90y+/3xUO/wYLuQBnrUB5GBaFoN2eUWYJBOrnVL3RSNWXUxMvLMCndE/Et8WeNKn8ZjcjS1rFSkIiMYWtfMWjtxY/5IIR7FNiJQLVKqFnqSmF2/FOxdB4ky2JnZ294YmJoDtLR9E41m00cpuKr0HjbyU8IDj9RbV++SQIHcCJj2EFNzWClArckEkzbBPuXczKSk8bFg+FWCZNMOODX7MhJe61QyNZ6enq9Q0P95Wwm9Vw0GnstgPEmAQ5L53A7BCGZV1zJvOEqCHO5P0+Uv1ydMG11VqJJErPZWUFS2JEkMwJWkCdvlGU2evK4fX6i4zKXncgVa6PZ8t7+VP6hTz+4475/3zM8/JqecGt/qlB7etQm0jlgsilS7wmlH+5Pla/oCYceG8pWLvgfD/39f7v+/J++ef3St3RE/FcQVmZJKBjEmRcXRzbrkmQS0ESYXE5BcAYMYVxo5rn0KAKTagkmrXUsfbuGbzNV29d3gFU4hyHcA4ZwvdYIhjVpJUz9sEeE5cEF0EokJp8nCwJjn1wD4r168rhGdv5y/2TqP14cCARdbIYs25ahYOeNl9vZQNz8oebjddOvGgH/ITIiaCb7gd0tYkhOl9QZlHrsnE9yFSzTYd62js5V1LaEm1mIZXPG3exktWcsK+NFKJ3o39He3jmOcaP9FezssM5f9Igwu315JvaZNQQZ5RYo1zmteUzheSRpAfxEcA3AqbxjfzXXwCYEUQMIy7JnlpAXSiO+1OAjYzn30I7J8v4P/Hjnzv7JyTG+Cr91VWvH3Qcm1T8GC+dKpE6Jeh/O5RKRrgl73Od1xzo+8MCOfRz/7Y8vW9/39vO6Nq6N4vgSiF1Y8rVcge+vG5VdRq66K8jsvK4ZMcSktJRbSXq0XCd7MZz1+dPWK8NuCNdnTaAqDyF1D6ImoyrXBrUwsZTfNz64bT+fRFKp9Bybp+m3SuGJfqv/N1O5q+l3Pjf+3HYF+HUuJwgLdDVwNX+kB9Trq+D0xExlEptkGoOFTHsotIXDEYt5Q22AY78tOYsaqYyUl5BQ1/XMnQxPBgfTh/rWTvYF+TTuOE8W6qz6yeEhGIpec+WVr/nXRx/dWurs7PRCsCesM1LYSqJu+WPd4ZCfgDpW8RcouG9T4LFDJX/tKEvDK7W4mfQvQooaQakR0hHN2PUkDWguXNciYHPmjyaLFL40UakFHpnoGNz3w6//O6+IQFvfurajcxJGcPfhVDnMFJLsqjKmMO+E14sKPTlOq20iGaKYWm2M1/fxa9+wq/rmtb3x/Hh/8atP7tnPsc+65G2XvWl93+V9QR+BOiv4Hcv5Wn1ut1U1Vpud1Hzt3Gs+i+tJy7DnXU0NjKOHkycwJBYwm8iJtF35h1rjcb/lafUVsxMlZrbB0hO2rcrO9eFsNrXtv99+Z1+qlHsb0pQSNY+6uEk4Zpdgn0Qf9TR15dyZdgaWMnA7oJN1XjSlBJDlVsn4vVoNBYJhK5NOxq32OqF2t4XZ7Lr0dxhT1npxBCCkSCvTeYTrrEYoNQKwwwBSa7GDZIa3Gzt4YVa1i2oauFO6/pn/puY2getGnWtQIa7MS/KuUWOPbRfPFkJl8THeBKkjK6675oYtEOr3otHWjtHR0RIIe0KjktAihsSMhNvbg7XU41hl1x3xhDbvIrQATupe1VZszCbOqR44thVT90905fSU3oEeNPtbY0vn+Ot7ut695T+897dL+fRPRvsPPXj3L3+2l1fk2O3BB13MFQ2ZQNLhOJFVYREwEnsQMx10NpJDzDCuohxbaqj3VcaseqBBdPnevRPu8zdc0P3bV1/4+mi89QZ3ILRZC+JzTPWkIR3pF07bnDPfnVJy2qnvRbAqXHgqOLKgvBrFh9Vbymz1WdldsXh3m1V5MlEWY1Fz7CYcVx7tl2ueKx6PVcbHh3dmyoUvEaHBz+JvDck15Jlv0ny2+My0BKtCyAiJpwgOGlAjdYM/5tq+Mt/Wb9hw5DvFXZb6hRBU/vRrjV1ErCw5ZyAr5oFdSfxZJvH3Kna2RJ5mZ2vFAbCsrVu3xtpcpbWVclUrYpiQk4RlG6ti0Yd/DzGLan7CKYbyhUK4WKpEiqVytFypxghDG8O9Lo7TOl7StSgWN+Kj1iIQOQ7wEHe1hgWuFqBvsLtgE4G2FdTaJNOoOhLwspKkN8DXD6dvzf3T/MP0DN4N1erkk7965I++d/e3cytWrPYfOrRf92ckVu6b8pd2dwevveJqQiFFgoDSV3S3/YnXG1hSLZvpjEVVqcTDAADeVVr+RwziQl7awfZ8Ift0MpnYPjLYf+S5F38ly5gI17ZY2QCaDWY2cO13hPr+des2xfuWrFrS0t6+PhyMvBI3vItQGdX3DE+lWUvdcdDL/nAh/6qiQlO6ueL2+r2Vcm6nrzr+TdiVb2x8fPJ7999/ADyYlanW+6m8du35bXv37vjZ5z//P/rgy09r6o1aC4Vng8WcmsHHpnIqR6jYgMQMOIvkM3hLmVqIQtBul8JG55CSIjr2prHS8NQUNsEk+SV9XncS632KIVUKD400v7OhoC/r9fgLoaCrqL1Y3VAfRv6qVgdB0eOJ/tF9Bunk2zw8MmGWsFFJcLsePZxVTpAX4Sk82ZgXB1DWeTPlWlEmFA5jkBuwcEVrE0segnl6IFxvrlDGilgMlMq1YC5fjLCtOAQOcUPMRBWMsSKCCekKxG1xT9c1thWoBSFw+ZB3q9FkWqdork4vsYy6XA5iUbrkVVe8H0L92NGj/WjAS1yjo4Nmi0R17EypaO6zfINF17AtVikk/rlUaf1Dj9ePU3uJaQAGYXTfTN/O/57J1gVxQqCIDBxZ0Qw2Y9ja3NrSbvUuXZ664KJL+3neD1yHIKwxZH0SppotVcp4J2ntiQaVVWk+/gBRwLx+f8zr9rZjNOxiY6SliONevHe6cHQx1WXRNf7eMh2bsk3bmql7/m06Lgf1L74YEGkp95KvNvmvQNMoFeAAcddn7hfl4hApTDcOkb5EWNmx3bv7f0Y7xWTl5DsvRjpF6Mg3mDzCBWnnylK5LELGEB18PsUGzynIJkVwthQrryA8T8bvc2f8Xl+WvX7zxAfOs+5T8YMr4ZCX8aZo3/iNK+QIWUkYsn0fpg77XPYQbdinvVgd+uMDKW5l/7Jl9hjVGh/HI0SZVaGbapVFswayilRP/myRU3HnGdgqA08RqcNZz2zNGVMKagibT/Cmliu7qnCJSigYoTHVRLUSgbh9hri92qiCDGk8iEgLqCgI50Xt9nHtY1jpeXrXgduYXNlchiCoxLyADuJ5GbMAqMiWW265/Q9vu+0jXw2Fgr1tbZ2liQncBGZJY2Nj2HQqWPuxrrndbLBWSfgrk/9YrLX8ts8XXFsuMaK01aL5MpNZaiA2YBgB7WdZPhYuCQq1B8SIQWAb4dgbgSZPdVBTw9nt33amkgRwO8Y/8hlVdjr0vghBB/OQYjrKV8Qp8XEGEnO2lAXTQ3pnn/VVJ78rrOCOjzpVi4WCRHpFnkfwqePqwzuVpUuXRdGMsIVaT+7ZM/CtcDC8OZvHyddey3zcN6d2o1Zhwbg3HvZ+bU1f973A1Rvwe7LQRzHAzp8ItbIEVQ1cZucso32KnQqXuX0M4WXKZeITuFypXM1t04tq4oVeBHMSDecjQzty/oSzGvohKgELn6FSnkGTBggNQhDz5kXz/VSm9Ze5C0YSDtdvCjAqAXFv7CT/VFuFBhXMgiXYmlfxrAz3E1FnUb+baE4VbSZstZCKVNraQpNr+7q+tOPA4B20z5C1XXS9qNM7uSHWWjwW/5O//C+3Tfz1Z2/5Tm/v8qV+f195aOioOLvdaC7AAePtAgJXUslktqO1FbuLAtwRtr1WyfqrE/9cKsXf6PYEX6PvgCFAZF7CkMTpVW4OX4m+AA/VpGMrVXoKfqrvYHl6pgemDuZHvQ/t56ZNGsuJn/O2jSD172CX9XznUIn5v2IYApqMgpExe1JK3xOsJn4BheIBJs1FXqzVygRwp6wqM4dyEZxebHXZspWRI0cOanXNTz/zmS99LhgI/C5RQUqAAfuBjf/TP5rrb+BRJMAA6xgqz1563vL/bSQPGiJry4z0Y4lksFpgJ0sSdUVYNQFbtv8mgSUiE3pIcJnD5zi6Sf44tENDoR0t22b1fKOadr6GCWjfYIOfhov+8e/9XgDiWkKGQQBmEyOf6Q1zoCtjmrIzpZd55ZijUYIuqDvtsDkFSC5EhwtVcDk1B6Z+U3FZToQ9ECyW1Ko2EHJncoXo0s62Q8l0Ls2uh69WVet5m8oeU87cf+hb4FFxEyvr6ssuuzJx773fezyTSYVXr17nmZzUzoJqpkBhwreIYGuM21xLOjpiAeYV4aqKFiFkqvlqOYWjg8Ldy5EKhJMx4yHlIbjNp558fpIkSpTNqS4B+aXetWUiMOf6uEN9ZXeJIzUNPzbfnaS0hXjcqA82SPCYCa1K8bC/mv4WbiPPYuwlwqTqVZXdwJ1MpTLPb9s2gttnWY1EDaZXZE83OFmjvyRJpQr99HaIlHH1h7HkC/PVeWrTaSdgxNjQ64eJJDetXvLxcCiE82kujorp5A0KQANoLg7xqTk6EMDgtldtAA8MwNVuvdeozxTNiF1O0Y+IW7QF1zfI4yC8PhSRIlEzWA2HVQlLhArvWkoGZmoGAkKHllXX7mJ86xxbtF43yRRA5s0ZO890NhnzHL3rGAJvfsc0RKhH3XVQMUIqV4LLetqfHxwdb6+5feejjaOe2QjZ/O0pXqsTYYJVdywWv+qKy6/xPvyLn/wKIrU2bLgwmMvl8WcntoGgzraL7BPvGkb97VmyxNcSjSrMjIAr5xntT0zAytygp1Z+xhjuLHcvUkIskpZobK3D9NBUL51iZU/xdVVPZc142M/M81PMdj6vG8ISHMTgiU2Fuwdxg9gG6wF/bfIHTJiyRsGr3chJBq6EaC1VD7HCaduuXQn58DIcssej6AMMVTx9fStj+/bt3nPppW99/n3vee8/Mivzp9lsRiJXfTsvIuV7cMxtAias6mv/xNplndtTObPzPcRLl9fxk/eOIT79VhLhidiUZiI486D+Rz5Get+5Z64RIjTW0Jv6y0miQ1LGHQoNGXr6j+95j7uayxHJkWFBtZqHO2haj1VZ7BkpsQanMNAQ5XPUCzKTP8qMQs0hDuAkWI/EqvOuqddciBsuKocFz/IlHY8dGR5bjT1ktU2sxlzcaKDT0FM4q46SrBbEevFVV123mnY+9cQTj4wvWbI80tHR7h4fHzM+C1jemEaoEFQ/X+7q6AhFCEtHW+rQlQ7pIcYzgxcru53RxA54IYzM3QHBsqcJxExCDGC+Vh+faSI5BYgs/KsaamnaFOpk0wrwgb5LumuFX3pr6e94a5mdyEhmATza+wVCFkuz4TM6MTHxyyefZPEEK0/BJwNCHFfWrzkvksllPAMDhx771C2fdW26aMP3MK79GhqRiMuRdqfdEhCKfOStSWiczpa/fuX6vgcnUrk2rLTlueCr5sWo65SUVHsk6CA8pen0wbMGDgMfwQCZ7VFUzBKjXKbn2VbHzZY4BC/A6Jfierylu3vSfKSCnnrqKW9HKuXZTRzPlkrFQ7Q37b7lITyLByJmDZbbm1eDSoynmfciQ0xYZWwbXg/WRxmSjZ6reR2IHMomqcIk9YZ0cXNNzaTfN0MWAjeqAjqn5fL52A+k6A36/QU18rEX93+SVY+vZvtxAVQLB475tjmfuVwbMMJ8QsRkZ2xzdHDg6Be/fMfnHuHb6PkbLgzt27sb+2eBZVQEY+F84aZNra/YtGlZNBwOySIJQNUMqiEGJTZaZpqEfXFc4aW4WFyMf/FFIGk7bYYrmMh1cH1TZTGKedV9Lu07C++o7xyiQynBZoEmVauUhnAQfMZTyz3HfnqjoBL7SnAAleY6AhTXJG5ITzz33OG9Bw6kpNVoTB2Pt7mXLFkS2717x1He3377p7/4FmYNvgQ+xum3hZorZQ2sGy8Ql9XdFvnbKy9a/f3RsUw7ynijjnAaeduaKs+Gt0IGk1BjzWAWdFeCiIX0mnxgy0l8N2A8RGRT6E9spaUKmptWuZddwWAZoaD4R+zu7qpAnVKjFQmRpX6xyqWXXnrq4UKpkOuuu+5ya+lNd3e3e3h42A1heRj/uSncE4bICTnuZes6L+M7DzPsCkvoBb1ZvGgTOTZrGYA9qLmEQ5fGS/xDiBtwCCIEqJMYR8f0ewoi8kdf2PuXlZrnWojVIATvCOnnmWpFrHt+IRXjnB9sfeTn33jwwXuGyLRl+fLVnuHhIcqqUP2C6/KLL24/b82a3nBE86oSunYSwXJl96JVzdM9sBpva9UdWsf060U0YS3TIWK5MCf6HkK3vxSzMTT7ciPcett1skdDwIDeEwi0lrvIVEZlt7dWfMFdy+0Dfhh9tObVHaT/4Wz2sngBQR0oIk1kMpkXd+w4+sLOnVJ5QYKAhetm4MiRfbLivvDBD368pbOz6xaf1/9bzBDIfiAHAfkJzjfhUwElwUx7u+OfvnTjivsnE/m2Y4gUomG8Y+ZRDOHRIBl4sZJSFcK4Q3SG+ESAOvx+aQOSjmU8UyqucLjMsi0zfqVtlcnJySo0U710374qofdr1ic/Ka7fwKcTNWg6opjfphuO/WpOmR37ydSvZuIeGRkRkbtj6bSmfIzkDsdinslk0hOJxYJI6RVola0CDBwMNPcWUQHKT2w78J5sqXqjJuTFvch9et2nCpz7lTHp44ameMLjicnJb/zt3/3VfXwuZ4JIb+9yWVtr/f2Hahe/4oK2TWs3LI3IadgMS2zRKkCrfdyD52iCtUpYIa3PchM/399VdQXWV2u+87EYLK+PZQ292vRu2jEdtsprIdpGNqedqJMB8fS6SUOCd5pRj/pBQiCP+n+QUdN2TzW/110rjvOCLCMQqIfDAKvOoGzAkYdpH32e3rZjR/+2ffuSK3r68J6uefr7D0uaHbrhhl/PXHvt699JNf6C/onSP6rLsSZTZX56CcTyu4krkFq1tPOvNq9d8vhkGiKFEJWdOpSGDrkCgRF+lPO5XCUWiZSzKbaLRtoFOVLRaFXSLpVK1bZs2aL2zZnoTlBlAxcD+amXTB+cbYSYqk79ausDD6zAc2ojNoSAuBm1RJmyKtBH+okdB94xMpF6jxAF4eQw5uPyOMUbBsioGibgMltp7B0eGvrfX77jbx4lH00VBLE2KoqhOxL0hTeuXd3NtE0cFy9ZGcRPJPSb4IilztCwpGe1hHbA+nCItubrrLj8K2su/xrc3JfzURu3NZABF2klSM935qBMvjVEXG+KyZ4/CyaJTeebImyOrgpMK0t2EzNqgW1AmDxV/dAZGIJUR4nMeBjVdq/bKhxyVYsTSEcgQYBeaU9mplySYkr74FshssQvW4eUK6NjYxO79h4YZt+SYhmt5ciRg3LSHb3yymsLb37zjdfAnD+Es8oa+e4CYzNu5fkCaFIWsxA+Oqmyd9Oapf915dL2A6OJjBmTqo7S7hhyjUcCgW2XXX/9XLe0qMNu8U5NCLZ4hZxKzmwa5R/ev38DCL5CHSvg0eMaB/tX9HQc3rZv4BU7Dw79NXl2GCpZmM5TFQ3Bog5LFUcdTu0aHRn5wYM//8ljL774tKYEvCyBi/R09kR6l7S397S1taDaG88QUFD/QefjkjFnqxFgOa7CONwaXPPgQy1p6+tl/N2H9O3ma3YWcEUhXkMgILyh1eOIWHk1iKtBXccVfIIb6nNlziEIO8SokZq5ZZcLnwG+TJCzJXutOs6Iewit76i7VhpwVQujTKoh4sz3MDG3iJOkrjq2Tg47NbDhR44t44fGxiaPDo4ld+7emUddFjFMvu1tvxO65JLLr/T7fH/EtMvmEnv74HEljQc+bfgEp3knTRe6Qz7PfTdcvflTiVQ+kspm43gQiUlgccBYwo6RuILtvPJ1r+tXg+Zd4gJloE4759LW738/Vvb7z6OHumRYQv2ttreEJ48OTyx96fDIWyZTud8ESWI2DS9YJzpwMOoPYwoGXiyCzqYPJ5KJn+7asf0XP7r33/fxkrh7yzVXXNWFT3BHFLcYrMcGD8FVVWkmglXegrWIUO+g5VWIWYS0rSM7Y9oY60cgVk87kqkDw0srBMzWhFaUd7Se1uzCIau7Q1B25+nvFD5NXXGbNNXB9nvmueEb4h0YfaoYM/BNRcPXXiJpjLFEaK/gS1wbQ6UdZwXRJGKUKO92rB44j5dJZb/Odgk2g6tfN07iekoO88J2Uk5m09lDRwcnn3j6iREeifkVbr75A8sYYrwWGN4YYntGjRmxCyhwhga+9fE/VwuQaCfNZ0sHn/vFnrbYv61fseQxOqQqYsXlr8x1EXeS/dVodP9rXzv/fWUWoMqNLKb6sXHr3Lj41U9+0sHE9+bWaNSr0fwLu46+cXg8+QfMSfeypbu4vXDBwYPFqLS4uVt7kGghAS5qmXw299TIyPDD9937/acO9x8QooWvvvzSpcv7VnRFMSOLW4sQqZqxGk2vXJ1IBXMdKA1SBU1TsFFAMDK2MBOn8Ap6jl+LH12MqQw3UgvnAAtJ7NJmSh4cUxQoweUnCyyphmi0socJS3LSH+MHgZUavwEIEHM6Er1Wk8N4kRoiQVgLTwA4dmLXqo0cr/CsVhQDoXTDrPhWdTTGQOqjMbhpAtdG+2hqD7fsZBcPs0LFFdMql6uVRDqZ3b1r+8jzu/fKgjvxpjfdGLv44ssuiYSib2CK9TWBQCgmAoUpC+biJU5caTvThf2LSyvjU9CHCDa/WN3X/s/rl/fsTKTzESLDDrnaorsgUtkozql0zhHqreyDw65Wnq985WZFBXff9Y1/venw0NiHmV27TJBjykPLQEUD0+lgMQAr6WfmlTSGZWyDrUuBvfNDSNonjw4c2fqtb311BwXnVkStlkuvvr67tbW91e8Paj61jscaTUO4IIZu6K4qWn/owF+3DWLrWR3ZGSppzGQcuDQtJOELgdj58LP+rT1XDWWY31P37TJEUlpYpext+poq2xAeQt4QNnOfTCiI0ZgZfsprrqeIR0dTvZHGfKgZKr0rwuSx6RPqUIOxFceHhyZ+9POtRP+0xl/1qms8r3nNlo1tLS3XYQm/GgnaB0gV/F2WXGkpciiR91e9XdxZvKTymGX005+lQlss9O3N6/o+d91b3vIC97WFoodDzMq0efGqMfeczwRQ5lwbgOPnMFz11lu/zdCh/2OA6i+x0PmQoiCb0M44FJzRelMu+GOkiNoCwXrNBkVCskK+MJTOpp8dGxl+cufu7fsPbnsos3rVhkBv34pYJNaKTQI3Gxdr1khGBwAhhcj1UwMRwHfSMQ4itLHpt8OWBIEmotNXpEY+9s8Z/zbBrJ5vU576Qqyi/qU563e9zo0M1Q4RpRJVMdVWe1iVVs5ls4VUciI9OHA4kSm5shs2XR5cs3bDyni85XKA9iqbODX9TohUGB7JltxiDmeGQBvt4ALGILjhbAzBEgZmN8390Ec//mc/1EvgoVHtOZuKNn94Nq6bOu9sFG+XyVIlz/btFlzsHRqbWLf91d+9DRT4HAuB1+MmJipZEGeHhWhhnWiFyDpYuO3DR4MwQ8ygskN6JpfP706nUzsmxkYPTo4PjlULyQK7wlmREKvN2Mve5wuwNpy5VaxGkq9ywgRBGkn5OtLXqe8MROw8mvd5NmK0M7YJ0lAlldU9VZT6EUOY7dfKBVlsi3ltTuoOVMOxTl9bR3cHzgorA6HQJiy358OnYtChCEHEKZhB3+I1Rjc/6/hHBcSdzIoZGJC0pe+yQ8ZHP/rR9+1UeyHU4Cc/+Ulti6K6n7V01gGljY2d/SLZVW4DlvjPBPzBt4sOiEigXcc1Xjnr9TxBD0lCGqVRbufizsJC9rmRUWSCNvTn89kjuWxmoJhNjeWzqaRVyjEGKpd90CsfiNiZpyHCnIiXcS6o7Mg6iq2rmE3nel1mQRzRgZOasnFu2WfgqeVvwlIwkH/8OvYNhs4wH3R24hOimqIh8tNeJOH2hTz+UCwYiLTEAuFoO0agpT5/cBkMS+psh9a5itkw5jS5kLEqJcPQ9EKmlXlWf0pyuhAOHtwT5cp3O6vUPnvrrTdnIVY3G3t7br75Zml7ZyWdNQK46aabPJs3b9Z4oMyBVtT6USrzF9hkIkhROhbLKMaSswKV0yzUEKwxxCAumPDXmFbjMLFsBXJhygGhUk5wjIH4Y4V8brRUyE+Ui7lEsZhJ18qlHN6IRRmVyAC6heQV6YE5W67kymZuMeK0f1NPDT7r2H+ivmyS0nXCx/dLHAbjkTaV5D9nSTxJDlEv7MON9PcF2IgyEI75QuG43x9qgxF1wlw64CnttK1FA3f8SPlE61wb+4Ga4YtqzO0FtdyeZtfM6TNASTNqbDvqYfVcEIt/Zg887JaPfeL931YGd955p+9d73qXtLtZmOScijmtl07UuaeV4ck+EnfiHbcIVO9+6lNf+H/Aus/h936eODBcW36c8mg5l7mvqn6yRGcaQ5BoSXCm/1l1iBjTT/W0BoDM/QvBJa3YgqPCWmN2p1bEhko5XSmVUtBtulopZRkD5jGksWd4BctsSQv8Gd/JJc8kLMXKDdbGT1MxoCd6o2AVD74pWp+WTMqI7YXi0dlZRICrdoBTkGgLYZbtxaA7tvPwxtHOYxCj5nU53KyqUvXrdVfL7HlWIznJV2NNU7zKqB+cXp4JoGHItGpY/I2gAC/vQ7X48Cc+8cFtapEEC6cqZ7X5jKQzRqg0Sh3o5WyPQ2/78kq8Q/4Wd9vfotulJjmDdmd+7owA4AwWYtBbZGTIFm1eBET55qRLyUbnmeolmpMKKZqEkEX2JaSg8SuFUGQV15QL+igv4LeoD1SIbF/K1RRhOxixhgq1msD1EpU8k1Vaob3Nb4jQMBAxkakkwarydZYUJmd1lA6udaEidKofuv6/JtE2gZJ1KZYXF0aXYlfR7r/xB0uf+vM///OMGioJizosvDXAWczGnxFClbHorrss66673lF517vu9K1Ykf8Ajf4r3AKDOMSLKxkNDmQ4I/VZTICeSt5ChjoBNH92TKfzjl7SyaY9mzjqRKJ7+rQOtqaTyaSRk01YQidzJUKrHzaONerR+GIqU7tqTjmqi31nwf6qzIXOc8EqR7sFKk3RKXaVlc2kDzGm/8gtt3zgX1SI8Lm3d6Cy2NJ10QEkSeo04tOf/sL1mF0+z0qbC3GylqRAup7T41DN7UlSSTopCakQO2dlOsFgDPVpJiau7Z8g04zJVLvRy8f+4oPGkxk/XoSb9frDnM2wQOWbXcPhOBCEgsadm0OeOsGy4soXkO2BqagHWGnz4Y997M8U2d9qxnP9Xui0qB3lVP622/5+OWr/P4ZD0etlpi+WinJ2Z37RrC9d6DbNNz/El8ZbRoLh5cBwuU4F1NeooDKa6FLiCfrQTL+oZ1FhOd9Gna3v6wguMcw8lJmSYayLtdsY2dgUlflUzUsLoJpfBaKMdw1gpYefUzBV/8NMNHRT4G+FLbLyhfw3fL78f/7IRz6S4DevHMNIFwzsZ2Q86HLJ5896OpNNr8NquBqLWhidX42WEUKNM+rdgrVqjhnZxR4jiximaYaEFcDchiDTbMfwYiwa+BVYg09o8RWYR9dT6T4ImJUvOA7Ux5A6g1XKbCbZpiaqvecU4s0RTCd8rU6IememdjPoZiAsozWLDQQdMWr4YD/LxXZHQr4XYuGW/fjark5lCq8mdtZm5pgV+sYwRGMvE4HXk4B4NmBoF0vJKpzxPXPDph2sMd4OXmzP52PC40VNi444dttsLqOx6p6dAzeh4/8pBHGtjGr1uTaFfFCHKFDwYtfJlpi2NBSxGRwS0TFbqLnFQdwSnmuNhp7o6Yhv62gJjRB82xi6qtWiO50rRccT2SWTyczadK64sVAur8GftQ8jT7uIHLcdQ660G7y0jTC6JkmN5sL8lzevaSePdJb0ONdT3ZPHbh60BNGIyTpnzcvyAzhKOooopXmQCDrtORrwefYy0bO7NRre09US62cNvsKMYB4rMYXsA/Rl78hkqmd4LLl5Mp27nK1bLyKLbizQU8wQgJKzI5kFMwPDRQScKY8ew+ZNgB7wlSEb5bt+RN3u+PjH339fU9mqi+nopnsLdrnYDW1UVET6jne8o8F5brvti1fQmf+Jtt2IlI3JuknHChmYcljwyXEBEIOAASSWTgygqF42MhF2wuPZz1rTZ1tj4aeWL2nfyUKACSLMuvOFSpApEp8sCWoIcxriqIpRXEIasIcqk27Fqp8oBa0TyezSdLawPJsvrgLJlhPIsIeZSpbi1TTNAU5OTcuoXJuQbWJWRbh1xvqi0SlzvzA6nYjQUCbgqINE/pDyv1ZOeeTmBLOvQ36v5wjM7gAriw60xcNH2+KRsVDAw5I2BeWq+JhN9tNg7WLQaLMgEAp6i2zVi6MTzsHJZPvgeOq8iUTusmy+8EqCtq/UlK2YgOJoIG0dXFFVNF/byGvuzZr1TSdvMxeunFlxN0yr/4355judaRp9fdNNMpRO4fWsOc7zwUI27qRVoS9cN9/8Fe+dd9qTxrWRnbHv3P/MDYNjqRsJEboFh7w+OttWj+y5rNM2LpANxTnEyVQEvj94DhmVCsacCHjdu6KR4DMdLdHnettj++OxUIoJIm82nw+DQASDlmAgBIUTz6mpdSAnUbugWP7gU2QIF9/AYijoKclEQogZH6pcJJnJt6Wz+c58odydLZSW4BvcjZ9PB5yojekWlrFZUWY/InYnCFUXFNmaanz6l4KjhuHSDqCINFose6O4J5jbGYUoRwJ+30DI7xmMhkNDsbBvjKiNiUjYVxAccoWKD0bn17YohlMBUydI+0w1EuG6cfPQM1/AVQz6fTm3y8fqm3R8aDy5ZnQy80rg+EocFzci4TS/a/oTBi8tiWkr4GfbPW2v1GwAABZASURBVE4Xr0WgsAkXAe8VIFw79tX2tsRCP13e0/H//9pNv/EgMCiLODdv3i5nHQmeRZOizTA63QY153FK15KsfS0tHYVcbjVA7WyJBnPBgL/YPzLZc3Bg4oqJVPaNTOdfJMuaxjNgr9i1Os904IkKA4gAzVgTBTxsFD7UMXbJxkgBvg0E/d4XWkScrZEdPR2t/QRQy5UrBV8+VwrBxv0Qs7YBqyjAmsqBc88KH73rvCPCNYdkNv1MwQSD8pQDSF6P319ixwCiChA+qljyIIF9LIIPZHLFWLFcCmdzxfaDgxPvB8eWyYmB9p5LnjwstGYzDI/1/Kol7Xfi7QjxBJIwuHTI787jK1FSxPhqQRHiy14xOO16AGA8CiKtQOswXjsAdRO8BLfZkgNXxvxuGB75VFy4CRXQYHJ4WZYzyVx4aDy1bCKR3pTMFi7OF0sX4lffJQOVAkHIOEWS95D6bq7O/upvxeMDZXDQZzOtoM/7q46WyI9X9XU82dnSwj7S2VA6U2E1hjXYGg4feOWWLazbXRzDkRowPc2KiNNfnO9vEND1yCOPRNlLog9EXkLBYSSMiViovMNBb05qD2PA8MH+kQuQsjdk8sVrff6AX5xNqk69DqqzqTd/EEJTHA3A0c9oR3BagG2xGY/GRU+1xSJPs8T7pXg4PIF6VUal9SnquaL5CzGakWk6ceq5c6/5ul6XxknP9MN5V4QrZFEb4RkMcqaQliDwRKXz4iZYcS3v7hr5/kPP/FkyX/59VgjB0c+OwaTRkPqFXQ18FRki9HXEb73u0g13Hx4a70YXlB+VF8JUi2BBU+0TV+U7o4VMh0dz/jM90z0Hds67zj3BEgKUK3UNzaVE9L4C+yGV8oWibzyZ7xgeT2xgPekl2XzpEly2VorYZNzTGJkqOXiDXLDH0/X81V86ZDyknV4kaCEVDQV/1tvZ8gCxpXf7fa5iBiZeAFdUNoxXYXWkWqTwf+4nevjgZW99q2YwFj0ZhF/sUu65555AC5H4cfPoQ5VsQXKI0xnElvgQdtL5oAS/WMmMpMsDl9rR4fSKI0Oj1yeyhTfC7LoEV3FMAK5xrOoOE8SrRt5x5EbH5AI+785o2P9EZyz8bFdH/CBBqTIqD6L0i9s7qhVBIul/MGAagqhigoehGI2hNJadlvSdbuld6T5OG6a9JguEnVddMku1Q9I2wqWC7P5YOJzsHxlftePA0JfAGcVm0jdnpF+m13fabyNNMdXuv+LCVe+lUgq9p8G2JE9jSxJ9M72dzfnomVEhuSmY6hmnRvvUXud3ve0iLqNWOO/rG6efDAPkgeCOpCekpruEGo6XlqeWzxWjgxOJ1RilLoXhXwZ8NzgB5WRBlh2EsvSpEvRp+ygz6j3UGgvdt3JJx4NoWgO008tGYQGGJ+gLdQbL2fQ1U0mGoaAxgYwT7kDgSLC9feSyyy5bVIf9BsDsui/OX4VWYeep1bDfHtSZgOaE4EyCQQ2n7oYUUukMC5EzdkeKYGMRfw5Vp2PfkZFrx5PZN6MWny+VVtgsBED+jKCmbJeVtrMt+nxfd8tRiKEkIw+Lb2SubVCaKW/amNNBJFO2MKZOnHqXexr85OAKGfUY7CDM7yChSHxgLXylnrXc+8i3OS/lNxsB65mThHio/6mfPrH7dtx+X42aLglwUjXf+X6xzmKG+P562iO+f7j8gnXfGk+lOrBpEz5misiayz5R25u/4ZpZmCpb5VkFBq5p+qcAh2Xv3VoMtqswoGbtLvcaOKJypuOJ7onxHZM3t2DSeQ2lMEAFB0dTywdGJy9GRb6sUKycj8LVCnXqUw2r2KXQ90xXS/Setb3tj8WwUSA9wzJ06fl0XHGYsimQctXf9H9ektXX3n7gqquuMnGX9O1ipDNCqMLxH/7wh8EWn68FCHRBYO1CejizoVb9UeNm4qDi5HxT9hOWfnQiFesfS12SzBRfh/NqJhL0P9kaC+5uiwWGAwE/8Zk92sXKL8ksiYkKbNSemVSqZi7vdLbeB/BFPsrCAVLsh5coRaPJHGllOl07GI0GUXfCOMpGYCYR6h3m/SDvq3Nh7MSRpBMdA5Q6W+2aCYkZyBpGAxPwdcTD409uO/hrw4ncR2T51if67iwm8NAYkFKvWNf3rs52xmj5PJogy2fr9Xbq1syMHCbnwEDwBPbs10D4F5C6SOAwdmkTcWYIqJwhZGx+0003lbdv3+4d378/QnjOGEGiWxhgxmFgYeBrImWoLMFSeCKp5vSXUwedBWOdnbEtlFjzBjxsQ+kqprOZwHgivxTN7LxMrnyZmBBb36Lexl5siUXzGBHZqNtscehIW2VlkspVGxHZjNUR4TAaOjrNvOK4wokW/f7kli1bFn296hkh1HqbzenJJ5/0EYk4ztitk87oxJwY44FxvBBQDNGCDBrb6WB84MnnS16Z9QlKVWQsm0KQagq9qnEfmzMGMcgQT6iiSRAWAPsI2+814ySd+T01ZuJDIZryVWeLoDjJwFug3AxcO4F6nnAXCulSPJ4jdg4fHJ+opst66CHPj4vFABHWNPsdQu8JE5A5BLKGoLQASKoVQIp6xuCragjYyckhZNpkbmncNzQyEt95eOLL1KqzPh4/a8QKTEpMmfkIB/qjV67v+e9eXygoeDuquyqta53VFiX04Spah7buLGGSKQDHPBI4i9TMZog82I7hrtTRUTRR309ghHnwwQcJkeILWWNjMQZDLZQbJ08CvFkMEW1GqPLUr6iepj/FiFUf9Stqqwxb5gyP0BSQFgdWWLCXY29fpoiq0Ju9M0M2X2aPXjaOQwMLEa1e+ILhCkSC6Mnblte2BkE9itQhSRVGYfJj5UgkNRt+CC4Lnc4koaosw/XUCFl/V7ABEw4DHUC9k734WtQZEKaXnc0NoBlTNOoHgLSUgaDJABqrvJ4pYA/jC4WA1G5rJu/mb1SO7uvACMHGuXZH0M/MsrtyIGRKwIdckkT4z+zL5QrNc736ntSogwqo/zBlmaf1P+TpeuorX/EO9Pb6oqhP/nDYz8am2rNGElchDW3ixTKKSPBqRyrWf1INKpHJhIjbndl5cPLdhEq4kcXmYhBnxGusuQ1OUzibZvZ1RD7Q2RrYGwxG3dFIRItp5VpVQeVT/TQsKEIkRaRjnhsFWF6eMVse16KCN5Eobdq+vcwchjSE6akBUx40gXUKP/SBcKSlpSUYJRg6DD0OgbQAzyi6cRAE8IEnGjfL/gB/ZBvEJnzR9804AU+E+hidgDt65hCo3mn+Tr/reFJVZEKIPAfBT8I1R9Guxrf8/OfZpjY57TgOH1TGQianoIXM82R5qcxGw4Tgd91xRwRK6wSyPQCqAzXJqMXgsDFcKEMHmAKkOkdnHc59vaPf6gWjjtFpSnquE2PjEkiVxSqYLOVyk2DPZDUUSg0MDORvPR6ZHLg06qn8m5J53oRhs70nlc31FQi4ra3NGy0WfZOZjB/J62efzWDRQ6AEJDELsXtZj+sanUyvPzqW/bzKgY/zqcMXmkpe5EvKRZoGMAKUHj9/Rett+YIVZEV5EpgPsbFeDqZaZNOsfIUpE6x7xVw0Wkqn0+UZGFxzTc08hgNUHswKL545rx3zDn3kvnTp0uBouRwHGVqZv271BgJxCDiMCDYmBPW/0nQ8cCqi+8Id/RYxOrjDB0a9lSAAYVR+Ba6ktcGjaD1D0a6uUdrXPAadsY5OOYtxdgpcjLxPmKcAzx42XgJuS3IIeC4iPvhufNObYmuXLesIRqMdbJws7tlQi9UJorrmjAVkGR5kJKgTpfOc0V61UCoUsqV8PjmcTCb7Dx9O//S++/IvHDokidBAhGXLllXg3JVNmzZVqJMkQONZc1knuXYRtcLNlh0ubdvBliruAwcOqC7NR3MWTj29X/3iF9cTnW8FLS3tOZT4FNE/L8SopPWmUp/PZDLtxhrqao16PrOsI/4IlvLQwPj47vd98IOHqIgjHafDR79rwLEGw6kCy+qaNWuq9GeNfjbPTqcRigLC+NWTSCQ8R44cMThSz8d14YUXeq+77rrQ6t7eaHs43BKIRGKsbQ5DuEZF1nvCF0O0GmKAH3UibFRFz4VPSrqJvYD1IkX2sE6OHT56dPzvv/a1FPvFiPerDVXU9tKTTz2lDZumt1+fL2pykGVRC2nKXOVJ4AkBdXa3t7dbXSK2jg5r165dDgA8733veyPrV65sB4E7gnbID2NYEHCV+NYYFRwgi2BRUdiMu5yHONNsQpscmZhI7j54MPPNb35TUSMcgLs2btxot3tszBqBg46Pa5d5k0yHcKV3ncNBTvsN+6+QZqZD+TZgqrY5yWmj81vnzs5Oi7nl6t/ccsuSFWvWXEDIwtKBock3Z4uu92KVPBvqL+M0SafyvvW9LX+Jg0M5nclnnnv++Rf+5stfTlx99dXu0VGFM25KdRg6d6bBUvB0YCo46nD6wfSh8139LJgKL5zDEKeBYhOe6N06rigPg1N//M53Btdu3BjpaGmJE0gujrSNYvTRCi3D6EENo3FNxx39RtPC56U0OTY5ObZnx46JO77+dc2Nqp42rhyLJ2qDUf3rZ06LnxpItfhFWQSKPiZQ2XEdJcTtgGDHAAwIYTrhj266KXj+RRe19nR1dTLQb8PgE0LBUQcajgmQCcJeyYo4sUwmDvf3p7bv35/97ne/q3ktA2zydSlfpXre5nqWP80wUR0c5NLZQSS94xxONse1x3kw23ndunWul156qYrkCN34hjdcEGcpSSpTajswnPo8UwlyMzxjxFpXtdFs/Wz5UPva+mWt32a6omV0fHzfuz/4wT3AUO1Xv8zWnNnuN8NT7zgwVX7O4cBVZ9O3epE0K0wdXNFLTfiin+53vvWt/jUbNkSWsW0j22XGif4YwxgQwsBnT/3oLXCjXCxmWVc6fmh4eOzx555L3H333WLotY3giwTHCXDFaZPqr2VvJmoJ50VLToGLVkBTxuKSZhqj6d6Ml+qE1tZWeYzUHCl7ww03+K+8+OJ439KlHRg2WsUJIcwke2sm9/f3p5999tnc1q1bGyqtpGYr1sAxSkB9qZ0Ggjl1mwlGsyKQ89Fczg6y0Ubrjs99YXV3V+t6PG7yuw5Nvo/tG28olQqov0b7mEt283oHQsVMwI7V1crkqp7Yh2Nh72gmX67t2rPn+Vtvv31U8FQ9FyjNBFNlfVpwdfBFrHiyCWf46QJvfJdt2hRq6+qKdUWjcYx8ZisUxtXjBw8fHvvBAw+kX3jhBeOsoDbCHF1zwBfVX3XVd45A4HLx0pm0LEq6aUDuEKwz/jquc0RUkqjqAKQO6OOp3X///UWOUYwyE7//9rcHCcVZ+4cZVFoAbTgy3LC2y5bK84XecfWbb4bO92pnXdJXh0f6x9vaonl8WmvxsP+R4UT+BohUEkCI0CxlnM8X8GyaqHlnT9Dr+iUul4cZOrSX8/lDjz7zTFIFSbosYFpQmDr48hIVdHBGdW3CG0nKxKpVq7xve8MbAtgPrK/+y78IF42W4BCocEZ4p29nSQ6BOlLUfD/Luwt6ezbOtqCFzJKZCFbqsMMsZgWQkTzKxB7H6qrxroCsG2CSJVRSp72cktom5MA44nv/u961qTUWW6Jx954jk7d7/MG1eFcxtlITp3eVQODcc8Dh/D4ZBI79ViN+jC7GPXNpR+hDPW2hXZlsMXjk8OEXPnTrrf1SBWF6J8v0nHtu8KY+5FHlHO1M150Ar2PjxhOpt3rNSQKsgCaNTUQqoXNGk0MkZ7TQemFqrAbtqkOzSuxgXf01m/gMmoAsdaI1Kq1eWEB1rFHeIl8cQ01iLDAbS+oXUmw4Ho8Taj6ciUfzP55MFX4P+mGXNaYMsE8eUy8tP8No2bg3/XfjwWwXgNl8g01OW4FXyoSa8zy5rCu+I1+sROEVwy8ePMiubpYxuM2Sy3F9Nct7Z+W2YNvMuMEdl9RjRzeYA+44BCqt5qwQqAO4s0moTh3EpXRIFRbBStIqzYgEBvj285fD3ylCsmurNolB6Sy1yZyJwq6xeOWiVasGXKFQJ1437ResDf2I1SAPacpJUwzOnB/fLHhS/iR3wO/J4hhiBQLlNJ4Gh1euXGlw+qKLLnI/9NBDaotj7HGudZ6pjQtex4XI8BRwx2mTI0F1PqvJqdBZrcS0wpsJdkZinfb+ufSzGZ4OMYowRZTOofsztkvEsvWee9bh5bGOVbT4H/rFyc9Y0tI1efx4vdZE0Bt84SQ7bqutOhziFYN1rqfD4Yy1YZ4FOfU+ZwjUac+5IFGdujhnIWezhFXnz4jYzgdn8ex0rEN8qvd0wpxr9TQ0rT54993jTNrn2FwiWqyyNruhYMw1m9N7jxDfZp6RBsnwOZYKek2QaXJTG2eCv9Pm6QYVh1hFuM3E61RsprycZ2fzrHaq76TinlEGOZdGn4uEqnqrMx2ASR2WlD1XCNYhTiGoOlaHCFS/542EOY8nFWGWAWVUIVpYaobHFZTjrA6hjAVPyp/l8/Li0ZKZHBJ9tO5wPhuRnqgOjuYgmCgpD4donbMDw3nDy5Qwvz+qyzlLoE7THIA5v8/Vs+opgtWh6zPdwQ6cHOJslpxUZ2HT4/ffvxwnjvOxH5mVzRJxKsFxgXPW6+reqYxdNRbVNyw6Mmc1wlnJo/sS6fghHwl1dm5fxIXQYrgSEA7R6rfSmezT5v6UQNBxTqdzVaJOB5o6UXNhUkkkXXU4wOZyUZKTv4hTOO0ci4ZQ8n/msPbs3Ztu6+zUGkcW4miRir24QK10CNM5696pJodgnbMsSfKVxnsnP5nNJt75pjfJW4roeqft93yiKgmeDmGISEWwwkMdDswXDcaUoSQJKlzSsdhlUcT8k4D0ckoOUBeTUIUsOhx1yGEQQrCFTI5kUVukKQRYoOBnLx7fd370I/fVr351FMKJQ5AWSwFZMa1tShUcwU7QFst5pw5oWUv/tFRI9TbXeu7cb363ngUab6VGyJEaK0RqLGCw8PJK3HP33YMv4nPNMz8OAKqbQ0TClYUmJPVnMyPUb5Uh2DhlcbngSUxX/aq0mOXYJSzAX3XCyykpVIeQ2iHYhay7Okz5qhPF8XVeqOQgX7O6dxwysupG88Tyjqns2rnzSN/KlUkk3RlDpKGBgez9W7fmNN9Yn2NU2c044sBdxKXDMIX6mdO8kvIT8Qj2KtNhElwueH8rb/UFG0qbNnA6t9MZQ4J5gkFIzdJNA1wHWeaZZeNzwaCZQIV8C5EcJBfSOdLIgfcJ2yCnDoj1hO8sRAVnykNEqvnGOaTmtjhEK+Ym+C1U3QU7MWaHWSxUvmRpJKnyc5iD7p2zyQH2OVtBKibuJ0mqui5kR5GdyXMhJajqKKRyiFMMRumU6y1iNX7A8rFtcoOzs1vgv/Uy5M87RyKdqQIOLjlEq/HfQhGt4Cl3UzG8U4Yl35woqd6qa/PC8BO9f1aeOcA9K4XPoVBxUxHpYnSOEEpqlmPY4PK0kxDIUdVOmzhPu/Rz70MHr0SoYoQiBMF7vql5qeRC4oTqq7rKpXUh851vexvfOwBt3DiHLhaTSIU8Gp/MF3nE6VVPR7U9JzuZ+p2t5OCX4OJoLiKI+STBWsx7oaWr6ip8ELHOFy/IYmHT/wGd8B1AAG1L7QAAAABJRU5ErkJggg==;" vertex="1" parent="FDaz8-wHrUfzyFrvcFVr-5">
          <mxGeometry width="92.75" height="137.54" as="geometry" />
        </mxCell>
        <mxCell id="ZbMo3GRtVcUucu5osk9V-23" value="ArgoCD Cluster&lt;br&gt;" style="sketch=0;aspect=fixed;html=1;points=[];align=center;image;fontSize=12;image=img/lib/mscae/Kubernetes.svg;labelPosition=center;verticalLabelPosition=bottom;verticalAlign=top;container=0;" parent="FDaz8-wHrUfzyFrvcFVr-5" vertex="1">
          <mxGeometry x="21.370000000000005" y="127.1400000000001" width="50" height="48" as="geometry" />
        </mxCell>
        <mxCell id="FDaz8-wHrUfzyFrvcFVr-6" style="edgeStyle=orthogonalEdgeStyle;rounded=0;orthogonalLoop=1;jettySize=auto;html=1;" edge="1" parent="1" source="FDaz8-wHrUfzyFrvcFVr-4" target="ZbMo3GRtVcUucu5osk9V-21">
          <mxGeometry relative="1" as="geometry" />
        </mxCell>
      </root>
    </mxGraphModel>
  </diagram>
</mxfile>
